<svg width="32" height="32" viewBox="0 0 32 32" fill="none" xmlns="http://www.w3.org/2000/svg">
<g clip-path="url(#clip0_1961_7156)">
<path d="M6 12H26C26.1751 12 26.3485 12.0345 26.5102 12.1015C26.672 12.1685 26.819 12.2667 26.9428 12.3905C27.0666 12.5143 27.1648 12.6613 27.2318 12.8231C27.2988 12.9849 27.3333 13.1582 27.3333 13.3333V24.6667C27.3333 25.0203 27.1929 25.3594 26.9428 25.6095C26.6928 25.8595 26.3536 26 26 26H6V29.3333C6 29.4209 6.01724 29.5076 6.05075 29.5885C6.08425 29.6693 6.13336 29.7428 6.19526 29.8047C6.25717 29.8666 6.33066 29.9157 6.41154 29.9493C6.49243 29.9828 6.57912 30 6.66667 30H29.3333C29.5101 30 29.6797 29.9298 29.8047 29.8047C29.9298 29.6797 30 29.5101 30 29.3333V9.65067L29.6847 9.33333H25.7307C24.918 9.33333 24.1387 9.01052 23.5641 8.43591C22.9895 7.8613 22.6667 7.08196 22.6667 6.26933V2.27067L22.3973 2H6.66667C6.57912 2 6.49243 2.01724 6.41154 2.05075C6.33066 2.08425 6.25717 2.13336 6.19526 2.19526C6.13336 2.25717 6.08425 2.33066 6.05075 2.41154C6.01724 2.49243 6 2.57912 6 2.66667V12ZM4 26H1.33333C0.979711 26 0.640573 25.8595 0.390524 25.6095C0.140476 25.3594 0 25.0203 0 24.6667L0 13.3333C0 13.1582 0.0344877 12.9849 0.101494 12.8231C0.1685 12.6613 0.266713 12.5143 0.390524 12.3905C0.514336 12.2667 0.661321 12.1685 0.823089 12.1015C0.984856 12.0345 1.15824 12 1.33333 12H4V2.66667C4 1.95942 4.28095 1.28115 4.78105 0.781049C5.28115 0.280952 5.95942 0 6.66667 0H23.23L32 8.82667V29.3333C32 30.0406 31.719 30.7189 31.219 31.219C30.7189 31.719 30.0406 32 29.3333 32H6.66667C5.95942 32 5.28115 31.719 4.78105 31.219C4.28095 30.7189 4 30.0406 4 29.3333V26ZM5.918 14.5973C5.06067 14.5973 4.35867 14.8013 3.802 15.2213C3.20133 15.6533 2.91133 16.2533 2.91133 17.0093C2.91133 17.7653 3.212 18.3413 3.82467 18.7373C4.058 18.8813 4.67133 19.1213 5.65067 19.4573C6.53 19.7453 7.042 19.9373 7.198 20.0213C7.688 20.2853 7.944 20.6453 7.944 21.1013C7.944 21.4613 7.766 21.7373 7.432 21.9533C7.098 22.1573 6.63 22.2653 6.05133 22.2653C5.39467 22.2653 4.91533 22.1333 4.604 21.8933C4.25867 21.6173 4.04733 21.1493 3.958 20.5013H2.66667C2.72267 21.5933 3.09 22.3853 3.758 22.8893C4.30333 23.2973 5.07133 23.5013 6.05133 23.5013C7.06467 23.5013 7.85467 23.2733 8.41133 22.8413C8.968 22.3973 9.24667 21.7853 9.24667 21.0173C9.24667 20.2253 8.90133 19.6133 8.21133 19.1693C7.89933 18.9773 7.20933 18.6893 6.12933 18.3293C5.39467 18.0773 4.938 17.8973 4.77067 17.8013C4.39267 17.5853 4.214 17.2853 4.214 16.9253C4.214 16.5173 4.37 16.2173 4.704 16.0373C4.97133 15.8813 5.35 15.8093 5.85067 15.8093C6.43 15.8093 6.87533 15.9173 7.16467 16.1573C7.454 16.3853 7.66533 16.7693 7.77667 17.2973H9.06867C8.99067 16.3613 8.668 15.6653 8.11067 15.2213C7.588 14.8013 6.85267 14.5973 5.91733 14.5973H5.918ZM9.636 14.7653L12.464 23.3333H14.034L16.862 14.7653H15.4487L13.266 21.7493H13.2327L11.05 14.7653H9.63667H9.636ZM21.1487 14.5973C19.9687 14.5973 19.0333 15.0293 18.3427 15.9173C17.686 16.7453 17.3627 17.8013 17.3627 19.0853C17.3627 20.3573 17.686 21.4013 18.3427 22.2053C19.044 23.0693 20.024 23.5013 21.2933 23.5013C22.006 23.5013 22.64 23.4053 23.2193 23.2133C23.7483 23.0336 24.2391 22.7569 24.6667 22.3973V18.7733H21.26V19.9733H23.364V21.7373C23.0973 21.9053 22.8187 22.0373 22.5067 22.1333C22.159 22.2312 21.7992 22.2797 21.438 22.2773C20.4693 22.2773 19.7567 21.9893 19.3 21.4133C18.8773 20.8733 18.6653 20.0933 18.6653 19.0853C18.6653 18.0293 18.8993 17.2253 19.3787 16.6493C19.812 16.0973 20.4027 15.8333 21.1487 15.8333C21.7493 15.8333 22.2393 15.9653 22.6067 16.2413C22.9633 16.5173 23.208 16.9253 23.32 17.4773H24.6333C24.4887 16.5173 24.132 15.8093 23.5647 15.3293C22.9747 14.8373 22.1727 14.5973 21.1487 14.5973Z" fill="#1A8EF7"/>
<rect x="2" y="13" width="24" height="12" fill="#1A8EF7"/>
<path d="M19.3184 24H16.2324V14H19.4551C20.4251 14 21.2552 14.2002 21.9453 14.6006C22.6354 14.9977 23.1644 15.569 23.5322 16.3145C23.9001 17.0566 24.084 17.9453 24.084 18.9805C24.084 20.0221 23.8984 20.9189 23.5273 21.6709C23.1562 22.4196 22.6159 22.9958 21.9063 23.3994C21.1966 23.7998 20.334 24 19.3184 24ZM17.4434 22.9258H19.2402C20.0671 22.9258 20.7523 22.7663 21.2959 22.4473C21.8395 22.1283 22.2448 21.6742 22.5117 21.085C22.7786 20.4958 22.9121 19.7943 22.9121 18.9805C22.9121 18.1732 22.7803 17.4782 22.5166 16.8955C22.2529 16.3096 21.859 15.8604 21.335 15.5479C20.8109 15.2321 20.1582 15.0742 19.377 15.0742H17.4434V22.9258Z" fill="white"/>
<path d="M4 14H5.44531L8.84375 22.3008H8.96094L12.3594 14H13.8047V24H12.6719V16.4023H12.5742L9.44922 24H8.35547L5.23047 16.4023H5.13281V24H4V14Z" fill="white"/>
</g>
<defs>
<clipPath id="clip0_1961_7156">
<rect width="32" height="32" fill="white"/>
</clipPath>
</defs>
</svg>
