<svg width="18" height="18" viewBox="0 0 18 18" fill="none" xmlns="http://www.w3.org/2000/svg">
<g id="Thumbs-up (&#232;&#181;&#158;)">
<path id="Vector" d="M7.65 11.025L7.65 13.725C7.65 14.8434 8.5566 15.75 9.675 15.75L12.375 9.67499L12.375 2.24999L4.5315 2.24999C3.85834 2.24238 3.28241 2.7319 3.1815 3.39749L2.25 9.47249C2.19056 9.8641 2.3061 10.2621 2.56598 10.5609C2.82589 10.8598 3.20393 11.0295 3.6 11.025L7.65 11.025Z" stroke="#898686" stroke-width="1.5" stroke-linejoin="round"/>
<path id="Vector_2" d="M12.375 9.75002L14.1773 9.75002C14.968 9.76401 15.644 9.109 15.75 8.32529L15.75 3.60029C15.644 2.81654 14.968 2.2363 14.1772 2.25029L12.375 2.25029L12.375 9.75002Z" stroke="#898686" stroke-width="1.5" stroke-linejoin="round"/>
</g>
</svg>
