<svg width="63" height="29" viewBox="0 0 63 29" fill="none" xmlns="http://www.w3.org/2000/svg">
<g id="Group 1321315251">
<g id="Group 1321315250">
<g id="Group 1321315248">
<path id="Subtract" d="M7.68066 0.799999C7.71458 2.02086 7.93573 3.10613 8.20703 4.53047L10.377 14.84C10.4787 15.3487 10.7161 16.9424 11.123 19.6213C11.6317 16.7728 11.8698 15.5522 12.0732 14.84L14.7861 4.32734C15.1931 2.80126 15.4474 1.74956 15.583 0.799999H21.5684C21.7862 1.72472 21.9079 2.63115 22.3486 4.2248L25.0957 14.6701C25.367 15.7553 25.6041 16.8747 26.0449 19.6213C26.1127 18.9773 26.113 18.977 26.3164 17.5529C26.4181 16.807 26.6554 15.1799 26.791 14.6369L28.9277 4.53047C29.2669 2.97049 29.4026 1.98694 29.4365 0.799999H36.9922L31.3438 21.8791L31.3701 21.8859L30.4541 25.3195C30.0133 26.9133 29.7072 28.202 29.6055 29.0158H22.8232C22.6598 27.9562 22.4504 26.7434 22.1113 25.3869L19.5342 15.4162C19.1951 14.0937 18.9231 12.534 18.584 10.2961C18.3805 11.6865 17.9733 13.8225 17.5664 15.4162L15.0576 25.4211C14.6168 27.1166 14.4646 28.1104 14.3115 29.0158H7.5625C7.39294 28.0323 7.22354 27.3197 6.71484 25.3527L1.28906 5.00508C0.814289 3.27555 0.339124 1.71563 0 0.799999H7.68066ZM48.5547 0.799999C52.7259 0.799999 56.0833 1.95319 58.3555 4.15742C60.8311 6.59909 62.0859 10.1599 62.0859 14.6701C62.0859 19.3161 60.7297 23.0468 58.1523 25.6242C55.8802 27.8624 52.6586 29.0158 48.623 29.0158H36.7529V14.4436L37.9785 9.86934H43.4678V23.0812H48.0127C50.2167 23.0812 51.7763 22.504 52.9971 21.2834C54.3875 19.8591 55.1338 17.5864 55.1338 14.7717C55.1337 11.8893 54.4895 9.78659 53.167 8.46406C51.9801 7.27726 50.3517 6.73457 47.9102 6.73457H38.8184L40.4082 0.799999H48.5547Z" fill="#60099E"/>
</g>
</g>
</g>
</svg>
