<?xml version="1.0" standalone="no"?><!DOCTYPE svg PUBLIC "-//W3C//DTD SVG 1.1//EN" "http://www.w3.org/Graphics/SVG/1.1/DTD/svg11.dtd"><svg t="1732870929846" class="icon" viewBox="0 0 1024 1024" version="1.1" xmlns="http://www.w3.org/2000/svg" p-id="19515" xmlns:xlink="http://www.w3.org/1999/xlink" width="200" height="200"><path d="M173.511111 185.400889a436.622222 436.622222 0 0 1 643.413333 589.141333l112.071112 112.071111a38.456889 38.456889 0 1 1-54.385778 54.272l-112.071111-111.957333A436.736 436.736 0 0 1 173.511111 185.400889z m563.2 54.272a359.936 359.936 0 0 0-508.928 508.928 359.822222 359.822222 0 0 0 508.928-508.928z m-54.954667 83.740444c16.327111 10.24 22.186667 30.833778 14.677334 47.957334l-2.673778 5.006222-112.071111 177.720889a38.4 38.4 0 0 1-45.966222 15.473778l-5.461334-2.56-106.951111-60.814223-87.04 145.92a38.4 38.4 0 0 1-47.672889 15.815111l-5.063111-2.56a38.4 38.4 0 0 1-15.815111-47.559111l2.503111-5.12 106.382222-178.062222a38.4 38.4 0 0 1 46.364445-16.384l5.575111 2.616889 107.804444 61.212444 92.501334-146.659555a38.4 38.4 0 0 1 52.906666-12.003556z" p-id="19516"></path></svg>