<svg width="34" height="32" viewBox="0 0 34 32" fill="none" xmlns="http://www.w3.org/2000/svg">
<g id="&#233;&#151;&#174;&#231;&#173;&#148;&#229;&#175;&#185;&#231;&#174;&#161;&#231;&#144;&#134; " clip-path="url(#clip0_336_136)">
<path id="Vector" d="M30.4866 6.80847C30.3393 6.80772 30.1933 6.83618 30.0571 6.8922C29.9209 6.94822 29.7971 7.03069 29.693 7.13484C29.5888 7.23899 29.5063 7.36276 29.4503 7.49898C29.3943 7.6352 29.3658 7.78118 29.3666 7.92847C29.3666 8.54212 29.8918 9.04847 30.5054 9.04847C31.1191 9.04847 31.6254 9.55482 31.6254 10.1685V22.6108C31.6264 22.7583 31.5981 22.9045 31.5422 23.0409C31.4863 23.1773 31.4039 23.3013 31.2997 23.4057C31.1955 23.51 31.0717 23.5927 30.9353 23.6488C30.799 23.7049 30.6529 23.7335 30.5054 23.7327H29.3647C29.2174 23.732 29.0714 23.7604 28.9352 23.8164C28.799 23.8725 28.6752 23.9549 28.5711 24.0591C28.4669 24.1632 28.3845 24.287 28.3284 24.4232C28.2724 24.5594 28.244 24.7054 28.2447 24.8527V26.6221L25.6621 24.0565C25.5551 23.9514 25.4283 23.8687 25.289 23.8131C25.1497 23.7575 25.0008 23.7302 24.8508 23.7327H19.1962C19.0489 23.732 18.903 23.7604 18.7667 23.8164C18.6305 23.8725 18.5068 23.9549 18.4026 24.0591C18.2985 24.1632 18.216 24.287 18.16 24.4232C18.1039 24.5594 18.0755 24.7054 18.0762 24.8527C18.0762 25.4664 18.5845 25.9727 19.1962 25.9727H24.3802L28.5346 30.1609C28.7437 30.3759 29.0291 30.4996 29.3289 30.5054C29.6302 30.5039 29.9187 30.3837 30.1319 30.1709C30.3451 29.958 30.4658 29.6697 30.4678 29.3685L30.4866 25.9727H30.5035C31.4018 25.9702 32.2624 25.6111 32.896 24.9743C33.5296 24.3376 33.8844 23.4752 33.8824 22.5769V10.1496C33.8824 8.32565 32.3652 6.80847 30.4866 6.80847ZM27.0908 18.0781V3.39576C27.0908 1.536 25.5736 0 23.6951 0H3.39576C1.536 0 0 1.51718 0 3.39576V18.0593C0 19.9228 1.51718 21.4569 3.39576 21.4569H3.41459L3.39576 27.1096C3.39576 27.5802 3.68376 27.9944 4.09976 28.1562C4.23192 28.2067 4.37244 28.2316 4.51388 28.2296C4.66994 28.2297 4.82435 28.1977 4.96749 28.1355C5.11063 28.0733 5.23943 27.9824 5.34588 27.8682L11.3431 21.4569H23.6951C24.5933 21.4589 25.4557 21.1041 26.0924 20.4705C26.7292 19.8369 27.0883 18.9764 27.0908 18.0781ZM10.8725 19.1981H10.8536C10.7464 19.1981 10.6372 19.2358 10.5299 19.2715C10.4922 19.2904 10.4565 19.2904 10.4207 19.2904C10.326 19.3333 10.2404 19.394 10.1685 19.4692C10.1308 19.488 10.0969 19.5068 10.0781 19.5426C10.0781 19.5426 10.0593 19.5614 10.0405 19.5614L5.65459 24.2372L5.67153 20.4819C5.67153 20.4254 5.70729 20.3915 5.70729 20.3369C5.70804 20.1897 5.67958 20.0437 5.62356 19.9075C5.56754 19.7712 5.48507 19.6475 5.38092 19.5433C5.27677 19.4392 5.15301 19.3567 5.01678 19.3007C4.88056 19.2447 4.73458 19.2162 4.58729 19.2169H3.39576C3.09918 19.2155 2.81516 19.097 2.60544 18.8873C2.39573 18.6775 2.27725 18.3935 2.27576 18.0969V3.39576C2.27576 2.78212 2.78212 2.27576 3.39576 2.27576H23.7139C24.3464 2.27576 24.8339 2.78212 24.8339 3.39576V18.0593C24.8349 18.2067 24.8066 18.3529 24.7507 18.4894C24.6948 18.6258 24.6124 18.7498 24.5082 18.8541C24.404 18.9585 24.2802 19.0411 24.1438 19.0973C24.0075 19.1534 23.8613 19.1819 23.7139 19.1812H10.8725V19.2V19.1981ZM17.8259 9.51718H15.0456V6.73882C15.0456 6.58219 15.0148 6.4271 14.9548 6.28241C14.8948 6.13772 14.8068 6.00629 14.696 5.89562C14.5851 5.78495 14.4536 5.69722 14.3088 5.63745C14.164 5.57768 14.0089 5.54705 13.8522 5.54729C13.6953 5.54579 13.5397 5.57557 13.3945 5.63492C13.2492 5.69427 13.1173 5.78198 13.0063 5.89292C12.8954 6.00387 12.8077 6.13582 12.7483 6.28107C12.689 6.42631 12.6592 6.58193 12.6607 6.73882V9.51906H9.87859C9.72196 9.51906 9.56686 9.54994 9.42217 9.60994C9.27749 9.66994 9.14605 9.75787 9.03538 9.86872C8.92472 9.97956 8.83699 10.1111 8.77722 10.2559C8.71745 10.4007 8.68681 10.5558 8.68706 10.7125C8.68706 11.3807 9.21035 11.904 9.87859 11.904H12.6607V14.6673C12.6607 15.3167 13.184 15.8588 13.8522 15.8588C14.0093 15.8606 14.1651 15.831 14.3106 15.7717C14.456 15.7125 14.5882 15.6248 14.6994 15.5139C14.8105 15.4029 14.8984 15.2709 14.9578 15.1255C15.0173 14.9801 15.0472 14.8243 15.0456 14.6673V11.8833H17.8259C18.1419 11.8833 18.445 11.7578 18.6684 11.5343C18.8919 11.3108 19.0174 11.0078 19.0174 10.6918C19.0172 10.5362 18.9861 10.3821 18.9259 10.2386C18.8657 10.0951 18.7777 9.96497 18.6669 9.85573C18.556 9.74648 18.4246 9.66031 18.2803 9.60219C18.1359 9.54408 17.9815 9.51518 17.8259 9.51718Z" fill="#5A5A5A"/>
</g>
<defs>
<clipPath id="clip0_336_136">
<rect width="33.875" height="32" fill="white"/>
</clipPath>
</defs>
</svg>
