<?xml version="1.0" standalone="no"?><!DOCTYPE svg PUBLIC "-//W3C//DTD SVG 1.1//EN" "http://www.w3.org/Graphics/SVG/1.1/DTD/svg11.dtd"><svg t="1732870599126" class="icon" viewBox="0 0 1024 1024" version="1.1" xmlns="http://www.w3.org/2000/svg" p-id="18931" xmlns:xlink="http://www.w3.org/1999/xlink" width="200" height="200"><path d="M339.570036 544.488727s0 163.002182 173.614546 163.002182 173.614545-163.002182 173.614545-163.002182-166.725818 157.556364-347.229091 0z m492.171637-66.420363c0-181.853091-142.661818-329.309091-318.603637-329.309091s-318.557091 147.456-318.557091 329.309091c0 89.134545 34.257455 169.797818 89.739637 229.096727a402.618182 402.618182 0 0 0 83.083636 60.509091c16.477091 8.843636 34.629818 17.687273 53.713455 25.786182 29.137455 9.029818 60.043636 13.963636 92.020363 13.963636 175.941818 0 318.603636-147.409455 318.603637-329.355636z m-318.603637 279.970909c-149.504 0-270.801455-125.346909-270.801454-279.970909 0-154.530909 121.297455-279.877818 270.801454-279.877819 149.550545 0 270.801455 125.300364 270.801455 279.877819 0 154.624-121.250909 279.970909-270.801455 279.970909z m405.457455-383.301818C873.818764 186.274909 709.234036 46.545455 513.184582 46.545455 317.135127 46.545455 152.690036 186.135273 107.727127 374.458182c0 0-112.407273 18.385455-107.473454 135.307636 5.026909 116.875636 123.578182 123.997091 123.578182 123.997091 1.070545 2.746182 14.661818-0.465455 25.413818-3.025454 3.956364-0.930909 7.493818-1.768727 9.914182-2.187637a405.643636 405.643636 0 0 1-28.765091-150.481454c0-218.437818 171.380364-395.543273 382.696727-395.543273 211.316364 0 382.696727 177.105455 382.696727 395.543273 0 174.359273-109.056 322.280727-260.514909 374.970181-9.774545 3.397818-20.014545-1.117091-20.014545-1.11709s-25.693091-4.980364-57.856 4.421818c-15.825455 4.654545-22.621091 22.109091-21.690182 37.422545 1.210182 18.245818 7.866182 31.325091 26.298182 34.257455 23.738182 3.816727 57.483636 8.192 70.190545-18.059637 0.698182-1.442909 1.442909-3.211636 2.234182-5.026909 2.978909-7.121455 6.656-15.872 13.032727-18.152727 117.061818-41.099636 210.711273-134.423273 255.162182-253.067636 0 0 117.946182-14.289455 121.390545-126.696728 3.490909-112.360727-105.472-132.282182-105.472-132.282181z" fill="#5A5A5A" p-id="18932"></path></svg>