<svg width="37" height="37" viewBox="0 0 37 37" fill="none" xmlns="http://www.w3.org/2000/svg">
<g clip-path="url(#clip0_565_842)">
<path d="M31.5594 17.8894H25.7086V16.3603C25.7086 15.7611 25.2233 15.2758 24.6241 15.2758H23.9734V15.2839H13.5595V15.2758H12.9088C12.3096 15.2758 11.8243 15.7611 11.8243 16.3603V17.8867H7.1583C6.86006 17.8867 6.61605 17.6427 6.61605 17.3444V9.75298C6.61605 9.45475 6.86006 9.21073 7.1583 9.21073H11.8216V10.729C11.8216 11.1222 12.0304 11.4665 12.3449 11.6563C12.5076 11.7566 12.7028 11.8135 12.9061 11.8135H24.6214C24.9033 11.8135 25.1582 11.7078 25.3507 11.5316C25.3751 11.5072 25.4022 11.4827 25.4239 11.4583C25.6001 11.2659 25.7059 11.011 25.7059 10.729V5.94912C25.7059 5.34994 25.2205 4.86462 24.6214 4.86462H23.9707V4.87276H13.5595V4.86462H12.9088C12.3096 4.86462 11.8243 5.34994 11.8243 5.94912V7.47554H5.96535C5.36617 7.47554 4.88086 7.96085 4.88086 8.56004V18.5401C4.88086 19.1393 5.36617 19.6246 5.96535 19.6246H11.8243V21.1429C11.8243 21.7421 12.3096 22.2274 12.9088 22.2274H24.6241C25.2233 22.2274 25.7086 21.7421 25.7086 21.1429V19.6273H30.3665C30.6647 19.6273 30.9087 19.8713 30.9087 20.1695V27.761C30.9087 28.0592 30.6647 28.3033 30.3665 28.3033H25.7086V26.7714C25.7086 26.1722 25.2233 25.6869 24.6241 25.6869H23.9734V25.695H13.5595V25.6869H12.9088C12.3096 25.6869 11.8243 26.1722 11.8243 26.7714V31.5513C11.8243 32.1505 12.3096 32.6358 12.9088 32.6358H24.6241C24.7922 32.6358 24.9521 32.5979 25.0931 32.5301C25.1257 32.5138 25.1555 32.4975 25.1853 32.4813C25.1989 32.4731 25.2151 32.4623 25.2287 32.4542C25.3154 32.3945 25.3941 32.324 25.4591 32.2454C25.5025 32.1912 25.5432 32.1342 25.5757 32.0719C25.592 32.042 25.6083 32.0095 25.6218 31.977C25.676 31.8468 25.7059 31.7059 25.7059 31.554V30.0412H31.5594C32.1586 30.0412 32.6439 29.5558 32.6439 28.9567V18.9766C32.6439 18.3774 32.1586 17.8894 31.5594 17.8894ZM13.5595 7.1502C13.5595 6.85196 13.8035 6.60795 14.1018 6.60795H23.4311C23.7294 6.60795 23.9734 6.85196 23.9734 7.1502V9.53608C23.9734 9.83432 23.7294 10.0783 23.4311 10.0783H14.1018C13.8035 10.0783 13.5595 9.83432 13.5595 9.53608V9.21073H13.5622V7.47554H13.5595V7.1502ZM23.9734 19.9499C23.9734 20.2482 23.7294 20.4922 23.4311 20.4922H14.1018C13.8035 20.4922 13.5595 20.2482 13.5595 19.9499V19.6246H13.5622V17.8894H13.5595V17.5641C13.5595 17.2658 13.8035 17.0218 14.1018 17.0218H23.4311C23.7294 17.0218 23.9734 17.2658 23.9734 17.5641V17.8921H23.9625V19.6273H23.9734V19.9499ZM23.9734 30.3584C23.9734 30.6566 23.7294 30.9006 23.4311 30.9006H14.1018C13.8035 30.9006 13.5595 30.6566 13.5595 30.3584V27.9725C13.5595 27.6742 13.8035 27.4302 14.1018 27.4302H23.4311C23.7294 27.4302 23.9734 27.6742 23.9734 27.9725V28.3033H23.9625V30.0384H23.9734V30.3584Z" fill="#523EFF" stroke="#523EFF"/>
</g>
<defs>
<clipPath id="clip0_565_842">
<rect width="36" height="36" fill="white" transform="translate(0.785156 0.769226)"/>
</clipPath>
</defs>
</svg>
