<?xml version="1.0" standalone="no"?><!DOCTYPE svg PUBLIC "-//W3C//DTD SVG 1.1//EN" "http://www.w3.org/Graphics/SVG/1.1/DTD/svg11.dtd"><svg t="1731576354542" class="icon" viewBox="0 0 1024 1024" version="1.1" xmlns="http://www.w3.org/2000/svg" p-id="20623" xmlns:xlink="http://www.w3.org/1999/xlink" width="200" height="200"><path d="M963.8 346.6c0-40-17.6-76-45.4-100.6l-114.8-142c-14.4-18-35.6-28.2-58-28.2H276.4c-22.4 0-43.4 10.2-58 28.2l-114.8 142c-27.8 24.6-45.4 60.6-45.4 100.6v478c0 35.6 14 68 36.6 92.2 2.6 4.6 6.4 8.4 11.4 10.8 23.4 19.6 53.6 31.6 86.4 31.6h636.6c32.8 0 63-11.8 86.4-31.6 5-2.4 9-6.2 11.4-10.8 22.6-24 36.6-56.6 36.6-92.2v-478z m-150-134.6h-38c2-3.8 3.2-8 3.2-12.6V169l34.8 43z m-518.8-12.6V135.8h432.2v63.4c0 4.6 1.2 8.8 3.2 12.6H291.6c2.2-3.6 3.4-7.8 3.4-12.4z m-52-30.4v30.2c0 4.6 1.2 8.8 3.2 12.6h-38l34.8-42.8z m-50.2 730c-15.4 0-29.6-4.6-41.4-12.6-0.4-9.4-5.8-18.2-15-22.6-2.6-1.2-5.4-2-8.2-2.2-6.4-11-10-23.6-10-37.2v-478c0-22 9.6-41.6 24.6-55.4 1.2-0.8 2.2-1.8 3.2-2.8 12.8-10.4 29-16.6 46.8-16.6H244c-0.6 2.4-1 4.8-1 7.4v80c0 14.4 11.6 26 26 26s26-11.6 26-26v-80c0-2.6-0.4-5-1-7.4h434.2c-0.6 2.4-1 4.8-1 7.4v80c0 14.4 11.6 26 26 26s26-11.6 26-26v-80c0-2.6-0.4-5-1-7.4h51.2c17.8 0 34 6.2 46.8 16.6 1 1 2 1.8 3 2.6 15.2 13.6 24.8 33.4 24.8 55.4v478c0 13.6-3.6 26.2-10 37.2-2.8 0.4-5.6 1-8.2 2.2-9.2 4.2-14.6 13.2-15 22.6-11.8 8-26.2 12.6-41.4 12.6H192.8z m24-145.4l-34 72.4c-4.4 9.4-13.8 15-23.6 15-3.6 0-7.4-0.8-11-2.4-13-6-18.6-21.6-12.6-34.6l34-72.4c6-13 21.6-18.6 34.6-12.6 13 6 18.6 21.4 12.6 34.6z m78.2-314.2v80c0 14.4-11.6 26-26 26s-26-11.6-26-26v-80c0-14.4 11.6-26 26-26s26 11.6 26 26z m-10.4 169.2l-34 72.4c-4.4 9.4-13.8 15-23.6 15-3.6 0-7.4-0.8-11-2.4-13-6-18.6-21.6-12.6-34.6l34-72.4c6-13 21.6-18.6 34.6-12.6 13 6.2 18.6 21.6 12.6 34.6z m468.4-63.2c-14.4 0-26-11.6-26-26v-80c0-14.4 11.6-26 26-26s26 11.6 26 26v80c0 14.2-11.6 26-26 26z m109.8 295.6c-9.8 0-19.2-5.6-23.6-15l-34-72.4c-6-13-0.4-28.4 12.6-34.6 13-6 28.4-0.4 34.6 12.6l34 72.4c6 13 0.4 28.4-12.6 34.6-3.6 1.6-7.4 2.4-11 2.4zM806 693.6c-3.6 1.6-7.4 2.4-11 2.4-9.8 0-19.2-5.6-23.6-15l-34-72.4c-6-13-0.4-28.4 12.6-34.6 13-6 28.4-0.4 34.6 12.6l34 72.4c6 13 0.4 28.4-12.6 34.6z m-379.2-127c0 14.4-11.6 26-26 26h-50c-14.4 0-26-11.6-26-26s11.6-26 26-26h50c14.4 0 26 11.6 26 26z m152.8 0c0 14.4-11.6 26-26 26h-76.4c-14.4 0-26-11.6-26-26s11.6-26 26-26h76.4c14.2 0 26 11.6 26 26z m126.2 0c0 14.4-11.6 26-26 26h-50c-14.4 0-26-11.6-26-26s11.6-26 26-26h50c14.4 0 26 11.6 26 26z" p-id="20624"></path></svg>