<?xml version="1.0" standalone="no"?><!DOCTYPE svg PUBLIC "-//W3C//DTD SVG 1.1//EN" "http://www.w3.org/Graphics/SVG/1.1/DTD/svg11.dtd"><svg t="1732867504282" class="icon" viewBox="0 0 1024 1024" version="1.1" xmlns="http://www.w3.org/2000/svg" p-id="17429" xmlns:xlink="http://www.w3.org/1999/xlink" width="200" height="200"><path d="M442.254222 309.930667C256.682667 309.930667 56.888889 270.336 56.888889 183.409778 56.888889 96.483556 256.682667 56.888889 442.254222 56.888889c185.628444 0 385.365333 39.594667 385.365334 126.520889 0 86.926222-199.68 126.520889-385.365334 126.520889z m0-199.68c-93.468444 0-181.020444 10.012444-246.499555 28.216889-70.314667 19.626667-85.504 40.789333-85.504 44.942222 0 4.209778 15.189333 25.372444 85.504 44.942222 65.536 18.204444 153.031111 28.273778 246.499555 28.273778 93.468444 0 181.020444-10.069333 246.499556-28.273778 70.314667-19.569778 85.560889-40.732444 85.560889-44.942222 0-4.152889-15.246222-25.315556-85.560889-44.942222-65.422222-18.204444-153.031111-28.273778-246.499556-28.273778z" p-id="17430"></path><path d="M442.254222 499.598222C256.682667 499.598222 56.888889 460.003556 56.888889 373.077333V189.212444a26.737778 26.737778 0 0 1 53.361778 0v183.921778c0 4.152889 15.189333 25.315556 85.504 44.942222 65.536 18.204444 153.031111 28.216889 246.499555 28.216889 93.468444 0 181.020444-10.012444 246.499556-28.273777 70.314667-19.569778 85.560889-40.732444 85.560889-44.942223V189.269333a26.737778 26.737778 0 0 1 53.304889 0v183.921778c0.056889 86.869333-199.68 126.464-385.365334 126.464z" p-id="17431"></path><path d="M442.254222 692.110222C256.682667 692.110222 56.888889 652.458667 56.888889 565.475556V381.724444a26.737778 26.737778 0 0 1 53.361778 0V565.475556c0 4.209778 15.189333 25.372444 85.504 44.942222 65.536 18.204444 153.031111 28.273778 246.499555 28.273778a26.737778 26.737778 0 0 1 0 53.361777z" p-id="17432"></path><path d="M442.254222 880.014222C256.682667 880.014222 56.888889 840.419556 56.888889 753.493333v-183.921777a26.737778 26.737778 0 0 1 53.361778 0v183.864888c0 4.209778 15.189333 25.372444 85.504 44.942223 65.536 18.204444 153.031111 28.273778 246.499555 28.273777a26.737778 26.737778 0 0 1 0 53.361778zM635.904 353.28a26.510222 26.510222 0 1 0 53.020444 0 26.510222 26.510222 0 0 0-53.020444 0zM800.995556 550.172444a26.737778 26.737778 0 0 1-26.624-26.680888V306.460444a26.737778 26.737778 0 0 1 53.304888 0v217.031112c0 14.791111-11.946667 26.737778-26.624 26.737777zM948.110222 580.835556a26.851556 26.851556 0 0 0-37.546666 1.080888l-104.903112 114.631112-98.531555-102.855112a25.941333 25.941333 0 0 0-38.570667 0l-121.173333 123.221334a26.510222 26.510222 0 0 0 37.546667 37.489778l100.693333-103.936 98.531555 102.855111a26.851556 26.851556 0 0 0 19.342223 8.533333 26.794667 26.794667 0 0 0 19.228444-8.533333l124.302222-134.997334a25.031111 25.031111 0 0 0 1.080889-37.489777zM568.604444 858.168889a40.846222 40.846222 0 0 0-10.979555 1.365333 31.971556 31.971556 0 0 0-9.216 4.096 20.252444 20.252444 0 0 0-6.200889 6.144 13.312 13.312 0 0 0-2.048 7.224889v76.117333c0 5.006222 2.958222 9.784889 8.305778 13.312a36.977778 36.977778 0 0 0 20.138666 5.518223 36.977778 36.977778 0 0 0 20.081778-5.518223c5.347556-3.527111 8.305778-8.305778 8.305778-13.312v-76.117333a13.312 13.312 0 0 0-2.048-7.224889 20.252444 20.252444 0 0 0-6.144-6.144 31.857778 31.857778 0 0 0-9.272889-4.039111 40.846222 40.846222 0 0 0-10.922667-1.422222zM796.16 801.28a31.687111 31.687111 0 0 0-10.979556 1.820444 28.672 28.672 0 0 0-9.216 5.404445 24.746667 24.746667 0 0 0-6.200888 8.135111 22.016 22.016 0 0 0-2.048 9.614222v120.775111c0 6.599111 2.958222 12.913778 8.305777 17.635556 5.347556 4.664889 12.515556 7.281778 20.138667 7.281778 7.509333 0 14.791111-2.616889 20.081778-7.281778a23.495111 23.495111 0 0 0 8.305778-17.635556v-120.775111a22.016 22.016 0 0 0-2.048-9.614222 24.689778 24.689778 0 0 0-6.144-8.135111 28.558222 28.558222 0 0 0-9.272889-5.404445 31.630222 31.630222 0 0 0-10.922667-1.820444z" p-id="17433"></path><path d="M682.382222 744.391111a33.905778 33.905778 0 0 0-10.979555 1.706667 29.411556 29.411556 0 0 0-9.216 5.006222 23.153778 23.153778 0 0 0-6.200889 7.566222 19.171556 19.171556 0 0 0-2.048 8.874667v181.304889c0 6.144 2.958222 11.946667 8.305778 16.327111 5.347556 4.323556 12.515556 6.826667 20.138666 6.826667 7.509333 0 14.791111-2.503111 20.081778-6.826667a21.162667 21.162667 0 0 0 8.305778-16.327111v-181.304889a21.617778 21.617778 0 0 0-8.419556-16.270222 32.426667 32.426667 0 0 0-19.968-6.826667zM909.937778 801.28a39.139556 39.139556 0 0 0-10.979556 1.479111 31.175111 31.175111 0 0 0-9.216 4.266667 20.821333 20.821333 0 0 0-6.200889 6.428444 14.449778 14.449778 0 0 0-2.048 7.566222v131.185778c0 5.233778 2.958222 10.24 8.305778 13.937778 5.347556 3.754667 12.515556 5.802667 20.138667 5.802667 7.509333 0 14.791111-2.048 20.081778-5.802667 5.347556-3.697778 8.305778-8.704 8.305777-13.937778v-131.185778a14.449778 14.449778 0 0 0-2.048-7.566222 20.821333 20.821333 0 0 0-6.144-6.428444 31.061333 31.061333 0 0 0-9.272889-4.266667 39.082667 39.082667 0 0 0-10.979555-1.479111z"  p-id="17434"></path></svg>