<?xml version="1.0" standalone="no"?><!DOCTYPE svg PUBLIC "-//W3C//DTD SVG 1.1//EN" "http://www.w3.org/Graphics/SVG/1.1/DTD/svg11.dtd"><svg t="1731576541333" class="icon" viewBox="0 0 1024 1024" version="1.1" xmlns="http://www.w3.org/2000/svg" p-id="23416" xmlns:xlink="http://www.w3.org/1999/xlink" width="200" height="200"><path d="M88.259048 571.001905c0-152.624762 82.895238-293.546667 215.527619-368.152381 2.438095 20.967619 7.801905 41.447619 16.579047 60.464762-102.887619 63.390476-166.765714 173.592381-171.154285 294.521904-20.967619 2.438095-41.447619 7.801905-60.952381 16.091429v-2.925714zM934.278095 573.927619c-19.504762-8.289524-39.984762-14.140952-60.952381-16.091429-4.87619-120.929524-68.754286-231.131429-171.641904-294.521904 8.777143-19.504762 14.140952-39.497143 16.579047-60.464762 133.12 74.605714 215.527619 216.015238 215.527619 368.152381v2.925714zM511.024762 993.28c-76.068571 0-151.161905-20.48-216.502857-59.977143 17.066667-12.678095 32.182857-27.306667 44.860952-44.373333 52.662857 28.281905 111.664762 43.398095 171.641905 43.398095 59.977143 0 119.466667-15.11619 172.129524-43.398095 12.678095 17.066667 27.794286 31.695238 44.860952 44.373333-65.828571 39.497143-140.921905 59.977143-216.990476 59.977143z" p-id="23417"></path><path d="M940.129524 647.070476c-60.464762-45.348571-145.798095-38.034286-197.485714 17.554286l-89.721905-51.2c12.190476-39.984762 6.339048-83.382857-15.116191-119.466667-21.942857-35.59619-57.539048-60.464762-98.986666-68.266666V323.779048c74.605714-14.140952 126.293333-81.92 120.441904-157.500953-6.339048-75.580952-68.266667-134.095238-143.847619-136.045714-76.55619-1.462857-141.409524 54.613333-150.674285 129.706667-9.752381 75.093333 39.497143 145.310476 113.127619 162.377142v104.350477c-39.497143 9.264762-73.630476 34.620952-94.110477 69.729523-20.48 35.108571-25.35619 77.04381-14.140952 116.053334l-89.721905 51.2c-46.32381-48.761905-119.954286-60.464762-178.95619-27.794286C41.935238 668.525714 12.190476 736.792381 29.257143 802.133333c16.579048 65.340952 75.580952 111.177143 142.872381 111.177143 47.786667 0 93.135238-23.405714 120.929524-62.415238 27.794286-39.009524 34.620952-89.234286 18.529523-134.582857l86.796191-49.737143c27.794286 32.670476 68.266667 51.687619 111.177143 52.175238 42.910476 0.487619 83.870476-17.554286 112.152381-49.737143l88.259047 50.712381c-23.893333 72.167619 10.727619 150.186667 79.969524 181.394286 69.241905 31.207619 150.674286 5.36381 189.196191-59.489524 38.521905-65.340952 21.455238-149.211429-39.009524-194.56zM172.129524 840.167619c-41.447619 0-75.093333-33.645714-75.093334-75.093333s33.645714-75.093333 75.093334-75.093334 75.093333 33.645714 75.093333 75.093334c-0.487619 41.447619-34.133333 75.093333-75.093333 75.093333zM435.931429 178.468571c0-41.447619 33.645714-75.093333 75.093333-75.093333s75.093333 33.645714 75.093333 75.093333S552.472381 253.561905 511.024762 253.561905c-41.447619-0.487619-74.605714-34.133333-75.093333-75.093334z m75.093333 467.139048c-41.447619 0-75.093333-33.645714-75.093333-75.093333s33.645714-75.093333 75.093333-75.093334 75.093333 33.645714 75.093333 75.093334-33.645714 75.093333-75.093333 75.093333z m339.870476 194.56c-41.447619 0-75.093333-33.645714-75.093333-75.093333s33.645714-74.605714 74.605714-74.605715c41.447619 0 75.093333 33.645714 75.093333 75.093334 0 40.96-33.645714 74.605714-74.605714 74.605714z" p-id="23418"></path></svg>