<svg width="16" height="16" viewBox="0 0 16 16" fill="none" xmlns="http://www.w3.org/2000/svg">
<g clip-path="url(#clip0_1172_52491)">
<path d="M1.20625 8.00078C1.20625 8.89295 1.38197 9.77638 1.72339 10.6006C2.06481 11.4249 2.56523 12.1738 3.19609 12.8047C3.82695 13.4355 4.57589 13.936 5.40014 14.2774C6.2244 14.6188 7.10783 14.7945 8 14.7945C8.89217 14.7945 9.7756 14.6188 10.5999 14.2774C11.4241 13.936 12.173 13.4355 12.8039 12.8047C13.4348 12.1738 13.9352 11.4249 14.2766 10.6006C14.618 9.77638 14.7937 8.89295 14.7937 8.00078C14.7937 6.19897 14.078 4.47095 12.8039 3.19687C11.5298 1.9228 9.80181 1.20703 8 1.20703C6.19818 1.20703 4.47017 1.9228 3.19609 3.19687C1.92202 4.47095 1.20625 6.19897 1.20625 8.00078Z" fill="#FF5A5A"/>
<rect x="6" y="5" width="1" height="6" rx="0.5" fill="white"/>
<rect x="9" y="5" width="1" height="6" rx="0.5" fill="white"/>
</g>
<defs>
<clipPath id="clip0_1172_52491">
<rect width="16" height="16" fill="white"/>
</clipPath>
</defs>
</svg>
