<?xml version="1.0" standalone="no"?><!DOCTYPE svg PUBLIC "-//W3C//DTD SVG 1.1//EN" "http://www.w3.org/Graphics/SVG/1.1/DTD/svg11.dtd"><svg t="1733715214937" class="icon" viewBox="0 0 1024 1024" version="1.1" xmlns="http://www.w3.org/2000/svg" p-id="16108" xmlns:xlink="http://www.w3.org/1999/xlink" width="200" height="200"><path d="M153.6 124.5696C153.6 84.0704 186.4704 51.2 226.9696 51.2h426.7008a30.72 30.72 0 0 1 30.72 30.72v182.6304h182.5792a30.72 30.72 0 0 1 30.72 30.72v597.2992c0 40.5504-32.8192 73.4208-73.3696 73.4208H226.9696A73.3696 73.3696 0 0 1 153.6 892.5696v-768zM226.9696 112.64a11.9296 11.9296 0 0 0-11.9296 11.9296v768c0 6.656 5.3248 11.9808 11.9296 11.9808H824.32a11.9296 11.9296 0 0 0 11.9296-11.9808V325.9904h-182.5792a30.72 30.72 0 0 1-30.72-30.72V112.64H226.9696z" fill="#5A5A5A" p-id="16109"></path><path d="M845.312 316.928l-213.4016-213.2992 43.4688-43.4176 213.3504 213.2992-43.4688 43.4688zM409.6 497.92c0-66.5088 48.64-126.72 116.0704-126.72 67.3792 0 116.0192 60.2112 116.0192 126.72 0 55.8592-34.304 107.3152-85.2992 122.368v37.632h-61.44V593.92a30.72 30.72 0 0 1 30.72-30.72c26.8288 0 54.5792-25.7024 54.5792-65.28 0-39.5776-27.7504-65.28-54.5792-65.28-26.88 0-54.6304 25.7024-54.6304 65.28H409.6zM525.6704 828.5696a53.3504 53.3504 0 1 0 0-106.6496 53.3504 53.3504 0 0 0 0 106.6496z" fill="#5A5A5A" p-id="16110"></path></svg>