<svg width="16" height="16" viewBox="0 0 16 16" fill="none" xmlns="http://www.w3.org/2000/svg">
<g clip-path="url(#clip0_1172_52484)">
<path fill-rule="evenodd" clip-rule="evenodd" d="M1.72338 10.6006C1.38196 9.77638 1.20624 8.89295 1.20624 8.00078C1.20624 6.19897 1.92201 4.47095 3.19608 3.19687C4.47016 1.9228 6.19817 1.20703 7.99999 1.20703C9.8018 1.20703 11.5298 1.9228 12.8039 3.19687C14.078 4.47095 14.7937 6.19897 14.7937 8.00078C14.7937 8.89295 14.618 9.77638 14.2766 10.6006C13.9352 11.4249 13.4348 12.1738 12.8039 12.8047C12.173 13.4355 11.4241 13.936 10.5998 14.2774C9.77559 14.6188 8.89216 14.7945 7.99999 14.7945C7.10782 14.7945 6.22439 14.6188 5.40013 14.2774C4.57588 13.936 3.82694 13.4355 3.19608 12.8047C2.56522 12.1738 2.0648 11.4249 1.72338 10.6006ZM9.54063 11.6707C8.59532 12.0535 7.54063 12.0535 6.59532 11.6707C6.24844 11.5285 5.65313 11.1207 5.65313 11.1207L6.29532 10.4176C7.45782 11.2848 9.11407 11.1926 10.1688 10.1379C10.8438 9.46289 11.1531 8.50508 11 7.56445L10.6078 7.95664C10.45 8.11445 10.1938 8.11445 10.0359 7.95664C9.87813 7.79883 9.87813 7.54258 10.0359 7.38477L11.1609 6.25977C11.3188 6.10195 11.575 6.10195 11.7328 6.25977L12.8578 7.38477C12.9625 7.48633 13.0047 7.63789 12.9672 7.77852C12.9297 7.9207 12.8188 8.03008 12.6781 8.06758C12.5359 8.10508 12.3859 8.06289 12.2844 7.9582L11.9531 7.62695C12 8.06758 11.9797 8.51445 11.8766 8.95039C11.5906 10.1629 10.6953 11.202 9.54063 11.6707ZM6.45938 4.33008C7.40469 3.94727 8.45938 3.94727 9.40469 4.33008C9.75157 4.47227 10.3469 4.88008 10.3469 4.88008L9.70469 5.5832C8.54219 4.71602 6.88594 4.8082 5.83125 5.86289C5.15625 6.53789 4.84688 7.4957 5 8.43633L5.39219 8.04414C5.55 7.88633 5.80625 7.88633 5.96407 8.04414C6.12188 8.20195 6.12188 8.4582 5.96407 8.61602L4.83907 9.74102C4.68125 9.89883 4.425 9.89883 4.26719 9.74102L3.14219 8.61602C3.0375 8.51445 2.99532 8.36289 3.03282 8.22227C3.07032 8.08008 3.18125 7.9707 3.32188 7.9332C3.46407 7.8957 3.61407 7.93789 3.71563 8.04258L4.04688 8.37383C4 7.9332 4.02032 7.48633 4.12344 7.05039C4.40938 5.83789 5.30469 4.79883 6.45938 4.33008Z" fill="#AFAFAF"/>
</g>
<defs>
<clipPath id="clip0_1172_52484">
<rect width="16" height="16" fill="white"/>
</clipPath>
</defs>
</svg>
