<?xml version="1.0" standalone="no"?><!DOCTYPE svg PUBLIC "-//W3C//DTD SVG 1.1//EN" "http://www.w3.org/Graphics/SVG/1.1/DTD/svg11.dtd"><svg t="1731565584954" class="icon" viewBox="0 0 1024 1024" version="1.1" xmlns="http://www.w3.org/2000/svg" p-id="7873" xmlns:xlink="http://www.w3.org/1999/xlink" width="200" height="200"><path d="M280.746667 536.533333c2.709333 65.493333 16.917333 123.434667 36.949333 173.845334-2.24 1.109333-4.352 2.453333-6.570667 3.626666-5.610667 2.986667-11.072 6.186667-16.576 9.429334-6.741333 3.925333-13.44 7.893333-19.968 12.224-5.397333 3.541333-10.666667 7.317333-15.893333 11.093333-6.314667 4.586667-12.565333 9.237333-18.666667 14.165333-5.098667 4.117333-10.069333 8.405333-15.04 12.778667-3.114667 2.752-6.421333 5.226667-9.493333 8.085333-60.458667-68.373333-95.018667-154.24-99.541333-245.248h164.8z m-65.258667-285.653333c3.072 2.837333 6.4 5.290667 9.493333 8.064 4.970667 4.352 9.941333 8.64 15.04 12.757333 6.101333 4.949333 12.352 9.6 18.645334 14.144 5.269333 3.818667 10.538667 7.594667 15.914666 11.136 6.549333 4.309333 13.226667 8.298667 19.946667 12.224 5.504 3.2 10.986667 6.464 16.64 9.429334 1.706667 0.896 3.349333 2.005333 5.077333 2.901333a520.618667 520.618667 0 0 0-35.626666 174.570667h-164.693334c4.544-91.029333 39.104-176.874667 99.562667-245.248z m238.08-130.602667c-36.309333 34.133333-84.544 88.768-120.96 163.861334-0.789333-0.426667-1.642667-0.768-2.453333-1.194667-5.077333-2.666667-10.005333-5.568-14.954667-8.448-6.186667-3.605333-12.288-7.253333-18.261333-11.2a394.901333 394.901333 0 0 1-14.250667-9.92c-5.824-4.202667-11.584-8.512-17.173333-13.013333-4.544-3.648-8.96-7.466667-13.376-11.306667-2.730667-2.410667-5.333333-4.970667-8.021334-7.466667a397.013333 397.013333 0 0 1 209.450667-101.333333z m42.538667 16.490667v191.082667c-6.357333-0.341333-12.778667-0.362667-19.050667-0.96-4.352-0.426667-8.618667-1.258667-12.928-1.813334-8.533333-1.109333-17.109333-2.197333-25.514667-3.818666-5.077333-1.002667-10.026667-2.410667-15.082666-3.605334-7.488-1.749333-14.997333-3.477333-22.336-5.653333-5.269333-1.557333-10.389333-3.498667-15.573334-5.290667-5.184-1.792-10.346667-3.626667-15.466666-5.610666 39.146667-79.637333 92.501333-134.869333 125.952-164.330667z m0 359.338667H321.066667c2.133333-59.157333 14.613333-111.786667 32.597333-157.653334 6.08 2.410667 12.373333 4.245333 18.56 6.357334 5.738667 1.984 11.370667 4.117333 17.173333 5.866666 8.128 2.432 16.426667 4.330667 24.704 6.250667 5.525333 1.322667 10.944 2.858667 16.533334 3.968 9.322667 1.813333 18.794667 2.986667 28.245333 4.224 4.736 0.597333 9.386667 1.536 14.144 2.005333 7.616 0.725333 15.36 0.853333 23.082667 1.173334v127.808z m0 168.234666c-7.722667 0.32-15.466667 0.448-23.082667 1.173334-4.757333 0.469333-9.429333 1.408-14.165333 2.005333-9.450667 1.237333-18.901333 2.410667-28.202667 4.224-5.610667 1.066667-11.050667 2.645333-16.576 3.968-8.298667 1.92-16.554667 3.84-24.682667 6.229333-5.802667 1.749333-11.434667 3.882667-17.152 5.866667-5.674667 1.941333-11.477333 3.584-17.066666 5.781333a482.602667 482.602667 0 0 1-33.984-157.056h174.912v127.786667z m0 230.72c-33.066667-29.952-85.333333-85.376-124.266667-164.138666 4.501333-1.749333 9.088-3.413333 13.696-4.970667 5.226667-1.792 10.368-3.754667 15.68-5.333333 7.296-2.176 14.805333-3.882667 22.250667-5.653334 5.056-1.173333 10.026667-2.602667 15.146666-3.584 8.405333-1.642667 16.96-2.709333 25.493334-3.84 4.330667-0.512 8.597333-1.365333 12.949333-1.792 6.272-0.597333 12.693333-0.64 19.050667-0.938666v190.250666z m-251.989334-84.053333c2.666667-2.453333 5.290667-5.013333 8-7.424a385.365333 385.365333 0 0 1 30.506667-24.298667c4.736-3.413333 9.472-6.805333 14.357333-9.984 5.930667-3.904 11.989333-7.530667 18.112-11.093333 4.992-2.922667 9.984-5.866667 15.082667-8.533333 1.344-0.704 2.688-1.28 4.010667-1.92 36.736 75.264 84.906667 130.474667 120.789333 164.8a396.906667 396.906667 0 0 1-210.858667-101.546667z m292.416-106.197333c6.357333 0.32 12.736 0.341333 19.050667 0.938666 4.352 0.426667 8.597333 1.28 12.928 1.813334 8.533333 1.109333 17.109333 2.176 25.514667 3.818666 5.12 0.981333 10.069333 2.410667 15.146666 3.584 7.445333 1.770667 14.933333 3.477333 22.272 5.674667 5.290667 1.557333 10.453333 3.52 15.658667 5.312 4.608 1.578667 9.173333 3.221333 13.717333 4.970667-38.954667 78.762667-91.221333 134.186667-124.288 164.138666v-190.250666z m0-168.277334h174.912a482.602667 482.602667 0 0 1-34.005333 157.056c-5.589333-2.197333-11.370667-3.84-17.066667-5.781333-5.696-1.984-11.328-4.117333-17.152-5.866667-8.106667-2.410667-16.384-4.309333-24.64-6.229333-5.546667-1.322667-11.008-2.88-16.597333-3.968-9.322667-1.813333-18.773333-2.986667-28.224-4.224-4.714667-0.597333-9.365333-1.536-14.144-2.005333-7.637333-0.725333-15.36-0.853333-23.082667-1.173334V536.533333z m0-168.234666c7.701333-0.32 15.445333-0.448 23.082667-1.173334 4.757333-0.469333 9.386667-1.408 14.122667-2.005333 9.472-1.237333 18.922667-2.410667 28.266666-4.224 5.568-1.109333 11.008-2.645333 16.533334-3.968 8.277333-1.92 16.576-3.84 24.682666-6.250667 5.824-1.749333 11.456-3.882667 17.194667-5.866666 6.186667-2.133333 12.458667-3.946667 18.56-6.357334a476.458667 476.458667 0 0 1 32.597333 157.653334H536.533333v-127.786667z m0-231.530667c33.450667 29.44 86.784 84.693333 125.930667 164.330667-5.098667 1.984-10.261333 3.84-15.445333 5.610666-5.184 1.792-10.304 3.733333-15.573334 5.290667-7.36 2.176-14.848 3.904-22.314666 5.653333-5.056 1.194667-10.005333 2.602667-15.104 3.626667-8.405333 1.6-16.981333 2.688-25.514667 3.797333-4.330667 0.554667-8.576 1.386667-12.928 1.813334-6.314667 0.597333-12.693333 0.64-19.050667 0.96V136.746667z m251.989334 84.821333c-2.688 2.496-5.312 5.056-8.042667 7.466667a383.381333 383.381333 0 0 1-30.506667 24.32c-4.714667 3.392-9.429333 6.762667-14.250666 9.92a413.013333 413.013333 0 0 1-18.282667 11.2c-4.949333 2.88-9.898667 5.781333-14.933333 8.448-0.832 0.426667-1.664 0.789333-2.474667 1.194667-36.416-75.093333-84.672-129.749333-120.96-163.861334a397.141333 397.141333 0 0 1 209.450667 101.312z m19.114666 37.354667c3.136-2.773333 6.464-5.226667 9.514667-8.085333 60.458667 68.373333 95.018667 154.218667 99.562667 245.248h-164.693334c-2.133333-65.941333-15.850667-124.16-35.626666-174.570667 1.728-0.896 3.349333-2.005333 5.12-2.901333 5.610667-2.986667 11.093333-6.208 16.576-9.429334 6.741333-3.925333 13.418667-7.893333 19.946666-12.224 5.397333-3.541333 10.666667-7.317333 15.936-11.136 6.314667-4.565333 12.522667-9.194667 18.624-14.144 5.12-4.117333 10.090667-8.405333 15.04-12.757333z m9.514667 522.837333c-3.050667-2.858667-6.4-5.333333-9.514667-8.106666a455.936 455.936 0 0 0-15.04-12.757334c-6.101333-4.906667-12.330667-9.6-18.624-14.144-5.269333-3.797333-10.517333-7.573333-15.936-11.114666-6.528-4.309333-13.226667-8.298667-19.968-12.224-5.482667-3.242667-10.944-6.464-16.576-9.450667-2.197333-1.152-4.330667-2.496-6.528-3.626667a527.530667 527.530667 0 0 0 36.906667-173.824h164.842667c-4.544 91.029333-39.104 176.874667-99.562667 245.248z m-239.488 130.773334c35.882667-34.346667 84.053333-89.536 120.789333-164.8 1.322667 0.64 2.688 1.216 3.989334 1.92 5.12 2.666667 10.112 5.610667 15.104 8.533333 6.122667 3.562667 12.16 7.189333 18.133333 11.093333 4.842667 3.2 9.6 6.570667 14.314667 9.984a376.448 376.448 0 0 1 30.506666 24.32c2.730667 2.389333 5.333333 4.949333 8.021334 7.424a397.056 397.056 0 0 1-210.858667 101.546667z m-61.376 45.44h0.042667c119.893333 0 232.106667-47.296 315.989333-133.184a439.253333 439.253333 0 0 0 125.696-308.501334A439.296 439.296 0 0 0 832.32 207.786667c-83.904-85.888-196.117333-133.205333-316.010667-133.205334-119.893333 0-232.106667 47.317333-315.968 133.205334A439.210667 439.210667 0 0 0 74.602667 516.266667c0 115.946667 44.650667 225.493333 125.738666 308.522666 83.861333 85.888 196.053333 133.205333 315.946667 133.205334z" fill="#000000" p-id="7874"></path></svg>