<svg width="20" height="20" viewBox="0 0 20 20" fill="none" xmlns="http://www.w3.org/2000/svg">
<g clip-path="url(#clip0_938_1050)">
<path d="M17.6716 10.035H14.2347V9.20912C14.2347 8.88548 13.9496 8.62335 13.5977 8.62335H13.2154V8.62775H7.09806V8.62335H6.71583C6.36385 8.62335 6.07877 8.88548 6.07877 9.20912V10.0336H3.33782C3.16263 10.0336 3.01929 9.90179 3.01929 9.7407V5.64034C3.01929 5.47925 3.16263 5.34746 3.33782 5.34746H6.07718V6.16753C6.07718 6.37987 6.19981 6.56585 6.38456 6.66836C6.48012 6.72254 6.59479 6.75329 6.71424 6.75329H13.5961C13.7617 6.75329 13.9114 6.69618 14.0245 6.601C14.0388 6.58782 14.0547 6.57464 14.0675 6.56146C14.171 6.45748 14.2331 6.31983 14.2331 6.16753V3.58577C14.2331 3.26213 13.948 3 13.5961 3H13.2138V3.00439H7.09806V3H6.71583C6.36385 3 6.07877 3.26213 6.07877 3.58577V4.41023H2.63706C2.28508 4.41023 2 4.67236 2 4.996V10.3865C2 10.7101 2.28508 10.9723 2.63706 10.9723H6.07877V11.7923C6.07877 12.116 6.36385 12.3781 6.71583 12.3781H13.5977C13.9496 12.3781 14.2347 12.116 14.2347 11.7923V10.9737H16.9709C17.1461 10.9737 17.2894 11.1055 17.2894 11.2666V15.367C17.2894 15.5281 17.1461 15.6599 16.9709 15.6599H14.2347V14.8325C14.2347 14.5088 13.9496 14.2467 13.5977 14.2467H13.2154V14.2511H7.09806V14.2467H6.71583C6.36385 14.2467 6.07877 14.5088 6.07877 14.8325V17.4142C6.07877 17.7379 6.36385 18 6.71583 18H13.5977C13.6964 18 13.7904 17.9795 13.8732 17.9429C13.8923 17.9341 13.9098 17.9253 13.9273 17.9165C13.9353 17.9121 13.9449 17.9063 13.9528 17.9019C14.0038 17.8697 14.05 17.8316 14.0882 17.7891C14.1137 17.7598 14.1376 17.7291 14.1567 17.6954C14.1662 17.6793 14.1758 17.6617 14.1838 17.6441C14.2156 17.5739 14.2331 17.4977 14.2331 17.4157V16.5986H17.6716C18.0236 16.5986 18.3087 16.3364 18.3087 16.0128V10.6223C18.3087 10.2986 18.0236 10.035 17.6716 10.035ZM7.09806 4.2345C7.09806 4.07342 7.2414 3.94162 7.41659 3.94162H12.8969C13.0721 3.94162 13.2154 4.07342 13.2154 4.2345V5.52319C13.2154 5.68427 13.0721 5.81607 12.8969 5.81607H7.41659C7.2414 5.81607 7.09806 5.68427 7.09806 5.52319V5.34746H7.09966V4.41023H7.09806V4.2345ZM13.2154 11.148C13.2154 11.3091 13.0721 11.4409 12.8969 11.4409H7.41659C7.2414 11.4409 7.09806 11.3091 7.09806 11.148V10.9723H7.09966V10.035H7.09806V9.85932C7.09806 9.69823 7.2414 9.56644 7.41659 9.56644H12.8969C13.0721 9.56644 13.2154 9.69823 13.2154 9.85932V10.0365H13.2091V10.9737H13.2154V11.148ZM13.2154 16.7699C13.2154 16.931 13.0721 17.0628 12.8969 17.0628H7.41659C7.2414 17.0628 7.09806 16.931 7.09806 16.7699V15.4812C7.09806 15.3201 7.2414 15.1883 7.41659 15.1883H12.8969C13.0721 15.1883 13.2154 15.3201 13.2154 15.4812V15.6599H13.2091V16.5971H13.2154V16.7699Z" fill="#523EFF" stroke="#523EFF" stroke-width="0.3"/>
</g>
<defs>
<clipPath id="clip0_938_1050">
<rect width="20" height="20" fill="white"/>
</clipPath>
</defs>
</svg>
