<svg width="18" height="18" viewBox="0 0 18 18" fill="none" xmlns="http://www.w3.org/2000/svg">
<g clip-path="url(#clip0_513_115487)">
<path d="M2.80838 2.29615H8.90588L9.02812 2.3044C9.79537 2.37415 10.7632 2.7634 11.3074 4.15165L11.3505 4.2664L11.4304 4.50003H15.1916C15.4254 4.4984 15.6512 4.58523 15.8237 4.74311C15.9962 4.90098 16.1026 5.11823 16.1216 5.35128L16.125 5.42478V14.7788C16.1228 15.0142 16.0317 15.2402 15.8699 15.4113C15.7082 15.5824 15.4877 15.6862 15.2527 15.7017L15.1916 15.7035H2.80838C2.31338 15.7035 1.90837 15.3184 1.87687 14.8392L1.875 14.7795V3.22053C1.87661 2.98483 1.96751 2.75852 2.12937 2.58719C2.29124 2.41586 2.51203 2.31226 2.74725 2.29728L2.80838 2.29578V2.29615ZM13.8371 5.68465H3.195V13.3684C3.195 13.419 3.195 13.4674 3.19575 13.5135L3.1995 13.6463L3.2025 13.7078L3.21075 13.8229C3.25688 14.3325 3.41887 14.4799 3.88687 14.5204L3.99188 14.5275L4.04813 14.5298L4.23188 14.5339L4.36763 14.5347H13.755L13.935 14.5313L14.0441 14.5264L14.1458 14.5182C14.5849 14.472 14.784 14.2943 14.7971 13.6144L14.7979 13.5372V6.85053L14.8009 6.53628V6.44178L14.7982 6.3499C14.7791 5.93365 14.6482 5.70115 13.9181 5.6854L13.8375 5.68465H13.8371ZM5.48663 11.2564V12.4305H4.31212V11.2564H5.48663ZM13.2934 11.4814C13.4925 11.4833 13.6534 11.6438 13.6552 11.8429C13.6552 12.0297 13.5165 12.1815 13.3357 12.2025L13.2934 12.2048H7.67438C7.6268 12.205 7.57965 12.1958 7.53566 12.1776C7.49166 12.1595 7.45169 12.1329 7.41805 12.0992C7.38441 12.0656 7.35776 12.0256 7.33964 11.9816C7.32153 11.9376 7.3123 11.8905 7.3125 11.8429C7.3123 11.7551 7.3441 11.6702 7.40194 11.6042C7.45978 11.5381 7.5397 11.4954 7.62675 11.484L7.67438 11.481H13.2934V11.4814ZM5.48663 8.19153V9.36565H4.31212V8.19153H5.48663ZM13.2934 8.4484C13.4925 8.45065 13.6534 8.61153 13.6552 8.81065C13.6552 8.99703 13.5165 9.14928 13.3357 9.1699L13.2934 9.17253H7.67438C7.6268 9.17273 7.57965 9.1635 7.53566 9.14539C7.49166 9.12727 7.45169 9.10062 7.41805 9.06698C7.38441 9.03334 7.35776 8.99336 7.33964 8.94937C7.32153 8.90538 7.3123 8.85823 7.3125 8.81065C7.3123 8.72286 7.3441 8.638 7.40194 8.57194C7.45978 8.50589 7.5397 8.46317 7.62675 8.45178L7.67438 8.4484H13.2934ZM7.6065 3.37878H4.2585L3.80962 3.37503L3.70838 3.37653C3.32475 3.38628 3.204 3.45528 3.19462 3.80965V4.50003H9.81563L9.61912 4.07853L9.5985 4.04628L9.55613 3.98253C9.3375 3.67315 9.01988 3.45978 8.178 3.39753L8.0025 3.38703C7.90543 3.38255 7.80829 3.3798 7.71113 3.37878L7.60613 3.3784L7.6065 3.37878Z" fill="#447DFB"/>
</g>
<defs>
<clipPath id="clip0_513_115487">
<rect width="18" height="18" fill="white"/>
</clipPath>
</defs>
</svg>
