<svg width="37" height="37" viewBox="0 0 37 37" fill="none" xmlns="http://www.w3.org/2000/svg">
<g clip-path="url(#clip0_513_115493)">
<path d="M22.9998 28.0997L22.8998 27.9997C22.4498 27.5497 21.7498 27.3997 21.1498 27.5497C20.4998 27.7497 19.8498 27.8497 19.1998 27.8497C18.4998 27.8497 17.7998 27.7497 17.1498 27.5497C16.4498 27.3497 15.7498 27.6497 15.3498 28.2497C15.0998 28.6497 15.0498 29.1497 15.2498 29.5997C15.4498 30.0497 15.7998 30.3997 16.2498 30.4997C17.1998 30.7997 18.1998 30.9497 19.1998 30.9497C20.2498 30.9497 21.2498 30.7997 22.2498 30.4997C22.6998 30.3497 23.0498 29.9997 23.2498 29.5997C23.3998 29.1497 23.3998 28.6497 23.1498 28.2497L22.9998 28.0997ZM24.5498 15.2497C25.0498 15.7497 25.4998 16.2997 25.8498 16.9497C26.1998 17.5497 26.4498 18.1997 26.5998 18.8997C26.7498 19.5997 27.3498 20.0997 28.0498 20.1497H28.0998C28.5498 20.1497 28.9998 19.9497 29.2998 19.5997C29.5998 19.2497 29.7498 18.7497 29.6498 18.2997C29.4498 17.2997 29.0998 16.3497 28.5998 15.4997C28.0998 14.5997 27.4998 13.7997 26.7498 13.0497C26.3998 12.7497 25.9498 12.5497 25.4998 12.6497C25.0498 12.6997 24.5998 12.9497 24.3498 13.3497C23.9498 13.9497 24.0498 14.7497 24.5498 15.2497ZM10.2498 20.0497H10.4498C11.1498 19.9497 11.7498 19.3997 11.7998 18.6997C11.8998 17.9997 12.0498 17.2997 12.3498 16.6497C12.6498 15.9997 12.9998 15.3997 13.4498 14.8497C13.8998 14.2997 13.9498 13.5497 13.4998 12.9497C13.1998 12.5497 12.7998 12.2997 12.2998 12.2997C11.8498 12.2997 11.3498 12.4497 11.0498 12.8497C10.3998 13.5997 9.8498 14.4497 9.4498 15.3997C9.0498 16.3497 8.7998 17.2997 8.6498 18.3497C8.5998 18.7997 8.7498 19.2997 9.0998 19.5997C9.4498 19.8997 9.8498 20.0497 10.2498 20.0497ZM15.8498 13.9497C16.1498 14.4497 16.6498 14.7497 17.1998 14.7497H20.9998C21.5498 14.7497 22.0998 14.4497 22.3498 13.9497L24.2498 10.6497C24.5498 10.1497 24.5498 9.54969 24.2498 9.09969L22.3498 5.79969C22.0998 5.29969 21.5498 4.99969 20.9998 4.99969H17.1998C16.6498 4.99969 16.0998 5.29969 15.8498 5.79969L13.9498 9.09969C13.6498 9.59969 13.6498 10.1997 13.9498 10.6497L15.8498 13.9497ZM16.5498 9.89969L17.7998 7.69969H20.3498L21.5998 9.89969L20.3498 12.0997H17.7998L16.5498 9.89969ZM12.8498 21.7497C12.5498 21.2497 12.0498 20.9497 11.4998 20.9497H7.6498C7.0998 20.9497 6.5498 21.2497 6.2998 21.7497L4.3998 25.0497C4.0998 25.5497 4.0998 26.1497 4.3998 26.5997L6.2998 29.8997C6.5998 30.3997 7.0998 30.6997 7.6498 30.6997H11.4998C12.0498 30.6997 12.5998 30.3997 12.8498 29.8997L14.7498 26.5997C15.0498 26.0997 15.0498 25.4997 14.7498 25.0497L12.8498 21.7497ZM12.1498 25.7997L10.8998 27.9997H8.2998L7.0498 25.7997L8.2998 23.5997H10.8498L12.1498 25.7997ZM33.5998 25.2497L31.6998 21.9497C31.3998 21.4497 30.8998 21.1497 30.3498 21.1497H26.4998C25.9498 21.1497 25.3998 21.4497 25.1498 21.9497L23.2498 25.2497C22.9498 25.7497 22.9498 26.3497 23.2498 26.7997L25.1498 30.0997C25.4498 30.5997 25.9498 30.8997 26.4998 30.8997H30.2998C30.8498 30.8997 31.3998 30.5997 31.6498 30.0997L33.5498 26.7997C33.8998 26.2997 33.8498 25.6997 33.5998 25.2497ZM30.9998 25.9997L29.7498 28.1997H27.1498L25.8498 25.9997L27.0998 23.7997H29.6498L30.9998 25.9997Z" fill="#523EFF"/>
</g>
<defs>
<clipPath id="clip0_513_115493">
<rect width="36" height="36" fill="white" transform="translate(0.784668 0.769226)"/>
</clipPath>
</defs>
</svg>
