<?xml version="1.0" standalone="no"?><!DOCTYPE svg PUBLIC "-//W3C//DTD SVG 1.1//EN" "http://www.w3.org/Graphics/SVG/1.1/DTD/svg11.dtd"><svg t="1731564687725" class="icon" viewBox="0 0 1024 1024" version="1.1" xmlns="http://www.w3.org/2000/svg" p-id="5972" xmlns:xlink="http://www.w3.org/1999/xlink" width="200" height="200"><path d="M215.202634 583.178185c30.208725 0 52.787167 7.25566 52.302832 37.622262-0.482997 30.311078-26.522695 37.62427-56.837787 37.62427H147.073284c-59.845481 0-108.35993-33.646568-108.35993-93.492718V186.929241c0-59.845481 48.514449-108.35993 108.35993-108.35993h448.662156c59.842805 0 108.355247 48.512442 108.355247 108.355247v377.385298c0 59.845481-48.514449 97.141954-108.35993 97.141955H524.383658c-28.547001 0-52.294805-8.712679-52.81794-37.254998-0.557922-30.443534 22.045272-36.684365 52.300825-36.684365h74.221668c34.705549-2.071803 40.898883-31.667082 40.898883-50.629735V197.079539c0-18.962653-11.329025-49.514561-47.319667-47.319667H152.358156c-33.200364-3.478649-47.319667 28.357014-47.319667 47.319667v339.360315c-0.006021 25.886504 21.824511 46.431942 44.021639 46.115519h66.141837v0.622812zM499.539411 426.422213l-67.540655 1.21619c-25.204153-1.425577-40.898883 25.584798-40.898883 44.54812v362.266552c-2.282529 25.140601 21.935561 41.540426 40.898883 41.540426l438.770081 0.067566c18.962653 0 39.389015-15.825848 40.898883-44.54812V467.321096c0-15.313416-13.066342-42.392026-40.898883-40.898883h-65.190559c-28.546332 0-52.292798-5.062773-52.816602-33.604422-0.557922-30.443534 22.045272-40.267374 52.300825-40.267374h71.868897c59.842805 0 108.355247 47.296253 108.355248 107.139058v377.385298c0 59.842805-48.512442 108.355247-108.355248 108.355247H427.052384c-59.845481 0-108.35993-48.514449-108.35993-108.35993V455.954609c0-59.844812 48.51378-103.493166 108.359261-103.493165h71.725738c29.095558 0 53.175839 9.842571 53.072818 38.938128-0.106366 29.806674-22.487462 35.022641-52.31086 35.022641z m0 0" p-id="5973"></path></svg>