<?xml version="1.0" standalone="no"?><!DOCTYPE svg PUBLIC "-//W3C//DTD SVG 1.1//EN" "http://www.w3.org/Graphics/SVG/1.1/DTD/svg11.dtd"><svg t="1732867692110" class="icon" viewBox="0 0 1024 1024" version="1.1" xmlns="http://www.w3.org/2000/svg" p-id="17578" xmlns:xlink="http://www.w3.org/1999/xlink" width="200" height="200"><path d="M56.888889 739.555556a28.444444 28.444444 0 0 1 28.444444-28.444445h170.666667a28.444444 28.444444 0 0 1 28.444444 28.444445v170.666666a28.444444 28.444444 0 0 1-28.444444 28.444445h-170.666667A28.444444 28.444444 0 0 1 56.888889 910.222222v-170.666666z m56.888889 28.444444v113.777778h113.777778v-113.777778H113.777778zM142.222222 142.222222A28.444444 28.444444 0 0 1 170.666667 113.777778h682.666666a28.444444 28.444444 0 0 1 28.444445 28.444444V398.222222a28.444444 28.444444 0 0 1-28.444445 28.444445H170.666667a28.444444 28.444444 0 0 1-28.444445-28.444445V142.222222z m56.888889 28.444445v199.111111h625.777778V170.666667h-625.777778z" p-id="17579"></path><path d="M540.444444 398.222222v341.333334h-56.888888V398.222222h56.888888z" p-id="17580"></path><path d="M142.222222 568.888889a28.444444 28.444444 0 0 1 28.444445-28.444445h682.666666a28.444444 28.444444 0 0 1 28.444445 28.444445v170.666667h-56.888889v-142.222223h-625.777778V739.555556h-56.888889v-170.666667z" p-id="17581"></path><path d="M739.555556 739.555556a28.444444 28.444444 0 0 1 28.444444-28.444445h170.666667a28.444444 28.444444 0 0 1 28.444444 28.444445v170.666666a28.444444 28.444444 0 0 1-28.444444 28.444445h-170.666667a28.444444 28.444444 0 0 1-28.444444-28.444445v-170.666666z m56.888888 28.444444v113.777778h113.777778v-113.777778h-113.777778zM398.222222 739.555556a28.444444 28.444444 0 0 1 28.444445-28.444445h170.666666a28.444444 28.444444 0 0 1 28.444445 28.444445v170.666666a28.444444 28.444444 0 0 1-28.444445 28.444445h-170.666666A28.444444 28.444444 0 0 1 398.222222 910.222222v-170.666666z m56.888889 28.444444v113.777778h113.777778v-113.777778H455.111111zM341.333333 298.666667h-42.666666v-56.888889H341.333333v56.888889z" p-id="17582"></path></svg>