<svg width="18" height="18" viewBox="0 0 18 18" fill="none" xmlns="http://www.w3.org/2000/svg">
<g id="Fire (&#231;&#129;&#171;&#231;&#131;&#173;)" clip-path="url(#clip0_187_1599)">
<path id="Vector" d="M9 16.5C12.088 16.5 14.6249 14.0528 14.6249 10.9118C14.6249 10.1407 14.5857 9.31406 14.1583 8.02935C13.7309 6.74468 13.6448 6.57885 13.1928 5.78546C12.9998 7.40453 11.9666 8.0793 11.7042 8.28097C11.7042 8.07116 11.0792 5.75096 10.1316 4.36271C9.20137 3 7.93628 2.10597 7.19449 1.5C7.19449 2.65116 6.87071 4.36271 6.40702 5.23478C5.94334 6.10684 5.85626 6.1386 5.27707 6.78758C4.69792 7.43655 4.43209 7.63699 3.94778 8.42441C3.46349 9.21187 3.375 10.2607 3.375 11.0318C3.375 14.1728 5.91199 16.5 9 16.5Z" stroke="#898686" stroke-width="1.125" stroke-linejoin="round"/>
</g>
<defs>
<clipPath id="clip0_187_1599">
<rect width="18" height="18" fill="white"/>
</clipPath>
</defs>
</svg>
