<?xml version="1.0" standalone="no"?><!DOCTYPE svg PUBLIC "-//W3C//DTD SVG 1.1//EN" "http://www.w3.org/Graphics/SVG/1.1/DTD/svg11.dtd"><svg t="1732867880041" class="icon" viewBox="0 0 1024 1024" version="1.1" xmlns="http://www.w3.org/2000/svg" p-id="17726" xmlns:xlink="http://www.w3.org/1999/xlink" width="200" height="200"><path d="M480.028444 63.146667a28.444444 28.444444 0 0 1 35.498667 0l355.555556 284.444444a28.444444 28.444444 0 0 1 10.695111 22.186667v568.888889a28.444444 28.444444 0 0 1-28.444445 28.444444H142.222222a28.444444 28.444444 0 0 1-28.444444-28.444444v-568.888889a28.444444 28.444444 0 0 1 10.695111-22.186667l355.555555-284.444444zM170.666667 383.431111V910.222222h654.222222V383.431111l-327.111111-261.688889L170.666667 383.431111z" p-id="17727"></path><path d="M350.833778 630.499556V938.666667a28.444444 28.444444 0 0 0 28.444444 28.444444h236.999111a28.444444 28.444444 0 0 0 28.444445-28.444444v-308.167111a28.444444 28.444444 0 0 0-28.444445-28.444445H379.278222a28.444444 28.444444 0 0 0-28.444444 28.444445z m56.888889 28.444444h180.110222V910.222222H407.722667v-251.278222z" p-id="17728"></path><path d="M853.333333 967.111111H142.222222v-56.888889H853.333333v56.888889z" p-id="17729"></path></svg>