<?xml version="1.0" standalone="no"?><!DOCTYPE svg PUBLIC "-//W3C//DTD SVG 1.1//EN" "http://www.w3.org/Graphics/SVG/1.1/DTD/svg11.dtd"><svg t="1732870366814" class="icon" viewBox="0 0 1024 1024" version="1.1" xmlns="http://www.w3.org/2000/svg" p-id="18492" xmlns:xlink="http://www.w3.org/1999/xlink" width="200" height="200"><path d="M85.333333 113.777778a28.444444 28.444444 0 0 1 28.444445-28.444445h796.444444a28.444444 28.444444 0 0 1 28.444445 28.444445v682.666666a28.444444 28.444444 0 0 1-28.444445 28.444445H113.777778a28.444444 28.444444 0 0 1-28.444445-28.444445V113.777778z m56.888889 28.444444v625.777778h739.555556v-625.777778h-739.555556z" p-id="18493"></path><path d="M494.933333 773.688889a28.444444 28.444444 0 0 1 34.133334 0l227.555555 170.666667-34.133333 45.511111L512 832 301.511111 989.866667l-34.133333-45.511111 227.555555-170.666667zM817.322667 246.897778L534.755556 552.504889a28.444444 28.444444 0 0 1-41.528889 0.284444L387.640889 441.457778l-139.491556 146.944-41.301333-39.139556L367.104 380.586667a28.444444 28.444444 0 0 1 41.244444 0l105.187556 111.047111 262.030222-283.363556 41.756445 38.570667zM967.111111 142.222222H56.888889v-56.888889h910.222222v56.888889z" p-id="18494"></path></svg>