<?xml version="1.0" standalone="no"?><!DOCTYPE svg PUBLIC "-//W3C//DTD SVG 1.1//EN" "http://www.w3.org/Graphics/SVG/1.1/DTD/svg11.dtd"><svg t="1757235599346" class="icon" viewBox="0 0 1024 1024" version="1.1" xmlns="http://www.w3.org/2000/svg" p-id="1611" xmlns:xlink="http://www.w3.org/1999/xlink" width="16" height="16"><path d="M555.741 43.986c-1.816 0-3.661 0.013-5.478 0.035-231.057 2.975-416.613 193.374-413.638 424.43 0.022 1.773 0.227 3.498 0.543 5.182-28.978 30.358-89.665 99.778-89.047 147.93 0.688 53.301 51.367 73.12 87.48 73.945l41.153 8.74 10.283 201.55c0.875 40.884 34.406 73.675 75.254 73.675 0.328 0 0.659-0.004 0.986-0.007l153.784-1.981c16.597-0.213 29.877-13.843 29.664-30.44-0.213-16.465-13.625-29.664-30.044-29.664-0.13 0-0.262 0-0.394 0.004l-153.785 1.98c-5.34-0.054-9.106-2.666-10.788-4.306-1.682-1.64-4.514-5.206-4.585-10.68L234.43 655.044l-92.608-19.66-3.351 0.043c-0.058-0.088-10.14-0.08-19.547-3.471-10.605-3.823-10.654-7.726-10.698-11.167-0.222-17.239 37.17-70.26 80.01-113.454 8.233-8.291 10.61-20.167 7.205-30.555a30.064 30.064 0 0 0 1.289-9.101c-2.55-197.915 156.391-361.004 354.305-363.553 1.574-0.02 3.13-0.03 4.692-0.03 195.79 0 356.336 157.993 358.863 354.338 0.209 16.465 13.625 29.667 30.043 29.667 0.132 0 0.264 0 0.393-0.002 16.597-0.215 29.882-13.843 29.665-30.44-2.951-229.236-190.359-413.672-418.95-413.672z" p-id="1612" fill="#333333"></path><path d="M695.213 214.714c-34.467-25.268-79.39-39.183-126.496-39.183-94.848 0-174.98 67.285-174.98 146.93 0 30.463 11.137 70.626 64.205 88.956 32.233 11.135 73.24 12.058 115.95 12.058 42.711 0 83.716-0.923 115.95-12.058 53.067-18.332 64.205-58.493 64.205-88.956 0-41.665-20.896-79.931-58.834-107.747z m-121.32 148.653c-103.367 0-120.047-12.059-120.047-40.906 0-41.065 47.175-86.823 114.872-86.823 67.878 0 125.223 39.76 125.223 86.823-0.001 28.847-16.682 40.906-120.047 40.906z" p-id="1613" fill="#333333"></path></svg>