<svg width="18" height="18" viewBox="0 0 18 18" fill="none" xmlns="http://www.w3.org/2000/svg">
<g id="Book-one (&#228;&#185;&#166;&#231;&#177;&#141;1)" clip-path="url(#clip0_187_1530)">
<path id="Vector (Stroke)" d="M14.8125 2.625C14.8125 2.31434 15.0643 2.0625 15.375 2.0625C15.6857 2.0625 15.9375 2.31434 15.9375 2.625V16.125C15.9375 16.4357 15.6857 16.6875 15.375 16.6875H4.875C3.3217 16.6875 2.0625 15.4283 2.0625 13.875V4.125C2.0625 2.5717 3.3217 1.3125 4.875 1.3125H13.125C13.4357 1.3125 13.6875 1.56434 13.6875 1.875V11.625C13.6875 11.9357 13.4357 12.1875 13.125 12.1875H4.875C4.24605 12.1875 3.69445 12.5348 3.4043 13.0488C3.32007 13.1984 3.25714 13.3617 3.22168 13.5352C3.19913 13.6449 3.1875 13.7586 3.1875 13.875C3.1875 14.807 3.94302 15.5625 4.875 15.5625H14.8125V2.625ZM12.75 13.3125C13.0607 13.3125 13.3125 13.5643 13.3125 13.875C13.3125 14.1857 13.0607 14.4375 12.75 14.4375H5.25C4.93934 14.4375 4.6875 14.1857 4.6875 13.875C4.6875 13.5643 4.93934 13.3125 5.25 13.3125H12.75ZM3.1875 11.6289C3.47493 11.4126 3.80405 11.2509 4.16211 11.1572C4.28712 11.1244 4.41486 11.0984 4.5459 11.083C4.65391 11.0704 4.76361 11.0625 4.875 11.0625H12.5625V2.4375H4.875C3.94302 2.4375 3.1875 3.19302 3.1875 4.125V11.6289Z" fill="#898686"/>
</g>
<defs>
<clipPath id="clip0_187_1530">
<rect width="18" height="18" fill="white"/>
</clipPath>
</defs>
</svg>
