<?xml version="1.0" standalone="no"?><!DOCTYPE svg PUBLIC "-//W3C//DTD SVG 1.1//EN" "http://www.w3.org/Graphics/SVG/1.1/DTD/svg11.dtd"><svg t="1732870773445" class="icon" viewBox="0 0 1024 1024" version="1.1" xmlns="http://www.w3.org/2000/svg" p-id="19222" xmlns:xlink="http://www.w3.org/1999/xlink" width="200" height="200"><path d="M195.4816 359.424C277.1456 326.656 387.84 307.2 508.5696 307.2s231.424 19.5072 313.1392 52.224c40.7552 16.2816 75.776 36.4544 101.12 60.416 25.3952 24.064 43.1616 54.016 43.1616 88.7296 0 34.7648-17.7664 64.7168-43.1616 88.7808-25.344 23.9616-60.416 44.1344-101.12 60.416-81.664 32.7168-192.4096 52.224-313.1392 52.224-120.7296 0-231.424-19.5584-313.088-52.224-40.7552-16.2816-75.776-36.4544-101.12-60.416C68.9152 573.2864 51.2 543.3344 51.2 508.5696c0-34.7136 17.7152-64.7168 43.1616-88.7296 25.344-23.9616 60.416-44.1344 101.12-60.416z m-58.88 105.0624c-17.8176 16.7936-23.9616 31.744-23.9616 44.0832 0 12.3904 6.144 27.3408 23.9104 44.1344 17.8176 16.896 45.2608 33.4336 81.7664 48.0256 72.704 29.1328 175.36 47.8208 290.304 47.8208 114.8928 0 217.4976-18.688 290.304-47.8208 36.4032-14.592 63.8464-31.1808 81.7152-48.0256 17.7664-16.7936 23.9104-31.744 23.9104-44.1344s-6.144-27.2896-23.9616-44.0832c-17.8176-16.896-45.2608-33.4848-81.7152-48.0768-72.7552-29.0816-175.36-47.7696-290.304-47.7696-114.8928 0-217.4976 18.688-290.304 47.7696-36.4544 14.592-63.8976 31.232-81.7152 48.0768z" fill="#5A5A5A" p-id="19223"></path><path d="M416.4096 218.3168c-29.0816 72.704-47.7696 175.36-47.7696 290.304 0 114.8928 18.688 217.4976 47.7696 290.304 14.592 36.4032 31.232 63.8464 48.0768 81.7152 16.7936 17.7664 31.744 23.9104 44.0832 23.9104 12.3904 0 27.3408-6.144 44.1344-23.9616 16.896-17.8176 33.4336-45.2608 48.0256-81.7152 29.1328-72.7552 47.8208-175.36 47.8208-290.304 0-114.8928-18.688-217.4976-47.8208-290.304-14.592-36.4544-31.1808-63.8976-48.0256-81.7152-16.7936-17.7664-31.744-23.9104-44.1344-23.9104s-27.2896 6.144-44.0832 23.9104c-16.896 17.8176-33.4848 45.2608-48.0768 81.7664zM419.84 94.3616C443.904 68.9152 473.856 51.2 508.5696 51.2c34.7648 0 64.7168 17.7152 88.7808 43.1616 23.9616 25.344 44.1344 60.416 60.416 101.12 32.7168 81.664 52.224 192.3584 52.224 313.088s-19.5584 231.424-52.224 313.1392c-16.2816 40.7552-36.4544 75.776-60.416 101.12-24.064 25.3952-54.016 43.1616-88.7808 43.1616-34.7136 0-64.7168-17.7664-88.7296-43.1616-23.9616-25.344-44.1344-60.416-60.416-101.12C326.656 740.0448 307.2 629.248 307.2 508.5696c0-120.7296 19.5072-231.424 52.224-313.088 16.2816-40.7552 36.4544-75.776 60.416-101.12z" fill="#5A5A5A" p-id="19224"></path><path d="M508.5696 112.64a395.9296 395.9296 0 1 0 0 791.9104 395.9296 395.9296 0 0 0 0-791.9104zM51.2 508.5696a457.3696 457.3696 0 1 1 914.7904 0A457.3696 457.3696 0 0 1 51.2 508.5696z" fill="#5A5A5A" p-id="19225"></path></svg>