<svg width="17" height="17" viewBox="0 0 17 17" fill="none" xmlns="http://www.w3.org/2000/svg">
<g clip-path="url(#clip0_443_43032)">
<g clip-path="url(#clip1_443_43032)">
<path d="M2.95508 13.6531C2.95508 15.1995 5.86523 16.4531 9.45508 16.4531C13.0449 16.4531 15.9551 15.1995 15.9551 13.6531H14.7363C14.7363 13.6562 14.7364 13.6725 14.7191 13.709C14.6996 13.75 14.6568 13.8185 14.5681 13.9089C14.3841 14.0963 14.059 14.3199 13.5628 14.5336C12.5739 14.9596 11.1226 15.2531 9.45508 15.2531C7.78759 15.2531 6.33625 14.9596 5.34738 14.5336C4.85114 14.3199 4.52608 14.0963 4.3421 13.9089C4.25335 13.8185 4.21057 13.75 4.1911 13.709C4.17377 13.6725 4.17382 13.6564 4.17383 13.6533L2.95508 13.6531Z" fill="#6B05A8"/>
<path d="M2.95508 10.4531C2.95508 11.9995 5.86523 13.2531 9.45508 13.2531C13.0449 13.2531 15.9551 11.9995 15.9551 10.4531H14.7363C14.7363 10.4562 14.7364 10.4725 14.7191 10.509C14.6996 10.55 14.6568 10.6185 14.5681 10.7089C14.3841 10.8963 14.059 11.1199 13.5628 11.3336C12.5739 11.7596 11.1226 12.0531 9.45508 12.0531C7.78759 12.0531 6.33625 11.7596 5.34738 11.3336C4.85114 11.1199 4.52608 10.8963 4.3421 10.7089C4.25335 10.6185 4.21057 10.55 4.1911 10.509C4.17377 10.4725 4.17382 10.4564 4.17383 10.4533L2.95508 10.4531Z" fill="#6B05A8"/>
<path d="M2.95508 6.85313C2.95508 8.39952 5.86523 9.65312 9.45508 9.65312C13.0449 9.65312 15.9551 8.39952 15.9551 6.85313H14.7363C14.7363 6.85624 14.7364 6.87253 14.7191 6.90902C14.6996 6.95 14.6568 7.01854 14.5681 7.10894C14.3841 7.29631 14.059 7.51987 13.5628 7.73363C12.5739 8.15961 11.1226 8.45312 9.45508 8.45312C7.78759 8.45312 6.33625 8.15961 5.34738 7.73363C4.85114 7.51987 4.52608 7.29631 4.3421 7.10894C4.25335 7.01854 4.21057 6.95 4.1911 6.90902C4.17377 6.87253 4.17382 6.85643 4.17383 6.85331L2.95508 6.85313Z" fill="#6B05A8"/>
<path d="M14.7363 13.6531V3.29651H15.9551V13.6531H14.7363Z" fill="#6B05A8"/>
<path d="M2.95508 13.6531V3.29651H4.17383L4.17383 13.6533L2.95508 13.6531Z" fill="#6B05A8"/>
<path d="M14.7363 3.25312C14.7363 3.25624 14.7364 3.27253 14.7191 3.30902C14.6996 3.35 14.6568 3.41854 14.5681 3.50894C14.3841 3.69631 14.059 3.91987 13.5628 4.13364C12.5739 4.55961 11.1226 4.85313 9.45508 4.85313C7.78759 4.85313 6.33625 4.55961 5.34738 4.13364C4.85114 3.91987 4.52608 3.69631 4.3421 3.50894C4.25335 3.41854 4.21057 3.35 4.1911 3.30902C4.17377 3.27253 4.17382 3.25606 4.17383 3.25294C4.17382 3.24982 4.17377 3.23372 4.1911 3.19723C4.21057 3.15625 4.25335 3.08771 4.3421 2.99731C4.52608 2.80994 4.85114 2.58638 5.34738 2.37261C6.33625 1.94664 7.78759 1.65313 9.45508 1.65313C11.1226 1.65313 12.5739 1.94664 13.5628 2.37261C14.059 2.58638 14.3841 2.80994 14.5681 2.99731C14.6568 3.08771 14.6996 3.15625 14.7191 3.19723C14.7364 3.23372 14.7363 3.25001 14.7363 3.25312ZM9.45508 6.05312C13.0449 6.05312 15.9551 4.79952 15.9551 3.25312C15.9551 1.70673 13.0449 0.453125 9.45508 0.453125C5.86523 0.453125 2.95508 1.70673 2.95508 3.25312C2.95508 4.79952 5.86523 6.05312 9.45508 6.05312Z" fill="#6B05A8"/>
<path d="M6.61133 6.85313C6.61133 7.1845 6.3385 7.45312 6.00195 7.45312C5.6654 7.45312 5.39258 7.1845 5.39258 6.85313C5.39258 6.52175 5.6654 6.25313 6.00195 6.25313C6.3385 6.25313 6.61133 6.52175 6.61133 6.85313Z" fill="#6B05A8"/>
<path d="M6.61133 10.3908C6.61133 10.7222 6.3385 10.9908 6.00195 10.9908C5.6654 10.9908 5.39258 10.7222 5.39258 10.3908C5.39258 10.0594 5.6654 9.79081 6.00195 9.79081C6.3385 9.79081 6.61133 10.0594 6.61133 10.3908Z" fill="#6B05A8"/>
<path d="M6.61133 13.8531C6.61133 14.1845 6.3385 14.4531 6.00195 14.4531C5.6654 14.4531 5.39258 14.1845 5.39258 13.8531C5.39258 13.5218 5.6654 13.2531 6.00195 13.2531C6.3385 13.2531 6.61133 13.5218 6.61133 13.8531Z" fill="#6B05A8"/>
</g>
</g>
<defs>
<clipPath id="clip0_443_43032">
<rect width="16" height="16" fill="white" transform="translate(0.955078 0.453125)"/>
</clipPath>
<clipPath id="clip1_443_43032">
<rect width="16" height="16" fill="white" transform="translate(0.955078 0.453125)"/>
</clipPath>
</defs>
</svg>
