<svg width="16" height="16" viewBox="0 0 16 16" fill="none" xmlns="http://www.w3.org/2000/svg">
<g clip-path="url(#clip0_1067_39086)">
<g clip-path="url(#clip1_1067_39086)">
<path d="M14.0599 6.62591V3.81249C14.0599 2.77697 13.2205 1.9375 12.1849 1.9375H2.81161C1.77608 1.9375 0.936615 2.77697 0.936615 3.81249V13.1858C0.936615 14.2213 1.77608 15.0608 2.81161 15.0608H12.1849C13.2205 15.0608 14.0599 14.2213 14.0599 13.1858V6.62591ZM2.1484 3.14929C2.23543 3.06182 2.33892 2.99246 2.45291 2.94523C2.5669 2.898 2.68912 2.87383 2.81251 2.87412H12.1875C12.3106 2.87427 12.4325 2.89869 12.5462 2.94599C12.6599 2.99328 12.7632 3.06253 12.8501 3.14976C12.937 3.237 13.0059 3.34051 13.0528 3.45438C13.0996 3.56825 13.1236 3.69025 13.1233 3.81339V5.68929H1.87324V3.81339C1.87295 3.69001 1.89712 3.56779 1.94435 3.4538C1.99158 3.33981 2.06093 3.23631 2.1484 3.14929ZM6.09069 9.90674V6.62591H8.90585V9.90674H6.09069ZM8.90585 10.8434V14.1242H6.09069V10.8434H8.90585ZM5.15407 9.90674H1.87324V6.62591H5.15407V9.90674ZM2.1484 13.8506C2.06098 13.7639 1.99163 13.6608 1.9444 13.5471C1.89716 13.4334 1.87297 13.3115 1.87324 13.1884V10.8434H5.15407V14.1242H2.81251C2.68922 14.1248 2.56704 14.1009 2.45304 14.0539C2.33905 14.007 2.2355 13.9379 2.1484 13.8506ZM13.1233 13.1884C13.1235 13.3113 13.0995 13.4331 13.0526 13.5468C13.0056 13.6604 12.9367 13.7637 12.8497 13.8506C12.7628 13.9376 12.6595 14.0065 12.5459 14.0534C12.4322 14.1004 12.3104 14.1244 12.1875 14.1242H9.84248V10.8434H13.1233V13.1884ZM13.1233 9.90674H9.84248V6.62591H13.1233V9.90674Z" fill="#447DFB"/>
</g>
</g>
<defs>
<clipPath id="clip0_1067_39086">
<rect width="16" height="16" fill="white"/>
</clipPath>
<clipPath id="clip1_1067_39086">
<rect width="15" height="15" fill="white" transform="translate(0 1)"/>
</clipPath>
</defs>
</svg>
