<svg width="34" height="34" viewBox="0 0 34 34" fill="none" xmlns="http://www.w3.org/2000/svg">
<circle cx="17" cy="17" r="17" fill="#1568FF"/>
<path d="M26.1981 21.8371C25.5207 21.8371 24.9756 21.7202 24.5628 21.4865C24.154 21.2473 23.8574 20.9106 23.673 20.4766C23.4887 20.0425 23.3965 19.5278 23.3965 18.9324V15.4018C23.3965 14.7897 23.5067 14.2666 23.7271 13.8326C23.9476 13.3986 24.2662 13.0675 24.6831 12.8393C25.1039 12.6056 25.6089 12.4888 26.1981 12.4888C26.7873 12.4888 27.2903 12.6056 27.7071 12.8393C28.1239 13.0675 28.4426 13.3986 28.663 13.8326C28.8875 14.2666 28.9997 14.7897 28.9997 15.4018V18.9324C28.9997 19.5223 28.9115 20.037 28.7352 20.4766C28.5588 20.9106 28.2662 21.2473 27.8574 21.4865C27.4526 21.7202 26.8995 21.8371 26.1981 21.8371ZM26.1981 20.2596C26.5468 20.2596 26.8273 20.1705 27.0398 19.9925C27.2562 19.8088 27.3644 19.4889 27.3644 19.0326V15.3016C27.3644 14.8453 27.2622 14.5281 27.0578 14.3501C26.8534 14.1665 26.5668 14.0746 26.1981 14.0746C25.8454 14.0746 25.5628 14.1665 25.3504 14.3501C25.138 14.5281 25.0318 14.8453 25.0318 15.3016V19.0326C25.0318 19.4889 25.132 19.8088 25.3324 19.9925C25.5328 20.1705 25.8213 20.2596 26.1981 20.2596Z" fill="white"/>
<path d="M18.8158 25.326C18.415 25.326 18.0142 25.2843 17.6134 25.2008C17.2166 25.1229 16.9059 25.0088 16.6815 24.8586L17.0182 23.3145C17.3228 23.4313 17.6254 23.5176 17.926 23.5732C18.2306 23.6344 18.5071 23.665 18.7556 23.665C19.2246 23.665 19.5653 23.5231 19.7777 23.2393C19.9901 22.9611 20.0963 22.5132 20.0963 21.8955V20.9106C19.9681 21.0163 19.8198 21.1054 19.6514 21.1777C19.4871 21.2445 19.3168 21.2946 19.1404 21.3279C18.9641 21.3613 18.7937 21.378 18.6294 21.378C17.8518 21.378 17.2366 21.1332 16.7837 20.6435C16.3348 20.1538 16.1104 19.4694 16.1104 18.5902V15.3767C16.1104 14.8648 16.1885 14.389 16.3448 13.9494C16.5011 13.5099 16.7597 13.1565 17.1204 12.8894C17.4811 12.6223 17.9641 12.4888 18.5693 12.4888C18.8057 12.4888 19.0362 12.5277 19.2607 12.6056C19.4891 12.678 19.6995 12.7781 19.8919 12.9061C20.0843 13.0285 20.2466 13.1676 20.3789 13.3234L20.5172 12.6724H21.7316V21.7453C21.7316 22.4798 21.6314 23.1141 21.431 23.6483C21.2346 24.1881 20.922 24.6026 20.4931 24.892C20.0683 25.1813 19.5091 25.326 18.8158 25.326ZM18.8999 19.8673C19.1765 19.8673 19.417 19.8283 19.6214 19.7504C19.8258 19.6725 19.9841 19.5779 20.0963 19.4666V14.7006C20.0963 14.5838 19.9881 14.4502 19.7717 14.3C19.5592 14.1498 19.2687 14.0746 18.8999 14.0746C18.5272 14.0746 18.2406 14.172 18.0402 14.3668C17.8438 14.556 17.7456 14.8759 17.7456 15.3267V18.6737C17.7456 19.1244 17.8518 19.436 18.0643 19.6085C18.2807 19.781 18.5592 19.8673 18.8999 19.8673Z" fill="white"/>
<path d="M11.8177 21.8371C11.1404 21.8371 10.5953 21.7202 10.1824 21.4865C9.77363 21.2473 9.47704 20.9106 9.29267 20.4766C9.1083 20.0425 9.01611 19.5278 9.01611 18.9324V15.4018C9.01611 14.7897 9.12633 14.2666 9.34677 13.8326C9.56722 13.3986 9.88585 13.0675 10.3027 12.8393C10.7235 12.6056 11.2285 12.4888 11.8177 12.4888C12.4069 12.4888 12.9099 12.6056 13.3267 12.8393C13.7436 13.0675 14.0622 13.3986 14.2826 13.8326C14.5071 14.2666 14.6193 14.7897 14.6193 15.4018V18.9324C14.6193 19.5223 14.5311 20.037 14.3548 20.4766C14.1784 20.9106 13.8859 21.2473 13.477 21.4865C13.0722 21.7202 12.5191 21.8371 11.8177 21.8371ZM11.8177 20.2596C12.1664 20.2596 12.447 20.1705 12.6594 19.9925C12.8758 19.8088 12.984 19.4889 12.984 19.0326V15.3016C12.984 14.8453 12.8818 14.5281 12.6774 14.3501C12.473 14.1665 12.1865 14.0746 11.8177 14.0746C11.465 14.0746 11.1824 14.1665 10.97 14.3501C10.7576 14.5281 10.6514 14.8453 10.6514 15.3016V19.0326C10.6514 19.4889 10.7516 19.8088 10.952 19.9925C11.1524 20.1705 11.441 20.2596 11.8177 20.2596Z" fill="white"/>
<path d="M5 18.6989V9H6.63527V18.6655C6.63527 18.9938 6.66934 19.2609 6.73748 19.4668C6.80962 19.6727 6.92986 19.8229 7.0982 19.9175C7.26653 20.0121 7.49699 20.0594 7.78958 20.0594H7.99399L7.86774 21.7454H7.18236C6.70541 21.7454 6.30461 21.6481 5.97996 21.4533C5.65531 21.2585 5.41082 20.9386 5.24649 20.4934C5.08216 20.0483 5 19.4501 5 18.6989Z" fill="white"/>
</svg>
