<?xml version="1.0" standalone="no"?><!DOCTYPE svg PUBLIC "-//W3C//DTD SVG 1.1//EN" "http://www.w3.org/Graphics/SVG/1.1/DTD/svg11.dtd"><svg t="1732866881041" class="icon" viewBox="0 0 1032 1024" version="1.1" xmlns="http://www.w3.org/2000/svg" p-id="16687" xmlns:xlink="http://www.w3.org/1999/xlink" width="201.5625" height="200"><defs><style type="text/css"></style></defs><path d="M442.254222 309.930667C256.682667 309.930667 56.888889 270.336 56.888889 183.409778 56.888889 96.483556 256.682667 56.888889 442.254222 56.888889c185.628444 0 385.365333 39.594667 385.365334 126.520889 0 86.926222-199.68 126.520889-385.365334 126.520889z m0-199.736889c-93.468444 0-181.020444 10.012444-246.499555 28.273778-70.314667 19.569778-85.504 40.732444-85.504 44.942222 0 4.152889 15.189333 25.315556 85.504 44.942222 65.536 18.204444 153.031111 28.216889 246.499555 28.216889 93.468444 0 181.020444-10.012444 246.499556-28.273778 70.314667-19.569778 85.560889-40.732444 85.560889-44.942222 0-4.152889-15.246222-25.315556-85.560889-44.942222-65.422222-18.204444-152.974222-28.216889-246.499556-28.216889z" p-id="16688"></path><path d="M442.254222 499.598222C256.682667 499.598222 56.888889 460.003556 56.888889 373.077333V189.155556a26.737778 26.737778 0 0 1 53.361778 0v183.921777c0 4.152889 15.189333 25.315556 85.504 44.942223 65.536 18.204444 153.031111 28.273778 246.499555 28.273777 93.468444 0 181.020444-10.069333 246.499556-28.273777 70.314667-19.626667 85.560889-40.789333 85.560889-44.942223V189.155556a26.737778 26.737778 0 0 1 53.304889 0v183.921777c0.056889 86.926222-199.68 126.520889-385.365334 126.520889z" p-id="16689"></path><path d="M442.254222 692.053333C256.682667 692.053333 56.888889 652.458667 56.888889 565.475556V381.610667a26.737778 26.737778 0 0 1 53.361778 0V565.475556c0 4.152889 15.189333 25.315556 85.504 44.942222 65.536 18.204444 153.031111 28.216889 246.499555 28.216889a26.737778 26.737778 0 0 1 0 53.361777z" p-id="16690"></path><path d="M442.254222 880.014222C256.682667 880.014222 56.888889 840.419556 56.888889 753.493333v-183.921777a26.737778 26.737778 0 0 1 53.361778 0v183.864888c0 4.209778 15.189333 25.372444 85.504 44.942223 65.536 18.204444 153.031111 28.273778 246.499555 28.273777a26.737778 26.737778 0 0 1 0 53.361778zM635.904 353.28a26.510222 26.510222 0 1 0 53.020444 0 26.510222 26.510222 0 0 0-53.020444 0zM775.964444 623.957333a123.221333 123.221333 0 1 0 0 246.385778 123.221333 123.221333 0 0 0 0-246.328889z m58.709334 181.873778a83.000889 83.000889 0 1 1-117.361778-117.361778 83.000889 83.000889 0 0 1 117.361778 117.361778z" p-id="16691"></path><path d="M989.184 747.178667c0-4.551111-0.113778-9.045333-0.398222-13.539556l43.235555-39.082667-3.015111-11.719111a259.640889 259.640889 0 0 0-28.615111-69.12l-6.257778-10.410666-58.140444 2.958222a215.210667 215.210667 0 0 0-19.114667-19.114667l2.958222-58.140444-10.353777-6.257778a259.527111 259.527111 0 0 0-69.12-28.615111l-11.776-2.958222-39.025778 43.235555a211.399111 211.399111 0 0 0-27.079111 0l-39.025778-43.235555-11.719111 2.958222a259.527111 259.527111 0 0 0-69.12 28.672l-10.467556 6.200889 2.958223 58.140444c-6.769778 5.973333-13.141333 12.344889-19.114667 19.114667l-58.140445-2.958222-6.257777 10.410666a259.470222 259.470222 0 0 0-28.615111 69.063111l-2.958223 11.776 43.235556 39.025778a212.878222 212.878222 0 0 0 0 27.079111l-43.235556 39.025778 2.958223 11.776c6.144 24.291556 15.815111 47.559111 28.672 69.063111l6.200888 10.467556 58.140445-2.958222c5.973333 6.826667 12.344889 13.198222 19.114667 19.114666l-2.958223 58.197334 10.410667 6.200888c21.504 12.8 44.771556 22.471111 69.063111 28.615112l11.776 3.015111 39.025778-43.235556c9.045333 0.568889 18.090667 0.568889 27.079111 0l39.025778 43.235556 11.776-3.015111a259.527111 259.527111 0 0 0 69.063111-28.615112l10.467555-6.257777-2.958222-58.140445a214.471111 214.471111 0 0 0 19.114667-19.114666l58.197333 2.958222 6.200889-10.410667c12.8-21.504 22.471111-44.771556 28.615111-69.063111l3.015111-11.776-43.235555-39.025778c0.284444-4.551111 0.398222-9.102222 0.398222-13.539555z m-41.301333-19.512889c1.479111 12.970667 1.479111 26.055111 0 39.025778l-1.137778 10.24 40.049778 36.181333c-3.925333 12.629333-8.988444 24.803556-15.132445 36.522667l-53.873778-2.787556-6.485333 8.078222c-8.078222 10.24-17.351111 19.456-27.534222 27.591111l-8.078222 6.428445 2.730666 53.873778a219.591111 219.591111 0 0 1-36.465777 15.189333l-36.181334-40.106667-10.24 1.137778a174.136889 174.136889 0 0 1-39.025778 0l-10.24-1.137778-36.238222 40.049778a220.103111 220.103111 0 0 1-36.465778-15.132444l2.730667-53.873778-8.078222-6.485334a174.478222 174.478222 0 0 1-27.591111-27.534222l-6.428445-8.078222-53.873777 2.730667a219.022222 219.022222 0 0 1-15.132445-36.408889l40.049778-36.238222-1.137778-10.24a174.136889 174.136889 0 0 1 0-39.025778l1.137778-10.24-40.049778-36.238222c3.982222-12.572444 9.045333-24.803556 15.132445-36.465778l53.930666 2.730666 6.428445-8.078222c8.135111-10.183111 17.408-19.456 27.591111-27.591111l8.078222-6.428444-2.787556-53.873778a219.591111 219.591111 0 0 1 36.522667-15.132445l36.181333 40.049778 10.24-1.137778c12.970667-1.479111 26.055111-1.479111 39.025778 0l10.24 1.137778 36.181334-40.049778c12.629333 3.982222 24.803556 8.988444 36.522666 15.132445l-2.787555 53.930667 8.078222 6.428444c10.24 8.135111 19.456 17.351111 27.591111 27.534222l6.428444 8.078222 53.930667-2.730666c6.087111 11.719111 11.150222 23.893333 15.132445 36.522666l-40.106667 36.181334 1.137778 10.24z" p-id="16692"></path></svg>