<?xml version="1.0" standalone="no"?><!DOCTYPE svg PUBLIC "-//W3C//DTD SVG 1.1//EN" "http://www.w3.org/Graphics/SVG/1.1/DTD/svg11.dtd"><svg t="1732866780764" class="icon" viewBox="0 0 1024 1024" version="1.1" xmlns="http://www.w3.org/2000/svg" p-id="16541" xmlns:xlink="http://www.w3.org/1999/xlink" width="200" height="200"><path d="M99.555556 268.8a28.444444 28.444444 0 0 1 28.444444-28.444444h768a28.444444 28.444444 0 0 1 28.444444 28.444444v605.866667c0 39.253333-31.857778 71.111111-71.111111 71.111111H170.666667c-39.253333 0-71.111111-31.857778-71.111111-71.111111V268.8z m56.888888 28.444444v577.422223c0 7.850667 6.371556 14.222222 14.222223 14.222222h682.666666a14.222222 14.222222 0 0 0 14.222223-14.222222V297.244444H156.444444z" p-id="16542"></path><path d="M226.076444 89.656889a28.444444 28.444444 0 0 1 22.812445-11.434667h526.222222a28.444444 28.444444 0 0 1 22.755556 11.434667l120.945777 162.133333-45.624888 34.019556-112.355556-150.698667H263.168L150.755556 285.809778l-45.624889-34.019556 120.888889-162.133333zM379.278222 409.6c0 73.955556 59.562667 133.688889 132.721778 133.688889a133.233778 133.233778 0 0 0 132.721778-133.688889h56.888889c0 105.073778-84.764444 190.577778-189.610667 190.577778A190.122667 190.122667 0 0 1 322.389333 409.6h56.888889z" p-id="16543"></path></svg>