<svg width="18" height="18" viewBox="0 0 18 18" fill="none" xmlns="http://www.w3.org/2000/svg">
<g id="At-sign (&#233;&#130;&#174;&#228;&#187;&#182;&#231;&#172;&#166;&#229;&#143;&#183;)" clip-path="url(#clip0_187_1603)">
<path id="Vector" d="M16.5 9C16.5 4.85786 13.1421 1.5 9 1.5C4.85786 1.5 1.5 4.85786 1.5 9C1.5 13.1421 4.85786 16.5 9 16.5C10.8707 16.5 12.5815 15.8151 13.8952 14.6823" stroke="#898686" stroke-width="1.125" stroke-linecap="round" stroke-linejoin="round"/>
<path id="Vector_2" d="M9 12C10.6569 12 12 10.6569 12 9C12 7.34314 10.6569 6 9 6C7.34314 6 6 7.34314 6 9C6 10.6569 7.34314 12 9 12Z" stroke="#898686" stroke-width="1.125" stroke-linejoin="round"/>
<path id="Vector_3" d="M12 9C12 10.2426 13.0074 11.25 14.25 11.25C15.4926 11.25 16.5 10.2426 16.5 9" stroke="#898686" stroke-width="1.125" stroke-linecap="round" stroke-linejoin="round"/>
<path id="Vector_4" d="M12 9.375V6" stroke="#898686" stroke-width="1.125" stroke-linecap="round" stroke-linejoin="round"/>
</g>
<defs>
<clipPath id="clip0_187_1603">
<rect width="18" height="18" fill="white"/>
</clipPath>
</defs>
</svg>
