<svg width="12" height="12" viewBox="0 0 12 12" fill="none" xmlns="http://www.w3.org/2000/svg">
<g clip-path="url(#clip0_317_136536)">
<path d="M6.43412 6L8.38165 4.05176C8.43847 3.99395 8.4703 3.91612 8.4703 3.83506C8.4703 3.75399 8.43847 3.67617 8.38165 3.61835C8.3238 3.56132 8.24582 3.52935 8.16459 3.52935C8.08335 3.52935 8.00538 3.56132 7.94753 3.61835L6 5.56659L4.05176 3.61835C3.99395 3.56153 3.91612 3.5297 3.83506 3.5297C3.75399 3.5297 3.67617 3.56153 3.61835 3.61835C3.56132 3.6762 3.52935 3.75418 3.52935 3.83541C3.52935 3.91665 3.56132 3.99462 3.61835 4.05247L5.56659 6L3.61835 7.94824C3.56153 8.00605 3.5297 8.08388 3.5297 8.16494C3.5297 8.24601 3.56153 8.32383 3.61835 8.38165C3.6762 8.43868 3.75418 8.47065 3.83541 8.47065C3.91665 8.47065 3.99462 8.43868 4.05247 8.38165L6 6.43341L7.94824 8.38165C8.00605 8.43847 8.08388 8.4703 8.16494 8.4703C8.24601 8.4703 8.32383 8.43847 8.38165 8.38165C8.43868 8.3238 8.47065 8.24582 8.47065 8.16459C8.47065 8.08335 8.43868 8.00538 8.38165 7.94753L6.43341 6H6.43412ZM6 12C4.4087 12 2.88258 11.3679 1.75736 10.2426C0.632141 9.11742 0 7.5913 0 6C0 4.4087 0.632141 2.88258 1.75736 1.75736C2.88258 0.632141 4.4087 0 6 0C7.5913 0 9.11742 0.632141 10.2426 1.75736C11.3679 2.88258 12 4.4087 12 6C12 7.5913 11.3679 9.11742 10.2426 10.2426C9.11742 11.3679 7.5913 12 6 12Z" fill="#FF5A5A"/>
</g>
<defs>
<clipPath id="clip0_317_136536">
<rect width="12" height="12" fill="white"/>
</clipPath>
</defs>
</svg>
