<?xml version="1.0" standalone="no"?><!DOCTYPE svg PUBLIC "-//W3C//DTD SVG 1.1//EN" "http://www.w3.org/Graphics/SVG/1.1/DTD/svg11.dtd"><svg t="1732870691501" class="icon" viewBox="0 0 1024 1024" version="1.1" xmlns="http://www.w3.org/2000/svg" p-id="19076" xmlns:xlink="http://www.w3.org/1999/xlink" width="200" height="200"><path d="M512 117.3504A266.6496 266.6496 0 0 0 245.3504 384v394.6496h533.3504V384A266.6496 266.6496 0 0 0 512 117.3504z m330.7008 661.2992h96v64H85.3504v-64h96V384a330.6496 330.6496 0 1 1 661.3504 0v394.6496z" fill="#5A5A5A" p-id="19077"></path><path d="M373.3504 810.6496v21.3504a138.6496 138.6496 0 1 0 277.3504 0v-21.3504a32 32 0 0 0-32-32H405.3504a32 32 0 0 0-32 32z m64.768 32h147.8144a74.7008 74.7008 0 0 1-147.8144 0z" fill="#5A5A5A" p-id="19078"></path></svg>