<?xml version="1.0" standalone="no"?><!DOCTYPE svg PUBLIC "-//W3C//DTD SVG 1.1//EN" "http://www.w3.org/Graphics/SVG/1.1/DTD/svg11.dtd"><svg t="1732503483106" class="icon" viewBox="0 0 1024 1024" version="1.1" xmlns="http://www.w3.org/2000/svg" p-id="3109" xmlns:xlink="http://www.w3.org/1999/xlink" width="200" height="200"><path d="M964.5170248 826.74036333a34.10723977 34.10723977 0 0 0-42.4007933-23.53295818 34.72925661 34.72925661 0 0 0-23.63662779 40.22373575c5.44264433 21.09672747 9.12290868 43.38565289 10.88528865 65.05256147H115.20528966c17.57196664-207.54618172 187.22697551-371.08469462 394.41031355-372.32872736H512c132.6968599 0 240.51305745-110.25243005 240.51305745-245.95570269C752.51305745 154.54783452 645.21520621 45.48760331 512 45.48760331 378.68112418 45.48760331 272.00528885 155.74003336 272.00528885 291.443306c0 81.79517385 39.39438057 153.01606611 98.74512458 197.64575175C182.38307479 550.35768616 45.48760331 731.26082645 45.48760331 943.7831401c0 19.17884308 15.13573594 34.67742178 33.95173534 34.67742178h865.12132271a34.2109094 34.2109094 0 0 0 33.89990052-34.72925569 448.73309081 448.73309081 0 0 0-13.94353708-117.04277767zM512.57018201 119.19656198c92.68046251 0 168.46281002 77.44105785 168.46281003 172.24674402s-75.78234752 171.57289237-168.46281002 171.57289235-168.4109752-76.76720621-168.4109752-171.57289235 75.16033068-172.246744 168.46281001-172.24674402z" p-id="3110"></path><path d="M615.63276857 598.52731432m21.99160578-21.99160575l0 0q21.99160485-21.99160485 43.98321061 0l187.33182419 187.33182508q21.99160485 21.99160485 0 43.98321062l0 0q-21.99160485 21.99160485-43.98321062 0l-187.33182418-187.33182507q-21.99160485-21.99160485 0-43.98321063Z" p-id="3111"></path><path d="M846.95590082 563.83471085m21.99160485 21.99160485l0 0q21.99160485 21.99160485 0 43.98321063l-187.33182416 187.33182418q-21.99160485 21.99160485-43.98321062-1e-8l0 0q-21.99160485-21.99160485 0-43.98320971l187.33182507-187.33182509q21.99160485-21.99160485 43.98320971 0Z" p-id="3112"></path></svg>