<?xml version="1.0" standalone="no"?><!DOCTYPE svg PUBLIC "-//W3C//DTD SVG 1.1//EN" "http://www.w3.org/Graphics/SVG/1.1/DTD/svg11.dtd"><svg t="1732867419746" class="icon" viewBox="0 0 1024 1024" version="1.1" xmlns="http://www.w3.org/2000/svg" p-id="17281" xmlns:xlink="http://www.w3.org/1999/xlink" width="200" height="200"><path d="M839.793778 921.827556a26.680889 26.680889 0 0 1-18.773334-45.511112l85.902223-85.902222-81.521778-81.521778a26.680889 26.680889 0 0 1 37.660444-37.717333l100.352 100.352a26.680889 26.680889 0 0 1 0 37.717333l-104.732444 104.732445a26.453333 26.453333 0 0 1-18.887111 7.850667z m-221.752889 0a26.567111 26.567111 0 0 1-18.830222-7.850667l-100.352-100.352a26.680889 26.680889 0 0 1 0-37.660445l104.732444-104.789333a26.680889 26.680889 0 0 1 37.717333 37.717333l-85.902222 85.902223 81.464889 81.521777a26.624 26.624 0 0 1-18.773333 45.511112zM442.254222 366.819556C256.682667 366.819556 56.888889 327.224889 56.888889 240.298667 56.888889 153.372444 256.682667 113.777778 442.254222 113.777778c185.628444 0 385.365333 39.594667 385.365334 126.520889 0 86.926222-199.68 126.520889-385.365334 126.520889z m0-199.68c-93.468444 0-181.020444 10.012444-246.499555 28.216888-70.314667 19.626667-85.504 40.789333-85.504 44.942223 0 4.209778 15.189333 25.372444 85.504 44.942222 65.536 18.204444 153.031111 28.273778 246.499555 28.273778 93.468444 0 181.020444-10.069333 246.499556-28.273778 70.314667-19.569778 85.560889-40.732444 85.560889-44.942222 0-4.152889-15.246222-25.315556-85.560889-44.942223-65.422222-18.204444-153.031111-28.273778-246.499556-28.273777z" p-id="17282"></path><path d="M442.254222 556.487111C256.682667 556.487111 56.888889 516.892444 56.888889 429.966222V246.101333a26.737778 26.737778 0 0 1 53.361778 0v183.921778c0 4.152889 15.189333 25.315556 85.504 44.942222 65.536 18.204444 153.031111 28.216889 246.499555 28.216889 93.468444 0 181.020444-10.012444 246.499556-28.273778 70.314667-19.569778 85.560889-40.732444 85.560889-44.942222V246.158222a26.737778 26.737778 0 0 1 53.304889 0v183.921778c0.056889 86.869333-199.68 126.464-385.365334 126.464z" p-id="17283"></path><path d="M442.254222 748.999111C256.682667 748.999111 56.888889 709.347556 56.888889 622.364444V438.613333a26.737778 26.737778 0 0 1 53.361778 0v183.864889c0 4.209778 15.189333 25.372444 85.504 44.942222 65.536 18.204444 153.031111 28.273778 246.499555 28.273778a26.737778 26.737778 0 0 1 0 53.361778z" p-id="17284"></path><path d="M442.254222 936.903111C256.682667 936.903111 56.888889 897.308444 56.888889 810.325333v-183.864889a26.737778 26.737778 0 0 1 53.361778 0v183.864889c0 4.209778 15.189333 25.372444 85.504 44.942223 65.536 18.204444 153.031111 28.273778 246.499555 28.273777a26.737778 26.737778 0 0 1 0 53.361778zM635.904 410.168889a26.510222 26.510222 0 1 0 53.020444 0 26.510222 26.510222 0 0 0-53.020444 0zM715.889778 921.827556a26.624 26.624 0 0 1-26.396445-30.435556l30.549334-216.576a26.624 26.624 0 1 1 52.792889 7.452444l-30.549334 216.632889a26.737778 26.737778 0 0 1-26.396444 22.926223zM800.995556 607.061333a26.737778 26.737778 0 0 1-26.624-26.680889V363.349333a26.737778 26.737778 0 0 1 53.304888 0v217.031111c0 14.791111-11.946667 26.737778-26.624 26.737778z" p-id="17285"></path></svg>