<svg width="33" height="33" viewBox="0 0 33 33" fill="none" xmlns="http://www.w3.org/2000/svg">
<g clip-path="url(#clip0_427_3187)">
<path d="M7.35939 12.2578C7.35939 11.5827 7.72581 10.9681 8.30054 10.6697L15.8758 6.27952L15.9514 6.23965C16.4051 6.02172 16.9276 6.0231 17.4508 6.28227L25.0294 10.7006C25.6275 10.9921 26.0091 11.6191 26.0091 12.3066L26.0228 21.1014C26.0228 21.7792 25.653 22.3979 25.1064 22.6757L17.3023 27.0356C17.0902 27.1445 16.8568 27.2056 16.6185 27.2147C16.3803 27.2237 16.1429 27.1804 15.9232 27.0879L15.8208 27.0384L3.19814 20.1265C2.59248 19.8406 2.19856 19.2081 2.19856 18.5048L2.22949 9.00947C2.22949 8.31925 2.6131 7.69159 3.14589 7.43516L15.8682 0.161729C16.3226 -0.0596358 16.8472 -0.0596358 17.3703 0.198165L29.8617 7.40079C30.4598 7.69159 30.8427 8.31925 30.8427 9.00947V23.588C30.8427 24.2706 30.4673 24.8921 29.9311 25.1595L17.2981 32.3642C17.084 32.4723 16.8486 32.5318 16.6089 32.5386C16.3691 32.5454 16.1307 32.4992 15.9108 32.4034L15.8187 32.358L8.16236 28.1438L4.93125 31.0326C4.25203 31.7063 3.1782 31.6788 2.53198 30.9707C2.22856 30.6347 2.06137 30.1976 2.06312 29.7449V24.3022C2.06312 23.6533 2.56566 23.128 3.18576 23.128C3.80586 23.128 4.3084 23.6533 4.3084 24.3022V28.5027L6.92079 26.1667C7.15376 25.9315 7.45232 25.7721 7.77738 25.7094C8.10244 25.6467 8.43886 25.6836 8.74258 25.8154L8.83401 25.86L16.5605 30.1127L28.5981 23.2477V9.34976L16.5859 2.42488L4.47339 9.34976L4.44452 18.1583L7.35939 19.7539V12.2578ZM10.154 17.8572H11.6863L14.0553 20.8731C14.1672 21.019 14.3077 21.1406 14.4681 21.2305C14.6284 21.3204 14.8055 21.3767 14.9883 21.396C15.1711 21.4153 15.356 21.3971 15.5316 21.3427C15.7072 21.2883 15.8699 21.1987 16.0098 21.0794C16.2339 20.8903 16.3948 20.6339 16.4718 20.3445L17.9567 14.7437L19.8218 17.8579H22.8962C23.451 17.8579 23.9006 17.3904 23.9006 16.8157C23.9006 16.2396 23.451 15.7735 22.8969 15.7735H20.9383L18.9151 12.3953C18.7342 12.09 18.4439 11.8651 18.1032 11.7662C17.3635 11.5552 16.599 12.0068 16.3955 12.7741L14.8535 18.59L12.6398 15.7735H10.1546C9.59985 15.7735 9.15025 16.2396 9.15025 16.8157C9.15025 17.3911 9.59985 17.8572 10.154 17.8572Z" fill="#6B05A8"/>
</g>
<defs>
<clipPath id="clip0_427_3187">
<rect width="33" height="33" fill="white"/>
</clipPath>
</defs>
</svg>
