<?xml version="1.0" standalone="no"?><!DOCTYPE svg PUBLIC "-//W3C//DTD SVG 1.1//EN" "http://www.w3.org/Graphics/SVG/1.1/DTD/svg11.dtd"><svg t="1732770277808" class="icon" viewBox="0 0 1024 1024" version="1.1" xmlns="http://www.w3.org/2000/svg" p-id="2431" width="200" height="200" xmlns:xlink="http://www.w3.org/1999/xlink"><path d="M512 115.3024c-166.7072 0-301.8752 135.168-301.8752 301.8752 0 114.176 63.3856 213.4016 156.7744 264.8064v108.2368c0 22.528 18.432 40.96 40.96 40.96h208.384c22.528 0 40.96-18.432 40.96-40.96V681.984c93.3888-51.3024 156.7744-150.6304 156.7744-264.8064-0.1024-166.7072-135.2704-301.8752-301.9776-301.8752z m104.1408 674.816l-208.2816 0.1024s-0.1024 0-0.1024-0.1024v-42.7008h208.384v42.7008z m21.2992-144.0768l-21.1968 11.6736v43.4176H407.8592v-43.4176l-21.1968-11.6736c-40.3456-22.1184-74.24-54.6816-98.0992-94.1056-24.4736-40.5504-37.4784-87.1424-37.4784-134.7584 0-35.2256 6.8608-69.4272 20.48-101.5808 13.1072-31.0272 31.9488-58.9824 55.9104-82.944 23.9616-23.9616 51.9168-42.8032 82.944-55.9104 32.1536-13.6192 66.3552-20.48 101.5808-20.48s69.4272 6.8608 101.5808 20.48c31.0272 13.1072 58.9824 31.9488 82.944 55.9104 23.9616 23.9616 42.8032 51.9168 55.9104 82.944 13.6192 32.1536 20.48 66.3552 20.48 101.5808 0 47.616-12.9024 94.208-37.4784 134.7584-23.7568 39.424-57.6512 71.9872-97.9968 94.1056zM592.6912 862.3104H431.3088c-11.264 0-20.48 9.216-20.48 20.48v5.4272c0 11.264 9.216 20.48 20.48 20.48h161.28c11.264 0 20.48-9.216 20.48-20.48v-5.4272c0.1024-11.264-9.1136-20.48-20.3776-20.48z" p-id="2432" fill="#ff0000"></path></svg>