<?xml version="1.0" standalone="no"?><!DOCTYPE svg PUBLIC "-//W3C//DTD SVG 1.1//EN" "http://www.w3.org/Graphics/SVG/1.1/DTD/svg11.dtd"><svg t="1732870494641" class="icon" viewBox="0 0 1024 1024" version="1.1" xmlns="http://www.w3.org/2000/svg" p-id="18784" xmlns:xlink="http://www.w3.org/1999/xlink" width="200" height="200"><path d="M170.666667 821.134222c0 5.290667 3.128889 14.677333 18.887111 27.249778 15.473778 12.344889 39.594667 24.689778 71.964444 35.612444 64.398222 21.731556 155.192889 35.726222 256.796445 35.726223 101.660444 0 192.455111-13.994667 256.853333-35.726223 32.369778-10.922667 56.490667-23.324444 71.964444-35.669333 15.758222-12.515556 18.830222-21.959111 18.830223-27.192889V249.742222h56.888889v571.448889c0 29.866667-17.92 53.873778-40.220445 71.68-22.584889 18.033778-53.532444 32.995556-89.258667 45.112889-71.68 24.177778-168.96 38.684444-275.057777 38.684444-106.097778 0-203.320889-14.506667-275.000889-38.684444-35.726222-12.060444-66.673778-27.079111-89.315556-45.112889-22.243556-17.806222-40.220444-41.813333-40.220444-71.68V249.742222h56.888889v571.448889z" p-id="18785"></path><path d="M260.209778 731.306667c64.853333 18.545778 156.103111 30.378667 258.104889 30.378666 102.001778 0 193.251556-11.832889 258.104889-30.378666 32.654222-9.329778 57.002667-19.911111 72.533333-30.378667 16.497778-11.150222 17.066667-17.863111 17.066667-18.261333h56.888888c0 29.240889-20.593778 50.858667-42.097777 65.422222-22.584889 15.189333-53.304889 27.818667-88.746667 37.888-71.224889 20.366222-167.992889 32.597333-273.749333 32.597333-105.699556 0-202.524444-12.231111-273.749334-32.597333-35.441778-10.126222-66.161778-22.698667-88.746666-37.888C134.371556 733.525333 113.777778 711.907556 113.777778 682.666667h56.888889c0 0.398222 0.512 7.111111 17.066666 18.204444 15.473778 10.524444 39.822222 21.105778 72.476445 30.435556zM260.209778 513.251556c64.853333 18.488889 156.16 30.378667 258.104889 30.378666 102.001778 0 193.251556-11.889778 258.161777-30.378666 32.597333-9.329778 56.945778-19.911111 72.476445-30.378667 16.497778-11.207111 17.066667-17.863111 17.066667-18.261333h56.888888c0 29.240889-20.536889 50.801778-42.097777 65.422222-22.528 15.189333-53.304889 27.761778-88.746667 37.888-71.224889 20.366222-167.992889 32.597333-273.749333 32.597333-105.699556 0-202.524444-12.231111-273.749334-32.597333-35.441778-10.126222-66.161778-22.755556-88.746666-37.944889C134.371556 515.413333 113.777778 493.852444 113.777778 464.554667h56.888889c0 0.455111 0.568889 7.111111 17.066666 18.318222 15.530667 10.467556 39.822222 21.048889 72.476445 30.378667zM187.733333 231.424c-16.497778 11.150222-17.066667 17.863111-17.066666 18.261333 0 0.398222 0.568889 7.111111 17.066666 18.204445 15.530667 10.524444 39.822222 21.048889 72.476445 30.435555 64.853333 18.545778 156.16 30.378667 258.104889 30.378667 102.001778 0 193.251556-11.832889 258.161777-30.378667 32.597333-9.329778 56.945778-19.911111 72.476445-30.378666 16.497778-11.150222 17.066667-17.863111 17.066667-18.204445 0-0.455111-0.568889-7.168-17.066667-18.318222-15.530667-10.467556-39.822222-21.048889-72.476445-30.378667C711.623111 182.499556 620.316444 170.666667 518.257778 170.666667c-101.944889 0-193.251556 11.832889-258.104889 30.378666-32.654222 9.329778-56.945778 19.911111-72.476445 30.378667z m56.888889-85.105778C315.790222 126.008889 412.558222 113.777778 518.257778 113.777778c105.756444 0 202.524444 12.231111 273.806222 32.540444 35.384889 10.126222 66.161778 22.755556 88.689778 37.944889 21.504 14.563556 42.097778 36.124444 42.097778 65.422222 0 29.297778-20.536889 50.858667-42.097778 65.422223-22.528 15.189333-53.304889 27.761778-88.746667 37.888-71.224889 20.366222-167.992889 32.597333-273.749333 32.597333-105.699556 0-202.524444-12.231111-273.749334-32.597333-35.441778-10.126222-66.161778-22.698667-88.746666-37.944889C134.371556 300.544 113.777778 278.983111 113.777778 249.742222c0-29.240889 20.536889-50.858667 42.097778-65.422222 22.528-15.189333 53.248-27.818667 88.746666-37.944889z" p-id="18786"></path><path d="M760.092444 445.781333a24.177778 24.177778 0 1 1-48.355555 0 24.177778 24.177778 0 0 1 48.355555 0zM760.092444 639.203556a24.177778 24.177778 0 1 1-48.355555 0 24.177778 24.177778 0 0 1 48.355555 0zM760.092444 832.625778a24.177778 24.177778 0 1 1-48.355555 0 24.177778 24.177778 0 0 1 48.355555 0z" p-id="18787"></path></svg>