<?xml version="1.0" standalone="no"?><!DOCTYPE svg PUBLIC "-//W3C//DTD SVG 1.1//EN" "http://www.w3.org/Graphics/SVG/1.1/DTD/svg11.dtd"><svg t="1732867052751" class="icon" viewBox="0 0 1024 1024" version="1.1" xmlns="http://www.w3.org/2000/svg" p-id="16836" xmlns:xlink="http://www.w3.org/1999/xlink" width="200" height="200"><path d="M975.075556 628.053333v169.585778c-2.958222 64.227556-85.276444 200.533333-192.967112 205.368889l-6.257777 0.170667c-110.648889 0-195.925333-140.117333-198.883556-205.539556l-0.056889-3.413333V628.053333l199.281778-79.928889 198.940444 79.928889z m-198.883556-31.118222l-155.079111 62.179556v136.419555c2.844444 62.179556 84.992 162.133333 153.770667 162.133334l5.290666-0.170667c68.551111-3.072 147.911111-101.546667 150.641778-160.995556v-137.386666l-154.624-62.179556z" p-id="16837"></path><path d="M776.192 548.067556l198.940444 79.928888v166.229334l-0.113777 3.413333c-2.844444 64.227556-85.219556 200.533333-192.910223 205.368889l-6.087111 0.170667v-45.511111l4.152889-0.170667c68.551111-3.072 147.911111-101.546667 150.641778-160.995556v-137.386666l-154.624-62.179556h-0.170667v-48.810667l0.170667-0.056888zM499.143111 309.930667C313.571556 309.930667 113.777778 270.336 113.777778 183.409778 113.777778 96.483556 313.571556 56.888889 499.143111 56.888889c185.628444 0 385.365333 39.594667 385.365333 126.520889 0 86.926222-199.68 126.520889-385.365333 126.520889z m0-199.736889c-93.468444 0-181.020444 10.012444-246.499555 28.273778-70.314667 19.569778-85.504 40.732444-85.504 44.942222 0 4.152889 15.189333 25.315556 85.504 44.942222 65.536 18.204444 153.031111 28.216889 246.499555 28.216889 93.468444 0 181.020444-10.012444 246.499556-28.273778 70.314667-19.569778 85.560889-40.732444 85.560889-44.942222 0-4.152889-15.246222-25.315556-85.560889-44.942222-65.422222-18.204444-152.974222-28.216889-246.499556-28.216889z" p-id="16838"></path><path d="M499.143111 499.598222C313.571556 499.598222 113.777778 460.003556 113.777778 373.077333V189.155556a26.737778 26.737778 0 0 1 53.361778 0v183.921777c0 4.152889 15.189333 25.315556 85.504 44.942223 65.536 18.204444 153.031111 28.273778 246.499555 28.273777 93.468444 0 181.020444-10.069333 246.499556-28.273777 70.314667-19.626667 85.560889-40.789333 85.560889-44.942223V189.155556a26.737778 26.737778 0 0 1 53.304888 0v183.921777c0.056889 86.926222-199.68 126.520889-385.365333 126.520889z" p-id="16839"></path><path d="M499.143111 692.053333C313.571556 692.053333 113.777778 652.458667 113.777778 565.475556V381.610667a26.737778 26.737778 0 0 1 53.361778 0V565.475556c0 4.152889 15.189333 25.315556 85.504 44.942222 65.536 18.204444 153.031111 28.216889 246.499555 28.216889a26.737778 26.737778 0 0 1 0 53.361777z" p-id="16840"></path><path d="M499.143111 880.014222C313.571556 880.014222 113.777778 840.419556 113.777778 753.493333v-183.921777a26.737778 26.737778 0 0 1 53.361778 0v183.864888c0 4.209778 15.189333 25.372444 85.504 44.942223 65.536 18.204444 153.031111 28.273778 246.499555 28.273777a26.737778 26.737778 0 0 1 0 53.361778zM692.792889 353.28a26.510222 26.510222 0 1 0 53.020444 0 26.510222 26.510222 0 0 0-53.020444 0zM782.563556 858.453333l-3.413334 0.170667a64.796444 64.796444 0 0 1-3.584 0.113778c-28.444444 0-49.777778-8.135111-63.886222-24.405334-13.994667-16.270222-21.048889-40.96-21.048889-73.955555 0-33.166222 7.054222-57.856 21.048889-74.126222 14.108444-16.270222 35.555556-24.462222 64.284444-24.462223 28.785778 0 50.176 8.192 64.170667 24.462223 14.108444 16.270222 21.219556 40.96 21.219556 74.069333 0 24.917333-3.982222 44.999111-11.832889 60.302222a64.512 64.512 0 0 1-35.328 31.857778l34.133333 24.177778-25.770667 12.743111-39.992888-30.890667z m42.723555-98.133333c0-27.875556-3.868444-47.786667-11.605333-59.733333-7.623111-11.946667-20.252444-17.92-37.774222-17.92-17.408 0-29.980444 5.973333-37.717334 17.92-7.68 11.946667-11.491556 31.857778-11.491555 59.733333s3.811556 47.672889 11.491555 59.676444c7.736889 11.946667 20.309333 17.92 37.717334 17.92 17.521778 0 30.151111-5.973333 37.774222-17.806222 7.736889-11.946667 11.605333-31.857778 11.605333-59.733333z" p-id="16841"></path><path d="M822.556444 889.400889l-39.992888-30.890667c-0.796444 0-1.934222 0-3.413334 0.113778a64.796444 64.796444 0 0 1-3.584 0.113778c-28.444444 0-49.777778-8.135111-63.886222-24.405334-13.994667-16.270222-21.048889-40.96-21.048889-73.955555 0-33.166222 7.054222-57.856 21.048889-74.126222 14.108444-16.270222 35.555556-24.462222 64.284444-24.462223 28.785778 0 50.176 8.192 64.170667 24.462223 14.108444 16.270222 21.219556 40.96 21.219556 74.069333 0 24.917333-3.982222 44.999111-11.832889 60.302222a64.568889 64.568889 0 0 1-35.328 31.857778l34.133333 24.177778-25.770667 12.743111z m13.198223-35.555556l34.759111 24.576-49.322667 24.291556-42.268444-32.711111a66.446222 66.446222 0 0 1-3.356445 0.113778c-30.663111 0-55.523556-8.817778-72.476444-28.330667-16.497778-19.171556-23.779556-47.047111-23.779556-81.464889s7.224889-62.293333 23.722667-81.521778c16.952889-19.512889 42.040889-28.330667 72.874667-28.330666 30.947556 0 55.978667 8.760889 72.817777 28.330666 16.668444 19.171556 24.007111 47.104 24.007111 81.521778 0 25.998222-4.096 48.071111-13.084444 65.422222a76.344889 76.344889 0 0 1-23.893333 28.103111z m-22.072889-153.258666c-7.623111-11.946667-20.252444-17.92-37.774222-17.92-17.408 0-29.980444 5.973333-37.717334 17.92-7.68 11.946667-11.491556 31.857778-11.491555 59.733333s3.811556 47.672889 11.491555 59.676444c7.736889 11.946667 20.309333 17.92 37.717334 17.92 17.521778 0 30.151111-5.973333 37.774222-17.806222 7.736889-11.946667 11.605333-31.857778 11.605333-59.733333s-3.868444-47.786667-11.605333-59.733333z m-65.991111 113.208889c-5.688889-9.102222-9.614222-26.168889-9.614223-53.475556 0-27.420444 3.868444-44.487111 9.671112-53.589333 5.12-7.964444 13.653333-12.686222 28.16-12.686223 14.734222 0 23.153778 4.778667 28.16 12.686223h0.056888c5.859556 9.102222 9.784889 26.168889 9.784889 53.589333 0 27.477333-3.982222 44.600889-9.784889 53.589333-5.063111 7.850667-13.482667 12.629333-28.216888 12.629334-14.506667 0-23.04-4.778667-28.16-12.743111z" p-id="16842"></path></svg>