<svg width="18" height="18" viewBox="0 0 18 18" fill="none" xmlns="http://www.w3.org/2000/svg">
<g clip-path="url(#clip0_2164_23202)">
<path d="M4.93028 2H13.3197C14.6066 2 15.25 2.66444 15.25 3.99332V14.0067C15.25 15.3356 14.6066 16 13.3197 16H4.93028C3.64343 16 3 15.3356 3 14.0067V3.99332C3 2.66444 3.64343 2 4.93028 2Z" fill="#45B99D" fill-opacity="0.72"/>
<path d="M11.5686 8.12501C7.22346 8.12501 3.62635 11.0939 3 14.965C3.1596 15.2748 3.41036 15.5364 3.7233 15.7196C4.03624 15.9027 4.39859 16 4.76851 16H13.2896C13.8095 15.9999 14.3081 15.8081 14.6757 15.4668C15.0434 15.1254 15.2499 14.6625 15.25 14.1797V8.88567C14.0982 8.38325 12.8411 8.1235 11.5686 8.12501Z" fill="#45B99D"/>
<path d="M6.45504 3.05301C6.583 3.2703 5.79558 3.21974 5.09143 3.70892C4.38728 4.1981 4.03295 5.04182 3.90499 4.82483C3.77704 4.60783 4.05769 3.71846 4.76184 3.22927C5.46599 2.74009 6.32576 2.83486 6.45504 3.05301ZM12.8882 5.98089H5.94509C5.60671 5.98089 5.33324 6.29585 5.33324 6.68505V11.1926C5.33324 11.5818 5.60751 11.8968 5.94509 11.8968H8.50923L8.31557 13.1473C8.30846 13.1732 8.30688 13.2005 8.31096 13.2271C8.31505 13.2537 8.32468 13.279 8.33913 13.301C8.35358 13.323 8.37247 13.341 8.39434 13.3539C8.41622 13.3667 8.4405 13.3739 8.46534 13.375H10.3695C10.4722 13.375 10.5475 13.2614 10.5195 13.1473L10.324 11.8947H12.8882C13.2265 11.8947 13.5 11.5798 13.5 11.1906V6.68303C13.5008 6.29585 13.2265 5.98089 12.8882 5.98089ZM6.44547 7.43082H8.51748C8.60983 7.43082 8.6984 7.47067 8.76371 7.5416C8.82901 7.61253 8.8657 7.70874 8.8657 7.80905C8.8657 7.90936 8.82901 8.00557 8.76371 8.0765C8.6984 8.14743 8.60983 8.18728 8.51748 8.18728H6.44547C6.35311 8.18728 6.26454 8.14743 6.19924 8.0765C6.13394 8.00557 6.09725 7.90936 6.09725 7.80905C6.09725 7.70874 6.13394 7.61253 6.19924 7.5416C6.26454 7.47067 6.35311 7.43082 6.44547 7.43082ZM10.8853 9.77677C10.8853 9.87708 10.8486 9.97328 10.7833 10.0442C10.718 10.1151 10.6294 10.155 10.5371 10.155H6.44547C6.35311 10.155 6.26454 10.1151 6.19924 10.0442C6.13394 9.97328 6.09725 9.87708 6.09725 9.77677C6.09725 9.67645 6.13394 9.58025 6.19924 9.50932C6.26454 9.43839 6.35311 9.39854 6.44547 9.39854H10.5371C10.6294 9.39854 10.718 9.43839 10.7833 9.50932C10.8486 9.58025 10.8853 9.67645 10.8853 9.77677Z" fill="white"/>
</g>
<defs>
<clipPath id="clip0_2164_23202">
<rect width="18" height="18" fill="white"/>
</clipPath>
</defs>
</svg>
