<?xml version="1.0" standalone="no"?><!DOCTYPE svg PUBLIC "-//W3C//DTD SVG 1.1//EN" "http://www.w3.org/Graphics/SVG/1.1/DTD/svg11.dtd"><svg t="1732865954003" class="icon" viewBox="0 0 1024 1024" version="1.1" xmlns="http://www.w3.org/2000/svg" p-id="16395" xmlns:xlink="http://www.w3.org/1999/xlink" width="200" height="200"><path d="M231.822222 156.444444c-9.728 0-17.863111 10.24-14.449778 20.764445C242.460444 255.658667 284.444444 402.261333 284.444444 512c0 109.795556-41.984 256.341333-67.128888 334.791111a15.872 15.872 0 0 0 14.506666 20.764445h560.355556c9.671111 0 17.806222-10.24 14.449778-20.764445-25.144889-78.449778-67.128889-225.052444-67.128889-334.791111 0-109.795556 41.984-256.341333 67.128889-334.791111a15.872 15.872 0 0 0-14.449778-20.764445h-560.355556z m-68.664889 38.115556c-14.734222-45.966222 19.000889-95.004444 68.664889-95.004444h560.355556c49.607111 0 83.342222 49.038222 68.608 95.004444C835.527111 273.408 796.444444 412.216889 796.444444 512s39.082667 238.592 64.284445 317.44c14.791111 45.966222-18.944 95.004444-68.551111 95.004444h-560.355556c-49.664 0-83.399111-49.038222-68.664889-95.004444C188.416 750.592 227.555556 611.783111 227.555556 512s-39.139556-238.592-64.398223-317.44z" p-id="16396"></path><path d="M90.737778 413.354667c-6.428444-33.28-16.099556-60.131556-28.16-76.288l45.511111-34.133334c19.911111 26.510222 31.573333 63.658667 38.513778 99.669334 7.054222 36.807111 9.841778 76.003556 9.841777 109.397333s-2.844444 72.590222-9.841777 109.340444c-6.940444 36.067556-18.659556 73.216-38.513778 99.726223l-45.511111-34.133334c12.060444-16.156444 21.731556-43.008 28.16-76.288 6.257778-32.540444 8.817778-68.039111 8.817778-98.645333s-2.616889-66.104889-8.817778-98.645333zM640 359.139556h-256v-56.888889h256v56.888889zM640 540.444444h-256v-56.888888h256v56.888888zM469.333333 711.111111h-85.333333v-56.888889h85.333333v56.888889zM877.397333 402.602667c6.940444-36.010667 18.602667-73.159111 38.513778-99.669334l45.511111 34.133334c-12.117333 16.156444-21.788444 43.008-28.16 76.288A540.16 540.16 0 0 0 924.444444 512c0 60.643556 10.069333 120.092444 39.651556 179.256889l-50.915556 25.486222c-34.360889-68.835556-45.624889-137.386667-45.624888-204.743111 0-33.393778 2.730667-72.590222 9.841777-109.397333z" p-id="16397"></path></svg>