<svg width="18" height="18" viewBox="0 0 18 18" fill="none" xmlns="http://www.w3.org/2000/svg">
<g clip-path="url(#clip0_2164_23213)">
<path d="M13.6668 12.5014C14.4259 11.4919 14.8354 10.2625 14.8334 8.9993C14.8336 8.23311 14.6828 7.47439 14.3898 6.76648C14.0968 6.05857 13.6672 5.41533 13.1256 4.87352C12.584 4.33171 11.941 3.90194 11.2333 3.60875C10.5256 3.31556 9.76705 3.16471 9.00105 3.1648C8.23493 3.16462 7.47629 3.31543 6.76846 3.60862C6.06064 3.90181 5.41751 4.33163 4.87581 4.87352C4.33412 5.41542 3.90448 6.05876 3.61145 6.7668C3.31842 7.47484 3.16774 8.23369 3.16801 9C3.16801 10.3174 3.6054 11.5347 4.34162 12.5105L4.44239 12.6442C4.53609 12.7664 4.579 12.9201 4.56218 13.0732C4.54536 13.2263 4.47011 13.367 4.35212 13.466L4.34722 13.4709C4.29118 13.5185 4.22629 13.5546 4.15627 13.5771C4.08625 13.5996 4.01248 13.608 3.9392 13.6019C3.86592 13.5958 3.79457 13.5752 3.72924 13.5415C3.66391 13.5077 3.60589 13.4614 3.55852 13.4051C2.54819 12.1601 1.99778 10.6049 2.00001 9.0014C2.00001 5.1332 5.13312 2 8.99895 2C12.8648 2 16 5.1325 16 8.9993C16.0027 10.5957 15.4572 12.1447 14.4548 13.3869L14.41 13.4317C14.3022 13.5405 14.1571 13.6043 14.004 13.6102C13.851 13.616 13.7014 13.5635 13.5856 13.4632C13.4721 13.3655 13.4019 13.2268 13.3905 13.0775C13.3791 12.9282 13.4273 12.7804 13.5247 12.6666L13.6668 12.5014ZM8.98495 5.4846C9.59401 5.48466 10.1925 5.64367 10.7213 5.94592C11.2501 6.24817 11.6909 6.6832 12.0002 7.20802C12.3095 7.73284 12.4765 8.3293 12.4848 8.93845C12.4931 9.5476 12.3423 10.1484 12.0474 10.6814L12.018 10.7388C11.9525 10.8713 11.8396 10.9744 11.7016 11.0276C11.5637 11.0807 11.4109 11.0801 11.2734 11.0258C11.1393 10.9733 11.0316 10.8697 10.9738 10.7378C10.9161 10.6059 10.9131 10.4564 10.9655 10.3223L11.1985 9.7252C11.3162 9.3733 11.3484 8.9984 11.2924 8.63159C11.2363 8.26477 11.0936 7.9166 10.8762 7.61595C10.6587 7.3153 10.3727 7.07084 10.042 6.90282C9.71118 6.73481 9.34513 6.64809 8.97415 6.64985C8.60316 6.65162 8.23795 6.74181 7.90878 6.91296C7.57961 7.08411 7.29597 7.33128 7.08138 7.63398C6.86679 7.93669 6.72744 8.28619 6.67487 8.65353C6.6223 9.02086 6.65803 9.39544 6.77911 9.7462L6.99745 10.3048C7.02426 10.3726 7.03739 10.4451 7.03609 10.518C7.03479 10.5909 7.01908 10.6628 6.98988 10.7296C6.96067 10.7965 6.91854 10.8568 6.86592 10.9073C6.81329 10.9578 6.7512 10.9973 6.68323 11.0237L6.67483 11.0272C6.53348 11.08 6.37714 11.0759 6.23875 11.0157C6.10037 10.9555 5.99076 10.844 5.93302 10.7045C5.63885 10.1793 5.48462 9.5873 5.48513 8.9853C5.48513 7.0533 7.05274 5.4853 8.98495 5.4853V5.4846ZM13.2119 15.4316C13.253 15.4831 13.2787 15.5451 13.2861 15.6105C13.2936 15.676 13.2824 15.7422 13.2539 15.8015C13.2254 15.8609 13.1807 15.911 13.125 15.9461C13.0693 15.9812 13.0048 15.9999 12.939 16H5.06314C4.99704 16.0001 4.93227 15.9815 4.87627 15.9464C4.82028 15.9113 4.77536 15.861 4.74668 15.8015C4.718 15.7419 4.70674 15.6754 4.7142 15.6098C4.72165 15.5441 4.74751 15.4818 4.78881 15.4302L8.72742 10.5064C8.76015 10.4652 8.80177 10.432 8.84915 10.4092C8.89654 10.3865 8.94846 10.3747 9.00104 10.3748C9.05361 10.375 9.10548 10.387 9.15274 10.41C9.20001 10.4331 9.24146 10.4665 9.27398 10.5078L13.2126 15.4323L13.2119 15.4316Z" fill="#1F72FE"/>
</g>
<defs>
<clipPath id="clip0_2164_23213">
<rect width="18" height="18" fill="white"/>
</clipPath>
</defs>
</svg>
