<svg width="18" height="18" viewBox="0 0 18 18" fill="none" xmlns="http://www.w3.org/2000/svg">
<g clip-path="url(#clip0_2164_23063)">
<path d="M4.20603 1H13.794C15.2647 1 16 1.75936 16 3.27808V14.7219C16 16.2406 15.2647 17 13.794 17H4.20603C2.73534 17 2 16.2406 2 14.7219V3.27808C2 1.75936 2.73534 1 4.20603 1Z" fill="white"/>
<path d="M11.7927 8.00001C6.82681 8.00001 2.71583 11.3931 2 15.8171C2.1824 16.1712 2.46898 16.4702 2.82662 16.6795C3.18427 16.8889 3.59839 16.9999 4.02115 17H13.7595C14.3537 16.9999 14.9236 16.7807 15.3437 16.3906C15.7639 16.0005 15.9999 15.4714 16 14.9197V8.86933C14.6837 8.29514 13.247 7.99828 11.7927 8.00001Z" fill="white"/>
<path d="M5.94862 2.20345C6.09485 2.45177 5.19495 2.39398 4.39021 2.95305C3.58547 3.51212 3.18051 4.47637 3.03428 4.22837C2.88805 3.98038 3.20879 2.96395 4.01353 2.40488C4.81827 1.84581 5.80087 1.95413 5.94862 2.20345ZM13.3008 5.54959H5.36581C4.9791 5.54959 4.66657 5.90954 4.66657 6.35435V11.5058C4.66657 11.9506 4.98001 12.3106 5.36581 12.3106H8.29627L8.07494 13.7398C8.06681 13.7694 8.06501 13.8005 8.06967 13.831C8.07434 13.8614 8.08535 13.8903 8.10187 13.9154C8.11838 13.9405 8.13997 13.9612 8.16496 13.9759C8.18996 13.9905 8.21772 13.9988 8.2461 14H10.4223C10.5396 14 10.6257 13.8702 10.5938 13.7398L10.3703 12.3083H13.3008C13.6875 12.3083 14 11.9483 14 11.5035V6.35204C14.0009 5.90954 13.6875 5.54959 13.3008 5.54959ZM5.93768 7.20665H8.30569C8.41124 7.20665 8.51246 7.25219 8.58709 7.33326C8.66173 7.41432 8.70365 7.52427 8.70365 7.63892C8.70365 7.75356 8.66173 7.86351 8.58709 7.94457C8.51246 8.02563 8.41124 8.07118 8.30569 8.07118H5.93768C5.83213 8.07118 5.73091 8.02563 5.65627 7.94457C5.58164 7.86351 5.53971 7.75356 5.53971 7.63892C5.53971 7.52427 5.58164 7.41432 5.65627 7.33326C5.73091 7.25219 5.83213 7.20665 5.93768 7.20665ZM11.0118 9.88773C11.0118 10.0024 10.9699 10.1123 10.8952 10.1934C10.8206 10.2745 10.7194 10.32 10.6138 10.32H5.93768C5.83213 10.32 5.73091 10.2745 5.65627 10.1934C5.58164 10.1123 5.53971 10.0024 5.53971 9.88773C5.53971 9.77309 5.58164 9.66314 5.65627 9.58208C5.73091 9.50101 5.83213 9.45547 5.93768 9.45547H10.6138C10.7194 9.45547 10.8206 9.50101 10.8952 9.58208C10.9699 9.66314 11.0118 9.77309 11.0118 9.88773Z" fill="#45B99D"/>
</g>
<defs>
<clipPath id="clip0_2164_23063">
<rect width="18" height="18" fill="white"/>
</clipPath>
</defs>
</svg>
