<svg width="18" height="18" viewBox="0 0 18 18" fill="none" xmlns="http://www.w3.org/2000/svg">
<g clip-path="url(#clip0_2164_23109)">
<path d="M17.1301 8.3693L13.2301 5.6693C12.9601 5.4893 12.6001 5.5493 12.4201 5.8193C12.2401 6.0893 12.3001 6.4493 12.5701 6.6293L15.8101 8.8793L9.0001 13.2893L2.1901 8.8793L5.4301 6.6293C5.7001 6.4493 5.7601 6.0893 5.5801 5.8193C5.4001 5.5493 5.0401 5.4893 4.7701 5.6693L0.870098 8.3693C0.660098 8.4893 0.600098 8.6993 0.600098 8.8793V15.4793C0.600098 16.2593 1.2001 16.9193 1.9801 16.9193H16.0501C16.8001 16.9193 17.4301 16.2593 17.4301 15.4793V8.9393V8.9093C17.4001 8.6993 17.3401 8.4893 17.1301 8.3693ZM16.2301 15.4793C16.2301 15.6293 16.1401 15.7493 16.0501 15.7493H1.9801C1.8901 15.7493 1.8001 15.6293 1.8001 15.4793V10.0193L8.7001 14.4893C8.9101 14.6093 9.1501 14.6093 9.3301 14.4893L16.2301 10.0193V15.4793Z" fill="#FFEDCC"/>
<path d="M11.7299 1.05078H6.2699C5.3699 1.05078 4.6499 1.77078 4.6499 2.67078V11.0408C4.6499 11.4608 4.8599 11.8508 5.2199 12.0608L8.3399 14.1008C8.5499 14.2208 8.7599 14.3108 8.9999 14.3108C9.2399 14.3108 9.4499 14.2508 9.6599 14.1008L12.7799 12.0608C13.1399 11.8208 13.3499 11.4608 13.3499 11.0408V2.70078C13.3499 1.80078 12.6299 1.05078 11.7299 1.05078ZM7.4399 4.05078H8.9999C9.3299 4.05078 9.5999 4.32078 9.5999 4.65078C9.5999 4.98078 9.3299 5.25078 8.9999 5.25078H7.4399C7.1099 5.25078 6.8399 4.98078 6.8399 4.65078C6.8399 4.29078 7.1099 4.05078 7.4399 4.05078ZM10.5599 7.56078H7.4399C7.1099 7.56078 6.8399 7.29078 6.8399 6.96078C6.8399 6.63078 7.1099 6.36078 7.4399 6.36078H10.5599C10.8899 6.36078 11.1599 6.63078 11.1599 6.96078C11.1599 7.29078 10.8899 7.56078 10.5599 7.56078Z" fill="white"/>
</g>
<defs>
<clipPath id="clip0_2164_23109">
<rect width="18" height="18" fill="white"/>
</clipPath>
</defs>
</svg>
