<svg width="18" height="18" viewBox="0 0 18 18" fill="none" xmlns="http://www.w3.org/2000/svg">
<g clip-path="url(#clip0_2164_23076)">
<path d="M14.3335 13.0016C15.201 11.8479 15.669 10.4428 15.6667 8.9992C15.6669 8.12355 15.4947 7.25644 15.1598 6.4474C14.8249 5.63836 14.3339 4.90324 13.715 4.28403C13.096 3.66481 12.3611 3.17364 11.5523 2.83857C10.7435 2.5035 9.87663 2.33109 9.0012 2.3312C8.12564 2.33099 7.25862 2.50335 6.44967 2.83842C5.64073 3.17349 4.90572 3.66472 4.28664 4.28403C3.66756 4.90333 3.17655 5.63859 2.84166 6.44777C2.50677 7.25696 2.33456 8.12422 2.33487 9C2.33487 10.5056 2.83475 11.8968 3.67614 13.012L3.79131 13.1648C3.89838 13.3045 3.94743 13.4801 3.9282 13.6551C3.90898 13.8301 3.82298 13.9909 3.68813 14.104L3.68253 14.1096C3.61849 14.164 3.54433 14.2053 3.46431 14.231C3.38428 14.2566 3.29998 14.2663 3.21623 14.2593C3.13248 14.2523 3.05093 14.2288 2.97627 14.1902C2.90161 14.1516 2.83531 14.0987 2.78116 14.0344C1.62651 12.6116 0.997458 10.8342 1.00001 9.0016C1.00001 4.5808 4.58071 1 8.9988 1C13.4169 1 17 4.58 17 8.9992C17.0031 10.8237 16.3797 12.5939 15.234 14.0136L15.1828 14.0648C15.0596 14.1892 14.8938 14.2621 14.7189 14.2688C14.5439 14.2755 14.373 14.2154 14.2407 14.1008C14.1109 13.9892 14.0308 13.8307 14.0177 13.66C14.0047 13.4893 14.0598 13.3204 14.1711 13.1904L14.3335 13.0016ZM8.9828 4.9824C9.67887 4.98247 10.3629 5.1642 10.9672 5.50963C11.5716 5.85506 12.0754 6.35223 12.4288 6.95202C12.7823 7.55182 12.9732 8.23348 12.9826 8.92965C12.9921 9.62583 12.8198 10.3124 12.4827 10.9216L12.4491 10.9872C12.3743 11.1387 12.2452 11.2565 12.0876 11.3172C11.93 11.378 11.7553 11.3773 11.5981 11.3152C11.4449 11.2552 11.3218 11.1368 11.2558 10.9861C11.1898 10.8353 11.1864 10.6645 11.2462 10.5112L11.5126 9.8288C11.6471 9.42663 11.6839 8.99818 11.6198 8.57896C11.5558 8.15974 11.3927 7.76183 11.1442 7.41823C10.8957 7.07463 10.5689 6.79524 10.1908 6.60323C9.81278 6.41121 9.39443 6.3121 8.97045 6.31412C8.54647 6.31613 8.12908 6.41921 7.75289 6.61481C7.3767 6.81041 7.05254 7.0929 6.80729 7.43884C6.56205 7.78478 6.40279 8.18422 6.34271 8.60403C6.28263 9.02384 6.32347 9.45193 6.46184 9.8528L6.71137 10.4912C6.74201 10.5687 6.75701 10.6515 6.75553 10.7348C6.75404 10.8182 6.7361 10.9004 6.70272 10.9767C6.66934 11.0531 6.62119 11.1221 6.56105 11.1798C6.5009 11.2375 6.42995 11.2827 6.35226 11.3128L6.34267 11.3168C6.18112 11.3772 6.00244 11.3725 5.84429 11.3037C5.68614 11.2349 5.56086 11.1074 5.49488 10.948C5.15869 10.3478 4.98242 9.6712 4.98301 8.9832C4.98301 6.7752 6.77456 4.9832 8.9828 4.9832V4.9824ZM13.8136 16.3504C13.8605 16.4092 13.89 16.4801 13.8984 16.5549C13.9069 16.6297 13.8942 16.7053 13.8616 16.7732C13.829 16.841 13.7779 16.8983 13.7143 16.9384C13.6506 16.9786 13.5769 16.9999 13.5017 17H4.50073C4.42519 17.0001 4.35116 16.9789 4.28717 16.9387C4.22318 16.8986 4.17184 16.8412 4.13906 16.7731C4.10629 16.705 4.09342 16.6291 4.10194 16.554C4.11046 16.4789 4.14002 16.4078 4.18721 16.3488L8.68848 10.7216C8.72588 10.6746 8.77345 10.6366 8.8276 10.6106C8.88176 10.5845 8.9411 10.5711 9.00119 10.5712C9.06127 10.5714 9.12054 10.5851 9.17456 10.6115C9.22858 10.6378 9.27595 10.676 9.31312 10.7232L13.8144 16.3512L13.8136 16.3504Z" fill="white"/>
</g>
<defs>
<clipPath id="clip0_2164_23076">
<rect width="18" height="18" fill="white"/>
</clipPath>
</defs>
</svg>
