<svg width="18" height="18" viewBox="0 0 18 18" fill="none" xmlns="http://www.w3.org/2000/svg">
<g clip-path="url(#clip0_2164_29178)">
<path d="M15.7504 8.45723L12.5062 6.07515C12.2816 5.91635 11.9822 5.96928 11.8324 6.20749C11.6827 6.4457 11.7326 6.76331 11.9572 6.92211L14.6524 8.90717L8.98752 12.7979L3.32264 8.90717L6.01783 6.92211C6.24242 6.76331 6.29234 6.4457 6.1426 6.20749C5.99287 5.96928 5.6934 5.91635 5.46881 6.07515L2.2246 8.45723C2.04991 8.5631 2 8.74837 2 8.90717V14.73C2 15.4182 2.49911 16.0005 3.14795 16.0005H14.852C15.4759 16.0005 16 15.4182 16 14.73V8.96011V8.93364C15.975 8.74837 15.9251 8.5631 15.7504 8.45723ZM15.0018 14.73C15.0018 14.8624 14.9269 14.9682 14.852 14.9682H3.14795C3.07308 14.9682 2.99822 14.8624 2.99822 14.73V9.91294L8.73797 13.8566C8.91266 13.9625 9.1123 13.9625 9.26203 13.8566L15.0018 9.91294V14.73Z" fill="#FFA401" fill-opacity="0.7"/>
<path d="M11.2581 2H6.71625C5.96758 2 5.36865 2.63522 5.36865 3.42925V10.8137C5.36865 11.1842 5.54334 11.5283 5.84281 11.7136L8.43817 13.5134C8.61286 13.6192 8.78755 13.6986 8.98719 13.6986C9.18683 13.6986 9.36152 13.6457 9.53621 13.5134L12.1316 11.7136C12.431 11.5018 12.6057 11.1842 12.6057 10.8137V3.45571C12.6057 2.66169 12.0068 2 11.2581 2ZM7.68951 4.64675H8.98719C9.2617 4.64675 9.4863 4.88496 9.4863 5.1761C9.4863 5.46724 9.2617 5.70545 8.98719 5.70545H7.68951C7.415 5.70545 7.1904 5.46724 7.1904 5.1761C7.1904 4.85849 7.415 4.64675 7.68951 4.64675ZM10.2849 7.74345H7.68951C7.415 7.74345 7.1904 7.50524 7.1904 7.2141C7.1904 6.92296 7.415 6.68475 7.68951 6.68475H10.2849C10.5594 6.68475 10.784 6.92296 10.784 7.2141C10.784 7.50524 10.5594 7.74345 10.2849 7.74345Z" fill="#FFA401"/>
</g>
<defs>
<clipPath id="clip0_2164_29178">
<rect width="18" height="18" fill="white"/>
</clipPath>
</defs>
</svg>
