<svg width="18" height="18" viewBox="0 0 18 18" fill="none" xmlns="http://www.w3.org/2000/svg">
<g clip-path="url(#clip0_2164_23740)">
<path d="M4.53779 3.20898H13.3831C14.4923 3.20898 15.0469 3.76357 15.0469 4.87275C15.0469 5.98193 14.4923 6.53652 13.3831 6.53652H4.53779C3.42861 6.53652 2.87402 5.98193 2.87402 4.87275C2.87402 3.76357 3.42861 3.20898 4.53779 3.20898Z" fill="#6366F1"/>
<path d="M4.53779 7.35742H13.3831C14.4923 7.35742 15.0469 7.91201 15.0469 9.02119C15.0469 10.1304 14.4923 10.685 13.3831 10.685H4.53779C3.42861 10.685 2.87402 10.1304 2.87402 9.02119C2.87402 7.91201 3.42861 7.35742 4.53779 7.35742Z" fill="#6366F1"/>
<path d="M4.53779 11.4512H13.3831C14.4923 11.4512 15.0469 12.0058 15.0469 13.1149C15.0469 14.2241 14.4923 14.7787 13.3831 14.7787H4.53779C3.42861 14.7787 2.87402 14.2241 2.87402 13.1149C2.87402 12.0058 3.42861 11.4512 4.53779 11.4512Z" fill="#6366F1"/>
<path d="M12.6914 4.87305C12.6914 5.05953 12.7655 5.23837 12.8973 5.37023C13.0292 5.50209 13.2081 5.57617 13.3945 5.57617C13.581 5.57617 13.7599 5.50209 13.8917 5.37023C14.0236 5.23837 14.0977 5.05953 14.0977 4.87305C14.0977 4.68657 14.0236 4.50772 13.8917 4.37586C13.7599 4.244 13.581 4.16992 13.3945 4.16992C13.2081 4.16992 13.0292 4.244 12.8973 4.37586C12.7655 4.50772 12.6914 4.68657 12.6914 4.87305Z" fill="white"/>
<path d="M12.6914 9.01758C12.6914 9.20406 12.7655 9.3829 12.8973 9.51476C13.0292 9.64662 13.2081 9.7207 13.3945 9.7207C13.581 9.7207 13.7599 9.64662 13.8917 9.51476C14.0236 9.3829 14.0977 9.20406 14.0977 9.01758C14.0977 8.8311 14.0236 8.65226 13.8917 8.52039C13.7599 8.38853 13.581 8.31445 13.3945 8.31445C13.2081 8.31445 13.0292 8.38853 12.8973 8.52039C12.7655 8.65226 12.6914 8.8311 12.6914 9.01758Z" fill="white"/>
<path d="M12.6914 13.1133C12.6914 13.2998 12.7655 13.4786 12.8973 13.6105C13.0292 13.7423 13.2081 13.8164 13.3945 13.8164C13.581 13.8164 13.7599 13.7423 13.8917 13.6105C14.0236 13.4786 14.0977 13.2998 14.0977 13.1133C14.0977 12.9268 14.0236 12.748 13.8917 12.6161C13.7599 12.4842 13.581 12.4102 13.3945 12.4102C13.2081 12.4102 13.0292 12.4842 12.8973 12.6161C12.7655 12.748 12.6914 12.9268 12.6914 13.1133Z" fill="white"/>
<path d="M4.81836 4.16992H8.26174C8.73049 4.16992 8.96486 4.4043 8.96486 4.87305C8.96486 5.3418 8.73049 5.57617 8.26174 5.57617H4.81836C4.34961 5.57617 4.11523 5.3418 4.11523 4.87305C4.11523 4.4043 4.34961 4.16992 4.81836 4.16992Z" fill="#C5C6FA"/>
<path d="M4.81641 8.2793H8.25979C8.72854 8.2793 8.96291 8.51367 8.96291 8.98242C8.96291 9.45117 8.72854 9.68555 8.25979 9.68555H4.81641C4.34766 9.68555 4.11328 9.45117 4.11328 8.98242C4.11328 8.51367 4.34766 8.2793 4.81641 8.2793Z" fill="#C5C6FA"/>
<path d="M4.81641 12.3926H8.25979C8.72854 12.3926 8.96291 12.627 8.96291 13.0957C8.96291 13.5645 8.72854 13.7988 8.25979 13.7988H4.81641C4.34766 13.7988 4.11328 13.5645 4.11328 13.0957C4.11328 12.627 4.34766 12.3926 4.81641 12.3926Z" fill="#C5C6FA"/>
</g>
<defs>
<clipPath id="clip0_2164_23740">
<rect width="18" height="18" fill="white"/>
</clipPath>
</defs>
</svg>
