<svg width="16" height="16" viewBox="0 0 16 16" fill="none" xmlns="http://www.w3.org/2000/svg">
<g clip-path="url(#clip0_1172_52508)">
<path d="M1.20624 8.00078C1.20624 8.89295 1.38196 9.77638 1.72338 10.6006C2.0648 11.4249 2.56522 12.1738 3.19608 12.8047C3.82694 13.4355 4.57588 13.936 5.40013 14.2774C6.22439 14.6188 7.10782 14.7945 7.99999 14.7945C8.89216 14.7945 9.77559 14.6188 10.5998 14.2774C11.4241 13.936 12.173 13.4355 12.8039 12.8047C13.4348 12.1738 13.9352 11.4249 14.2766 10.6006C14.618 9.77638 14.7937 8.89295 14.7937 8.00078C14.7937 6.19897 14.078 4.47095 12.8039 3.19687C11.5298 1.9228 9.8018 1.20703 7.99999 1.20703C6.19817 1.20703 4.47016 1.9228 3.19608 3.19687C1.92201 4.47095 1.20624 6.19897 1.20624 8.00078Z" fill="#3DCD58"/>
<path d="M6 10.8985V5.10162C6.00031 5.08342 6.00691 5.06561 6.01911 5.05C6.03131 5.0344 6.04869 5.02155 6.06947 5.01277C6.09024 5.00399 6.11368 4.9996 6.1374 5.00003C6.16111 5.00046 6.18425 5.00571 6.20446 5.01524L11.9405 7.91519C11.9588 7.92446 11.9738 7.93707 11.9842 7.95188C11.9946 7.96669 12 7.98324 12 8.00005C12 8.01687 11.9946 8.03342 11.9842 8.04823C11.9738 8.06304 11.9588 8.07564 11.9405 8.08492L6.20423 10.9849C6.18402 10.9944 6.16091 10.9996 6.13723 11C6.11355 11.0004 6.09015 10.996 6.06941 10.9872C6.04866 10.9784 6.03132 10.9656 6.01913 10.95C6.00694 10.9344 6.00034 10.9167 6 10.8985Z" fill="white"/>
</g>
<defs>
<clipPath id="clip0_1172_52508">
<rect width="16" height="16" fill="white"/>
</clipPath>
</defs>
</svg>
