<svg width="18" height="18" viewBox="0 0 18 18" fill="none" xmlns="http://www.w3.org/2000/svg">
<g id="pingtaiyonghuhangweifenxi-xian 1" clip-path="url(#clip0_187_1528)">
<path id="Vector" d="M3.05 3.25901C4.44809 1.86142 6.33153 1.05718 8.30791 1.01387C10.2843 0.970555 12.2011 1.6915 13.6591 3.0265C15.1171 4.3615 16.0037 6.20758 16.1343 8.18011C16.2649 10.1526 15.6293 12.0995 14.36 13.615L16.329 15.585C16.3931 15.6474 16.4441 15.7219 16.4792 15.8042C16.5142 15.8865 16.5326 15.9749 16.5332 16.0643C16.5338 16.1538 16.5166 16.2424 16.4826 16.3252C16.4486 16.4079 16.3985 16.483 16.3352 16.5463C16.272 16.6095 16.1968 16.6595 16.114 16.6934C16.0312 16.7273 15.9425 16.7444 15.8531 16.7437C15.7637 16.743 15.6753 16.7246 15.593 16.6894C15.5108 16.6543 15.4363 16.6032 15.374 16.539L13.404 14.571C11.8874 15.8338 9.94264 16.464 7.9736 16.3307C6.00456 16.1973 4.16254 15.3107 2.83004 13.8549C1.49754 12.3991 0.776949 10.486 0.817909 8.51291C0.858869 6.53978 1.65823 4.65825 3.05 3.25901ZM12.95 4.21301C12.3626 3.62561 11.6652 3.15965 10.8978 2.84175C10.1303 2.52385 9.30771 2.36023 8.477 2.36023C7.64628 2.36023 6.82371 2.52385 6.05623 2.84175C5.28875 3.15965 4.5914 3.62561 4.004 4.21301C3.41659 4.80041 2.95064 5.49776 2.63274 6.26524C2.31484 7.03272 2.15122 7.8553 2.15122 8.68601C2.15122 9.51672 2.31484 10.3393 2.63274 11.1068C2.95064 11.8743 3.41659 12.5716 4.004 13.159C5.19031 14.3452 6.79924 15.0115 8.47685 15.0114C10.1545 15.0113 11.7633 14.3448 12.9495 13.1585C14.1357 11.9722 14.802 10.3633 14.8019 8.68566C14.8018 7.00805 14.1353 5.39919 12.949 4.21301H12.95ZM11.984 5.68501C12.271 5.86501 12.374 6.22701 12.242 6.52801L12.195 6.61601L10.225 9.74001C10.1422 9.87138 10.0166 9.97017 9.86937 10.0197C9.72219 10.0693 9.56241 10.0665 9.417 10.012L9.321 9.96701L7.44 8.89801L5.91 11.463C5.82701 11.602 5.69682 11.7066 5.54318 11.7576C5.38953 11.8086 5.22266 11.8028 5.073 11.741L4.984 11.696C4.84522 11.6131 4.74082 11.483 4.6898 11.3296C4.63878 11.1762 4.64453 11.0096 4.706 10.86L4.75 10.77L6.62 7.64001C6.70069 7.50424 6.82644 7.40107 6.97535 7.34844C7.12426 7.29582 7.28692 7.29708 7.435 7.35201L7.533 7.39801L9.428 8.47401L11.054 5.89601C11.1495 5.74485 11.301 5.63773 11.4754 5.59817C11.6497 5.55862 11.8326 5.58985 11.984 5.68501Z" fill="#898686"/>
</g>
<defs>
<clipPath id="clip0_187_1528">
<rect width="18" height="18" fill="white"/>
</clipPath>
</defs>
</svg>
