<?xml version="1.0" standalone="no"?><!DOCTYPE svg PUBLIC "-//W3C//DTD SVG 1.1//EN" "http://www.w3.org/Graphics/SVG/1.1/DTD/svg11.dtd"><svg t="1732870440862" class="icon" viewBox="0 0 1024 1024" version="1.1" xmlns="http://www.w3.org/2000/svg" p-id="18638" xmlns:xlink="http://www.w3.org/1999/xlink" width="200" height="200"><path d="M237.056 426.666667a23.722667 23.722667 0 0 0-23.722667 23.722666v364.999111c0 13.084444 10.638222 23.722667 23.722667 23.722667h521.443556c13.084444 0 23.722667-10.638222 23.722666-23.722667V450.389333a23.722667 23.722667 0 0 0-23.722666-23.722666H237.056z m-80.611556 23.722666c0-44.544 36.067556-80.611556 80.611556-80.611555h521.443556c44.544 0 80.611556 36.067556 80.611555 80.611555v364.999111c0 44.544-36.067556 80.611556-80.611555 80.611556H237.056a80.611556 80.611556 0 0 1-80.611556-80.611556V450.389333z" p-id="18639"></path><path d="M497.777778 113.777778C425.927111 113.777778 369.777778 162.645333 369.777778 241.777778V398.222222h-56.888889V241.777778C312.888889 128.910222 396.856889 56.888889 497.777778 56.888889S682.666667 128.910222 682.666667 241.777778V398.222222h-56.888889V241.777778C625.777778 162.645333 569.628444 113.777778 497.777778 113.777778zM469.333333 658.944h56.888889v-52.110222h-56.888889v52.110222zM0 658.944v-312.888889h56.888889v312.888889H0zM938.666667 658.944v-312.888889h56.888889v312.888889h-56.888889z" p-id="18640"></path></svg>