<svg width="24" height="24" viewBox="0 0 24 24" fill="none" xmlns="http://www.w3.org/2000/svg">
<g clip-path="url(#clip0_1204_7227)">
<path d="M11.9999 5.63188L18.6921 8.5L11.9999 11.368L5.30786 8.5L11.9999 5.63188ZM12.3938 4.16875C12.1423 4.06094 11.8575 4.06094 11.606 4.16875L3.64464 7.58088C2.83654 7.92722 2.83656 9.07284 3.64466 9.41916L11.606 12.8311C11.8575 12.9389 12.1423 12.9389 12.3938 12.8311L20.3553 9.41917C21.1634 9.07284 21.1634 7.92721 20.3553 7.58087L12.3938 4.16875Z" fill="#898989"/>
<path d="M20.6871 12.1994C20.8532 12.5789 20.6801 13.0211 20.3006 13.1872L12.7014 16.5118C12.2543 16.7074 11.7457 16.7074 11.2986 16.5118L3.6994 13.1872C3.31991 13.0211 3.14687 12.5789 3.31289 12.1994C3.47892 11.8199 3.92114 11.6469 4.30062 11.8129L11.8998 15.1376C11.9637 15.1655 12.0363 15.1655 12.1002 15.1376L19.6994 11.8129C20.0789 11.6469 20.5211 11.8199 20.6871 12.1994Z" fill="#898989"/>
<path d="M20.6871 15.6994C20.8532 16.0789 20.6801 16.5211 20.3006 16.6872L12.7014 20.0118C12.2543 20.2074 11.7457 20.2074 11.2986 20.0118L3.69939 16.6872C3.31991 16.5211 3.14687 16.0789 3.31289 15.6994C3.47892 15.3199 3.92114 15.1469 4.30062 15.3129L11.8998 18.6376C11.9637 18.6655 12.0363 18.6655 12.1002 18.6376L19.6994 15.3129C20.0789 15.1469 20.5211 15.3199 20.6871 15.6994Z" fill="#898989"/>
</g>
<defs>
<clipPath id="clip0_1204_7227">
<rect width="24" height="24" fill="white"/>
</clipPath>
</defs>
</svg>
