<svg width="22" height="22" viewBox="0 0 22 22" fill="none" xmlns="http://www.w3.org/2000/svg">
<g clip-path="url(#clip0_1204_7219)">
<path d="M2.78125 17.1H18.2188C19.2608 17.1 20.1 16.2091 20.1 15.125V4.875C20.1 3.79092 19.2608 2.9 18.2188 2.9H2.78125C1.73919 2.9 0.9 3.79092 0.9 4.875V15.125C0.9 16.2091 1.73919 17.1 2.78125 17.1ZM2.43391 4.50193C2.52694 4.404 2.652 4.35 2.78125 4.35H18.2188C18.348 4.35 18.4731 4.404 18.5661 4.50193C18.6593 4.60004 18.7125 4.73415 18.7125 4.875V15.125C18.7125 15.4184 18.4853 15.65 18.2188 15.65H2.78125C2.652 15.65 2.52694 15.596 2.43391 15.4981C2.3407 15.4 2.2875 15.2658 2.2875 15.125V4.875C2.2875 4.73415 2.3407 4.60004 2.43391 4.50193Z" fill="#898989" stroke="#898989" stroke-width="0.2"/>
<path d="M10.5141 12.1C10.6546 12.1008 10.7903 12.052 10.9035 11.9626C10.9036 11.9625 10.9037 11.9624 10.9038 11.9623L16.8124 7.35613L16.8124 7.35616L16.8147 7.35424C16.9607 7.23317 17.0575 7.05335 17.0889 6.85514C17.1203 6.6569 17.0847 6.45123 16.9878 6.28104C16.8908 6.11063 16.738 5.98644 16.5583 5.94107C16.3778 5.89551 16.1904 5.93467 16.0372 6.04657L16.0372 6.04653L16.0347 6.04846L10.5144 10.3515L4.99532 6.04935C4.92036 5.98748 4.83463 5.94295 4.74292 5.91933C4.65066 5.89557 4.55503 5.89368 4.46202 5.91385C4.36907 5.93399 4.28151 5.97555 4.20434 6.03511C4.12723 6.09462 4.06211 6.17084 4.01216 6.25857C3.96221 6.3463 3.9282 6.44415 3.91164 6.5463C3.89507 6.64844 3.8962 6.75337 3.91497 6.85504C3.93373 6.95671 3.96987 7.05362 4.02176 7.13996C4.07336 7.22583 4.13975 7.29987 4.21768 7.35706L10.1255 11.9627C10.2388 12.0513 10.3741 12.1 10.5141 12.1ZM10.5141 12.1C10.514 12.1 10.5139 12.1 10.5138 12.1L10.5144 12L10.5145 12.1C10.5144 12.1 10.5142 12.1 10.5141 12.1Z" fill="#898989" stroke="#898989" stroke-width="0.2"/>
</g>
<defs>
<clipPath id="clip0_1204_7219">
<rect width="22" height="22" fill="white"/>
</clipPath>
</defs>
</svg>
