<svg width="24" height="24" viewBox="0 0 24 24" fill="none" xmlns="http://www.w3.org/2000/svg">
<g clip-path="url(#clip0_1204_7224)">
<path d="M9.77985 18.0721C9.52785 18.0721 9.27585 17.9401 9.14385 17.7121L3.03585 7.82413V17.3281C3.03585 17.7481 2.69985 18.0721 2.29185 18.0721C1.88385 18.0721 1.54785 17.7361 1.54785 17.3281V5.18413C1.54785 4.84813 1.77585 4.56013 2.08785 4.46413C2.41185 4.36813 2.74785 4.50013 2.92785 4.78813L9.03585 14.6761V5.18413C9.03585 4.76413 9.37185 4.44013 9.77985 4.44013C10.1879 4.44013 10.5239 4.77613 10.5239 5.18413V17.3281C10.5239 17.6641 10.2959 17.9521 9.98385 18.0481C9.92385 18.0601 9.85185 18.0721 9.77985 18.0721ZM16.5119 18.0001C15.3119 18.0001 14.1839 17.5321 13.3319 16.6801C12.4799 15.8281 12.0119 14.7001 12.0119 13.5001V9.00013C12.0119 7.80013 12.4799 6.67213 13.3319 5.82013C15.0359 4.11613 17.9999 4.11613 19.6919 5.82013C20.5439 6.67213 21.0119 7.80013 21.0119 9.00013V13.5001C21.0119 14.7001 20.5439 15.8281 19.6919 16.6801C18.8399 17.5321 17.7119 18.0001 16.5119 18.0001ZM16.5119 6.00013C15.7079 6.00013 14.9519 6.31213 14.3879 6.87613C13.8239 7.44013 13.5119 8.19613 13.5119 9.00013V13.5001C13.5119 14.3041 13.8239 15.0601 14.3879 15.6241C15.5279 16.7521 17.4959 16.7641 18.6359 15.6241C19.1999 15.0601 19.5119 14.3041 19.5119 13.5001V9.00013C19.5119 8.19613 19.1999 7.44013 18.6359 6.87613C18.0719 6.31213 17.3159 6.00013 16.5119 6.00013Z" fill="#898989"/>
<path d="M22.8721 18.0001C23.4961 18.0001 24.0001 17.4961 24.0001 16.8721C24.0001 16.2481 23.4961 15.7441 22.8721 15.7441C22.2481 15.7441 21.7441 16.2481 21.7441 16.8721C21.7441 17.4961 22.2481 18.0001 22.8721 18.0001Z" fill="#898989"/>
</g>
<defs>
<clipPath id="clip0_1204_7224">
<rect width="24" height="24" fill="white"/>
</clipPath>
</defs>
</svg>
