<svg width="24" height="24" viewBox="0 0 24 24" fill="none" xmlns="http://www.w3.org/2000/svg">
<g clip-path="url(#clip0_1204_7237)">
<path d="M14.7616 6H9.23858C9.06766 5.99986 8.90191 5.94134 8.76879 5.83413C8.63567 5.72692 8.54316 5.57746 8.50658 5.4105L7.51808 0.9105C7.4941 0.801029 7.49495 0.687574 7.52058 0.578477C7.54621 0.469379 7.59596 0.367412 7.66618 0.280071C7.7364 0.192729 7.8253 0.122234 7.92635 0.073767C8.02739 0.0253001 8.13801 9.34178e-05 8.25008 0L15.7501 0C15.8623 0.000375518 15.9729 0.025807 16.074 0.0744361C16.1751 0.123065 16.264 0.193663 16.3343 0.281072C16.4046 0.368481 16.4545 0.470491 16.4803 0.57965C16.5062 0.688809 16.5073 0.802358 16.4836 0.912L15.4951 5.412C15.4574 5.57855 15.3643 5.72739 15.2311 5.8342C15.0979 5.941 14.9323 5.99946 14.7616 6ZM9.84158 4.5H14.1571L14.8156 1.5H9.18308L9.84158 4.5ZM12.0001 24C11.8961 23.9998 11.7932 23.9782 11.6979 23.9364C11.6027 23.8945 11.5171 23.8335 11.4466 23.757L6.19658 18.0285C6.11591 17.94 6.0575 17.8336 6.02619 17.718C5.99489 17.6025 5.99159 17.4811 6.01658 17.364L8.02208 8.0925C8.05812 7.92473 8.15059 7.77439 8.28408 7.66657C8.41756 7.55874 8.58399 7.49995 8.75558 7.5H15.2446C15.4159 7.50029 15.582 7.55924 15.7152 7.66704C15.8483 7.77483 15.9406 7.92498 15.9766 8.0925L17.9821 17.364C18.0077 17.4811 18.0047 17.6026 17.9734 17.7183C17.942 17.8339 17.8833 17.9404 17.8021 18.0285L12.5521 23.757C12.482 23.8336 12.3967 23.8947 12.3016 23.9366C12.2066 23.9784 12.1039 24 12.0001 24ZM7.56458 17.2995L12.0001 22.14L16.4356 17.2995L14.6401 9H9.36008L7.56458 17.2995Z" fill="#898989"/>
</g>
<defs>
<clipPath id="clip0_1204_7237">
<rect width="24" height="24" fill="white"/>
</clipPath>
</defs>
</svg>
