<svg width="21" height="21" viewBox="0 0 21 21" fill="none" xmlns="http://www.w3.org/2000/svg">
<g clip-path="url(#clip0_1204_7222)">
<path d="M13.7841 13.6988L13.8303 13.7875L13.8241 13.7907C13.3893 14.0173 12.8265 14.3105 12.1445 14.3105C11.6452 14.3105 11.129 14.0595 10.3812 13.4877C9.88649 13.1093 9.30302 12.5926 8.73777 12.0326C7.5916 10.8972 7.01285 10.1148 6.7207 9.57698C6.57434 9.30754 6.49934 9.09843 6.46127 8.93621C6.42296 8.77294 6.42292 8.66041 6.42292 8.58905C6.42292 7.81492 6.76161 7.25934 6.99988 6.86849L7.00212 6.86483C7.14832 6.62499 7.22335 6.49368 7.24647 6.37851C7.14622 6.1031 6.7658 5.33538 6.13169 4.38818C5.81009 3.90781 5.49007 3.48365 5.20649 3.16123C5.20648 3.16123 5.20648 3.16123 5.20648 3.16122L13.7841 13.6988ZM13.7841 13.6988L13.8304 13.7875C13.9863 13.7063 14.1276 13.6327 14.2584 13.5772C14.3823 13.5247 14.4904 13.4913 14.5859 13.482C14.692 13.5144 14.9206 13.6129 15.2633 13.8008C15.6221 13.9974 16.1003 14.2887 16.684 14.696C17.1582 15.0269 17.6144 15.3758 17.9684 15.6781L18.0333 15.6021L17.9684 15.6781C18.2117 15.8859 18.3633 16.0342 18.4544 16.1311C18.3764 16.6002 18.0987 17.0889 17.6577 17.5028C17.1699 17.9607 16.5522 18.2469 16.0932 18.2469C14.972 18.2469 13.549 17.7707 11.9761 16.8561C10.4606 15.9749 8.87874 14.7325 7.40246 13.2626C5.9522 11.8187 4.71823 10.2717 3.83339 8.78984C3.39066 8.04839 3.0507 7.34661 2.82194 6.70398C2.59807 6.07506 2.48673 5.52111 2.48673 5.05605L13.7841 13.6988ZM4.36474 2.88161C4.53029 2.79139 4.65967 2.73767 4.74938 2.7071L4.36474 2.88161ZM2.71498 4.40588C2.88393 4.12399 3.13569 3.826 3.44444 3.54533C3.73215 3.28382 4.05945 3.04802 4.36473 2.88161L2.71498 4.40588ZM4.8705 1.42295C4.58642 1.42295 4.21836 1.54714 3.83359 1.74898C3.44585 1.95238 3.02999 2.24053 2.64768 2.58165C1.88868 3.25887 1.2374 4.16746 1.2374 5.05605C1.2374 6.31683 1.81641 7.84884 2.76073 9.43032C3.70661 11.0144 5.02564 12.6591 6.52098 14.148C8.01631 15.6368 9.69048 16.9722 11.3481 17.9361C13.0039 18.8989 14.6521 19.4962 16.0931 19.4962C16.9044 19.4962 17.811 19.0723 18.5127 18.4137C19.2152 17.7543 19.7263 16.8463 19.7263 15.8631C19.7263 15.7988 19.7021 15.7325 19.669 15.6698C19.6352 15.6054 19.587 15.5357 19.5285 15.4624C19.4112 15.3157 19.2451 15.1458 19.046 14.9634C18.6474 14.598 18.1081 14.174 17.5409 13.7715C16.9736 13.3689 16.376 12.9859 15.8603 12.7031C15.6026 12.5617 15.3637 12.4445 15.1583 12.3624C14.9559 12.2815 14.7754 12.2301 14.6383 12.2301C14.13 12.2301 13.6939 12.4502 13.2965 12.6569C13.2853 12.6628 13.2742 12.6686 13.263 12.6744C12.8705 12.8787 12.52 13.0612 12.1445 13.0612C12.0687 13.0612 11.9393 13.0163 11.7582 12.9148C11.5821 12.8161 11.3719 12.6726 11.1401 12.4953C10.6767 12.1409 10.1344 11.6577 9.61694 11.1451C9.09943 10.6324 8.60906 10.0927 8.24886 9.62595C8.06864 9.39243 7.92254 9.17916 7.82199 8.99803C7.71911 8.81272 7.67219 8.67534 7.67219 8.58905C7.67219 8.16641 7.86374 7.85154 8.07322 7.50786L8.07339 7.50758C8.28015 7.16837 8.50348 6.80199 8.50348 6.30307C8.50348 6.19742 8.45728 6.04326 8.38724 5.86685C8.31533 5.6857 8.21221 5.46667 8.08627 5.22501C7.83427 4.74144 7.48803 4.16173 7.10942 3.60358C6.73109 3.04585 6.31837 2.50659 5.93301 2.10557C5.74047 1.9052 5.55237 1.73682 5.37673 1.61785C5.20353 1.50052 5.03047 1.42295 4.8705 1.42295Z" fill="#898989" stroke="#898989" stroke-width="0.2"/>
</g>
<defs>
<clipPath id="clip0_1204_7222">
<rect width="21" height="21" fill="white"/>
</clipPath>
</defs>
</svg>
