<?xml version="1.0" standalone="no"?><!DOCTYPE svg PUBLIC "-//W3C//DTD SVG 1.1//EN" "http://www.w3.org/Graphics/SVG/1.1/DTD/svg11.dtd"><svg t="1732868053401" class="icon" viewBox="0 0 1024 1024" version="1.1" xmlns="http://www.w3.org/2000/svg" p-id="18019" xmlns:xlink="http://www.w3.org/1999/xlink" width="200" height="200"><path d="M513.137778 207.928889a145.180444 145.180444 0 0 1 73.557333 270.222222l-73.841778 43.349333L439.182222 477.866667a145.180444 145.180444 0 0 1 73.955556-270.108445m0 347.079111l85.333333 28.444445a261.461333 261.461333 0 0 1 171.064889 184.718222l0.455111 1.991111 0.682667 1.991111a57.742222 57.742222 0 0 1-54.840889 75.832889H309.361778a57.742222 57.742222 0 0 1-54.897778-75.832889l0.682667-1.991111 0.853333-1.991111a260.835556 260.835556 0 0 1 171.633778-185.002667l85.333333-27.875555m0-405.048889A203.093333 203.093333 0 0 0 409.6 527.928889a318.805333 318.805333 0 0 0-210.488889 226.247111 115.655111 115.655111 0 0 0 109.909333 151.665778h406.755556a115.598222 115.598222 0 0 0 109.852444-151.665778 319.317333 319.317333 0 0 0-209.351111-226.133333A203.093333 203.093333 0 0 0 513.137778 150.016l-0.170667 0.056889z" p-id="18020"></path><path d="M441.344 759.182222L512.967111 824.888889l71.452445-65.706667-60.586667-142.222222a11.662222 11.662222 0 0 1 2.389333-12.629333c11.946667-13.937778 21.560889-29.696 28.444445-46.705778a67.242667 67.242667 0 0 0-39.082667-13.653333h-5.404444a67.697778 67.697778 0 0 0-39.139556 13.710222c6.826667 17.066667 16.497778 32.824889 28.444444 46.762666a11.662222 11.662222 0 0 1 2.389334 12.629334l-60.586667 142.222222 0.056889-0.113778z m520.362667-65.536a304.071111 304.071111 0 0 0-199.111111-215.210666 193.194667 193.194667 0 1 0-228.693334-309.191112 173.112889 173.112889 0 0 1 75.832889 6.087112 146.659556 146.659556 0 0 1 201.386667 136.533333 147.854222 147.854222 0 0 1-72.419556 126.748444l-100.010666 51.484445c-8.248889-8.248889-13.767111 6.371556-13.767112 6.371555l122.766223 25.941334a257.706667 257.706667 0 0 1 169.187555 182.442666v1.592889l0.455111 1.649778a63.943111 63.943111 0 0 1-60.700444 83.626667h-32.483556c-1.137778 1.706667-2.104889 3.470222-3.356444 5.12a102.855111 102.855111 0 0 1-67.868445 41.130666h104.277334a110.136889 110.136889 0 0 0 104.334222-144.099555l0.170667-0.227556z m-899.413334 0a304.071111 304.071111 0 0 1 199.111111-215.210666 193.251556 193.251556 0 1 1 228.693334-309.191112 173.112889 173.112889 0 0 0-75.832889 6.087112 146.659556 146.659556 0 0 0-201.386667 136.533333A147.797333 147.797333 0 0 0 285.297778 438.613333l100.010666 51.484445c8.248889-8.248889 13.767111 6.371556 13.767112 6.371555l-122.766223 25.884445a257.820444 257.820444 0 0 0-169.187555 182.499555v1.592889l-0.455111 1.649778a63.886222 63.886222 0 0 0 60.700444 83.626667h32.881778c1.137778 1.706667 2.104889 3.470222 3.299555 5.12a102.855111 102.855111 0 0 0 67.925334 41.130666H167.139556a110.08 110.08 0 0 1-104.277334-144.099555l-0.568889-0.227556z" p-id="18021"></path></svg>