<?xml version="1.0" standalone="no"?><!DOCTYPE svg PUBLIC "-//W3C//DTD SVG 1.1//EN" "http://www.w3.org/Graphics/SVG/1.1/DTD/svg11.dtd"><svg t="1732867200178" class="icon" viewBox="0 0 1024 1024" version="1.1" xmlns="http://www.w3.org/2000/svg" p-id="16986" xmlns:xlink="http://www.w3.org/1999/xlink" width="200" height="200"><path d="M761.002667 832.512a23.495111 23.495111 0 0 1-15.985778-6.144l-47.502222-43.52a20.707556 20.707556 0 0 1-6.826667-15.018667 20.650667 20.650667 0 0 1 6.485333-15.189333 23.665778 23.665778 0 0 1 16.099556-6.371556 23.722667 23.722667 0 0 1 16.213333 6.087112l31.516445 28.899555 61.553777-56.433778a23.665778 23.665778 0 0 1 16.156445-6.087111c6.030222 0 11.832889 2.275556 16.099555 6.314667 4.209778 4.039111 6.599111 9.500444 6.542223 15.132444-0.056889 5.688889-2.503111 11.036444-6.826667 15.018667l-77.482667 71.111111a23.665778 23.665778 0 0 1-16.042666 6.200889zM442.254222 309.930667C256.682667 309.930667 56.888889 270.336 56.888889 183.409778 56.888889 96.483556 256.682667 56.888889 442.254222 56.888889c185.628444 0 385.365333 39.594667 385.365334 126.520889 0 86.926222-199.68 126.520889-385.365334 126.520889z m0-199.736889c-93.468444 0-181.020444 10.012444-246.499555 28.273778-70.314667 19.569778-85.504 40.732444-85.504 44.942222 0 4.152889 15.189333 25.315556 85.504 44.942222 65.536 18.204444 153.031111 28.216889 246.499555 28.216889 93.468444 0 181.020444-10.012444 246.499556-28.273778 70.314667-19.569778 85.560889-40.732444 85.560889-44.942222 0-4.152889-15.246222-25.315556-85.560889-44.942222-65.422222-18.204444-152.974222-28.216889-246.499556-28.216889z" p-id="16987"></path><path d="M442.254222 499.598222C256.682667 499.598222 56.888889 460.003556 56.888889 373.077333V189.155556a26.737778 26.737778 0 0 1 53.361778 0v183.921777c0 4.152889 15.189333 25.315556 85.504 44.942223 65.536 18.204444 153.031111 28.273778 246.499555 28.273777 93.468444 0 181.020444-10.069333 246.499556-28.273777 70.314667-19.626667 85.560889-40.789333 85.560889-44.942223V189.155556a26.737778 26.737778 0 0 1 53.304889 0v183.921777c0.056889 86.926222-199.68 126.520889-385.365334 126.520889z" p-id="16988"></path><path d="M442.254222 692.053333C256.682667 692.053333 56.888889 652.458667 56.888889 565.475556V381.610667a26.737778 26.737778 0 0 1 53.361778 0V565.475556c0 4.152889 15.189333 25.315556 85.504 44.942222 65.536 18.204444 153.031111 28.216889 246.499555 28.216889a26.737778 26.737778 0 0 1 0 53.361777z" p-id="16989"></path><path d="M442.254222 880.014222C256.682667 880.014222 56.888889 840.419556 56.888889 753.493333v-183.921777a26.737778 26.737778 0 0 1 53.361778 0v183.864888c0 4.209778 15.189333 25.372444 85.504 44.942223 65.536 18.204444 153.031111 28.273778 246.499555 28.273777a26.737778 26.737778 0 0 1 0 53.361778zM635.904 353.28a26.510222 26.510222 0 1 0 53.020444 0 26.510222 26.510222 0 0 0-53.020444 0zM777.614222 1003.178667h-3.185778a27.079111 27.079111 0 0 1-7.68-1.137778c-71.224889-20.536889-175.160889-108.145778-179.541333-111.843556a29.013333 29.013333 0 0 1-10.296889-22.584889v-235.52c0-14.961778 10.865778-27.477333 25.258667-29.013333 51.2-5.688889 103.936-22.755556 161.28-51.996444a27.420444 27.420444 0 0 1 25.713778 0.341333 471.722667 471.722667 0 0 0 161.393777 51.712 28.899556 28.899556 0 0 1 24.576 28.956444v235.52c0 8.760889-3.811556 17.066667-10.353777 22.584889-4.380444 3.697778-108.316444 91.306667-179.541334 111.900445a27.079111 27.079111 0 0 1-7.623111 1.080889z m-144.156444-149.617778c32.426667 26.168889 98.076444 74.979556 142.620444 90.396444 44.544-15.473778 110.136889-64.170667 142.506667-90.339555V657.066667a524.401778 524.401778 0 0 1-142.791111-47.274667c-49.493333 24.064-96.369778 39.822222-142.222222 47.729778l-0.113778 196.096z" p-id="16990"></path></svg>