<svg width="18" height="18" viewBox="0 0 18 18" fill="none" xmlns="http://www.w3.org/2000/svg">
<g clip-path="url(#clip0_1831_1603)">
<path d="M15.75 2.25H2.25C1.83579 2.25 1.5 2.58579 1.5 3V15C1.5 15.4142 1.83579 15.75 2.25 15.75H15.75C16.1642 15.75 16.5 15.4142 16.5 15V3C16.5 2.58579 16.1642 2.25 15.75 2.25Z" stroke="white" stroke-width="1.25" stroke-linejoin="round"/>
<path d="M1.5 6.75H16.5" stroke="white" stroke-width="1.25" stroke-linejoin="round"/>
<path d="M6.56299 6.75V15.75" stroke="white" stroke-width="1.25" stroke-linejoin="round"/>
<path d="M11.437 6.75V15.75" stroke="white" stroke-width="1.25" stroke-linejoin="round"/>
<path d="M1.50049 11.25H16.5005" stroke="white" stroke-width="1.25" stroke-linejoin="round"/>
<path d="M16.5 3V15C16.5 15.4142 16.1642 15.75 15.75 15.75H2.25C1.83579 15.75 1.5 15.4142 1.5 15V3" stroke="white" stroke-width="1.25" stroke-linejoin="round"/>
</g>
<defs>
<clipPath id="clip0_1831_1603">
<rect width="18" height="18" fill="white"/>
</clipPath>
</defs>
</svg>
