<?xml version="1.0" standalone="no"?><!DOCTYPE svg PUBLIC "-//W3C//DTD SVG 1.1//EN" "http://www.w3.org/Graphics/SVG/1.1/DTD/svg11.dtd"><svg t="1732867958760" class="icon" viewBox="0 0 1024 1024" version="1.1" xmlns="http://www.w3.org/2000/svg" p-id="17873" xmlns:xlink="http://www.w3.org/1999/xlink" width="200" height="200"><path d="M711.111111 763.448889a27.306667 27.306667 0 0 1-7.793778-1.080889 248.945778 248.945778 0 0 1-71.566222-34.417778 27.306667 27.306667 0 0 1-11.548444-24.632889l3.584-41.699555a206.620444 206.620444 0 0 1-17.806223-22.186667l-41.642666-5.802667a27.306667 27.306667 0 0 1-21.447111-16.725333 246.897778 246.897778 0 0 1-17.635556-77.255111 27.306667 27.306667 0 0 1 12.060445-24.462222l34.929777-23.153778c1.422222-9.386667 3.584-18.602667 6.257778-27.648l-21.276444-35.953778a27.306667 27.306667 0 0 1-0.284445-27.306666c13.084444-23.153778 29.866667-44.088889 49.550222-61.952a27.192889 27.192889 0 0 1 26.567112-5.745778l40.049777 12.8c8.248889-4.721778 16.839111-8.874667 25.713778-12.401778l14.904889-39.082667a27.306667 27.306667 0 0 1 21.162667-17.180444 253.895111 253.895111 0 0 1 79.416889 0 27.306667 27.306667 0 0 1 21.105777 17.180444l14.961778 39.082667c8.817778 3.527111 17.408 7.623111 25.713778 12.344889l40.049778-12.743111a27.249778 27.249778 0 0 1 26.510222 5.802666c19.740444 17.863111 36.465778 38.684444 49.607111 61.838223a27.249778 27.249778 0 0 1-0.284444 27.306666l-21.333334 36.010667c2.730667 9.102222 4.835556 18.261333 6.257778 27.648l34.929778 23.210667a27.306667 27.306667 0 0 1 12.117333 24.405333c-1.706667 26.510222-7.623111 52.622222-17.635555 77.255111a27.306667 27.306667 0 0 1-21.504 16.725333l-41.642667 5.859556c-5.404444 7.736889-11.377778 15.189333-17.749333 22.186667l3.584 41.642666a27.306667 27.306667 0 0 1-11.605334 24.632889c-21.845333 15.246222-46.023111 26.851556-71.566222 34.417778a27.192889 27.192889 0 0 1-26.396444-6.257778l-30.549334-28.899555a206.051556 206.051556 0 0 1-28.558222 0l-30.549333 28.842666a27.079111 27.079111 0 0 1-18.716445 7.395556z m-35.271111-71.907556c9.102222 5.347556 18.602667 9.898667 28.444444 13.653334l27.704889-26.112a27.136 27.136 0 0 1 22.300445-7.168 153.315556 153.315556 0 0 0 40.618666 0 27.136 27.136 0 0 1 22.300445 7.168l27.704889 26.168889c9.841778-3.811556 19.342222-8.362667 28.444444-13.653334l-3.242666-37.774222a27.022222 27.022222 0 0 1 8.362666-22.016 150.755556 150.755556 0 0 0 25.258667-31.573333 27.079111 27.079111 0 0 1 19.569778-12.970667l37.774222-5.290667c3.128889-9.955556 5.461333-20.138667 6.940444-30.492444l-31.630222-21.048889a27.079111 27.079111 0 0 1-12.060444-20.252444 148.138667 148.138667 0 0 0-8.988445-39.310223 27.136 27.136 0 0 1 2.104889-23.495111l19.285333-32.540444a196.835556 196.835556 0 0 0-19.683555-24.576l-36.295111 11.548444a26.965333 26.965333 0 0 1-23.267556-3.185778 150.016 150.016 0 0 0-36.465778-17.521777 27.079111 27.079111 0 0 1-17.066666-16.213334l-13.539556-35.384889a200.021333 200.021333 0 0 0-31.630222 0l-13.539556 35.384889a27.079111 27.079111 0 0 1-17.066666 16.213334 149.390222 149.390222 0 0 0-36.465778 17.521777 27.192889 27.192889 0 0 1-23.267556 3.185778l-36.295111-11.548444a197.290667 197.290667 0 0 0-19.683555 24.519111l19.342222 32.597333a27.192889 27.192889 0 0 1 2.048 23.495111 148.309333 148.309333 0 0 0-8.988444 39.310223 27.079111 27.079111 0 0 1-12.060445 20.252444l-31.630222 21.048889c1.479111 10.353778 3.811556 20.536889 6.997333 30.492444l37.717334 5.290667a27.022222 27.022222 0 0 1 19.569777 12.913778c6.940444 11.662222 15.473778 22.243556 25.258667 31.630222 6.030222 5.688889 9.102222 13.710222 8.362667 22.016l-3.242667 37.717333z m102.058667-53.703111a117.361778 117.361778 0 0 1-117.418667-117.077333 117.418667 117.418667 0 0 1 234.837333 0 117.361778 117.361778 0 0 1-117.418666 117.077333z m0-50.631111l0.113777-3.811555c34.531556 0 62.748444-28.103111 62.805334-62.691556a62.919111 62.919111 0 0 0-125.895111 0 62.919111 62.919111 0 0 0 62.805333 62.691556h0.170667v3.754666z" p-id="17874"></path><path d="M208.668444 927.288889a34.816 34.816 0 0 1 0-69.575111h235.690667v-144.668445h-327.111111A117.532444 117.532444 0 0 1 0 595.626667V174.364444C0 109.681778 52.508444 57.002667 117.191111 56.888889h723.911111a117.532444 117.532444 0 0 1 117.191111 117.475555V263.395556a34.816 34.816 0 0 1-69.575111 0V174.364444a47.786667 47.786667 0 0 0-47.616-47.900444H117.191111a47.786667 47.786667 0 0 0-47.672889 47.843556v421.262222a47.843556 47.843556 0 0 0 47.672889 47.900444h398.563556a34.929778 34.929778 0 0 1 30.151111 52.224 34.929778 34.929778 0 0 1-30.151111 17.408h-1.877334v144.611556h244.053334a34.872889 34.872889 0 0 1 30.094222 52.224 34.872889 34.872889 0 0 1-30.151111 17.408H208.668444z" p-id="17875"></path></svg>