<?xml version="1.0" standalone="no"?><!DOCTYPE svg PUBLIC "-//W3C//DTD SVG 1.1//EN" "http://www.w3.org/Graphics/SVG/1.1/DTD/svg11.dtd"><svg t="1732867289322" class="icon" viewBox="0 0 1024 1024" version="1.1" xmlns="http://www.w3.org/2000/svg" p-id="17134" xmlns:xlink="http://www.w3.org/1999/xlink" width="200" height="200"><path d="M113.777778 170.666667v256c0 2.503111 1.024 7.054222 7.224889 13.653333 6.371556 6.656 16.896 13.937778 32.142222 20.707556 30.321778 13.482667 74.183111 22.528 124.188444 22.528 50.005333 0 93.866667-9.102222 124.188445-22.528 15.246222-6.769778 25.770667-14.051556 32.142222-20.764445 6.200889-6.542222 7.224889-11.093333 7.224889-13.596444V170.666667h56.888889v256c0 21.048889-9.671111 38.912-22.926222 52.849777-13.084444 13.710222-30.663111 24.803556-50.176 33.507556-39.196444 17.408-91.306667 27.420444-147.342223 27.420444-56.035556 0-108.145778-10.012444-147.342222-27.420444-19.512889-8.704-37.091556-19.797333-50.176-33.564444C66.616889 465.635556 56.888889 447.715556 56.888889 426.666667V170.666667h56.888889z" p-id="17135"></path><path d="M153.144889 333.027556c30.321778 13.482667 74.183111 22.528 124.188444 22.528 50.005333 0 93.866667-9.102222 124.188445-22.528 15.246222-6.769778 25.770667-14.051556 32.142222-20.764445 6.200889-6.542222 7.224889-11.093333 7.224889-13.596444h56.888889c0 21.048889-9.671111 38.912-22.926222 52.849777-13.084444 13.710222-30.663111 24.803556-50.176 33.507556-39.196444 17.408-91.306667 27.420444-147.342223 27.420444-56.035556 0-108.145778-10.012444-147.342222-27.420444-19.512889-8.704-37.091556-19.797333-50.176-33.564444C66.616889 337.635556 56.888889 319.715556 56.888889 298.666667h56.888889c0 2.503111 1.024 7.054222 7.224889 13.653333 6.371556 6.656 16.896 13.937778 32.142222 20.707556zM121.002667 157.013333C114.801778 163.669333 113.777778 168.220444 113.777778 170.666667c0 2.503111 1.024 7.054222 7.224889 13.653333 6.371556 6.656 16.896 13.937778 32.142222 20.707556C183.466667 218.453333 227.328 227.555556 277.333333 227.555556c50.005333 0 93.866667-9.102222 124.188445-22.528 15.246222-6.769778 25.770667-14.051556 32.142222-20.764445 6.200889-6.542222 7.224889-11.093333 7.224889-13.596444 0-2.503111-1.024-7.054222-7.224889-13.653334-6.371556-6.656-16.896-13.937778-32.142222-20.707555C371.2 122.88 327.338667 113.777778 277.333333 113.777778c-50.005333 0-93.866667 9.102222-124.188444 22.528-15.246222 6.769778-25.770667 14.051556-32.142222 20.764444z m8.988444-72.704C169.187556 66.901333 221.297778 56.888889 277.333333 56.888889c56.035556 0 108.145778 10.012444 147.342223 27.420444 19.512889 8.704 37.091556 19.797333 50.176 33.564445 13.198222 13.880889 22.926222 31.744 22.926222 52.792889s-9.671111 38.912-22.926222 52.849777c-13.084444 13.710222-30.663111 24.803556-50.176 33.507556C385.479111 274.432 333.368889 284.444444 277.333333 284.444444c-56.035556 0-108.145778-10.012444-147.342222-27.420444-19.512889-8.704-37.091556-19.797333-50.176-33.564444C66.616889 209.635556 56.888889 191.715556 56.888889 170.666667s9.671111-38.912 22.926222-52.849778c13.084444-13.710222 30.663111-24.803556 50.176-33.507556zM810.666667 156.444444H682.666667v-56.888888h128a113.777778 113.777778 0 0 1 113.777777 113.777777V341.333333h-56.888888V213.333333a56.888889 56.888889 0 0 0-56.888889-56.888889zM156.444444 682.666667v128a56.888889 56.888889 0 0 0 56.888889 56.888889H341.333333v56.888888H213.333333a113.777778 113.777778 0 0 1-113.777777-113.777777V682.666667h56.888888zM718.222222 938.666667v-128h56.888889v128h-56.888889z" p-id="17136"></path><path d="M618.666667 910.222222h256v56.888889h-256v-56.888889zM526.222222 554.666667a28.444444 28.444444 0 0 1 28.444445-28.444445h384a28.444444 28.444444 0 0 1 28.444444 28.444445v256a28.444444 28.444444 0 0 1-28.444444 28.444444H554.666667a28.444444 28.444444 0 0 1-28.444445-28.444444v-256z m56.888889 28.444444v199.111111H910.222222v-199.111111h-327.111111z" p-id="17137"></path></svg>