<svg width="18" height="19" viewBox="0 0 18 19" fill="none" xmlns="http://www.w3.org/2000/svg">
<path d="M16.1111 17.0001H1.88889C1.65314 17.0001 1.42705 16.9058 1.26035 16.738C1.09365 16.5701 1 16.3425 1 16.1052V3.57677C1 3.33943 1.09365 3.11181 1.26035 2.94399C1.42705 2.77617 1.65314 2.68188 1.88889 2.68188H16.1111C16.3469 2.68188 16.573 2.77617 16.7397 2.94399C16.9063 3.11181 17 3.33943 17 3.57677V16.1052C17 16.3425 16.9063 16.5701 16.7397 16.738C16.573 16.9058 16.3469 17.0001 16.1111 17.0001ZM6.33333 3.57677H2.77778V4.47166H6.33333V3.57677ZM15.2222 6.26143H2.77778V15.2103H15.2222V6.26143ZM6.33333 8.0512L8.11111 13.4205H7.22222L6.77778 12.0782H5L4.55556 13.4205H3.66667L5.44444 8.0512H6.33333ZM6.48178 11.1833L5.88889 9.39353L5.296 11.1833H6.48178ZM10.7778 8.0512C11.2493 8.0512 11.7015 8.23977 12.0349 8.57542C12.3683 8.91106 12.5556 9.3663 12.5556 9.84098C12.5556 10.3157 12.3683 10.7709 12.0349 11.1065C11.7015 11.4422 11.2493 11.6307 10.7778 11.6307H9.88889V13.4205H9V8.0512H10.7778ZM9.88889 10.7359H10.7778C11.0135 10.7359 11.2396 10.6416 11.4063 10.4738C11.573 10.3059 11.6667 10.0783 11.6667 9.84098C11.6667 9.60364 11.573 9.37602 11.4063 9.2082C11.2396 9.04037 11.0135 8.94609 10.7778 8.94609H9.88889V10.7359ZM14.3333 13.4205H13.4444V8.0512H14.3333V13.4205Z" fill="#447DFB"/>
</svg>
