<svg width="32" height="32" viewBox="0 0 32 32" fill="none" xmlns="http://www.w3.org/2000/svg">
<g clip-path="url(#clip0_894_117723)">
<path d="M26.9666 8.04661L17 3.53994C16.42 3.23994 15.7266 3.23994 15.1466 3.53994L5.1733 8.04661C4.45997 8.41994 4.45997 9.42661 5.1733 9.79327L16.0666 14.7733L26.96 9.79327C27.6866 9.41994 27.6866 8.41327 26.9666 8.04661ZM27.1533 11.3733L16.7333 15.9666V27.6533C16.7333 28.4199 17.5666 28.9133 18.26 28.5466L27.6733 24.2999C27.9731 24.1238 28.2218 23.8725 28.3948 23.5708C28.5678 23.2692 28.6592 22.9277 28.66 22.5799V12.2733C28.66 11.5133 27.84 11.0266 27.1533 11.3733ZM3.33997 12.2733V22.5733C3.33997 23.2733 3.7133 23.9266 4.32663 24.2933L13.74 28.5399C14.4266 28.9066 15.2666 28.4133 15.2666 27.6466V15.9666L4.84663 11.3733C4.15997 11.0266 3.33997 11.5133 3.33997 12.2733Z" fill="#447DFB"/>
</g>
<defs>
<clipPath id="clip0_894_117723">
<rect width="32" height="32" fill="white"/>
</clipPath>
</defs>
</svg>
