<svg width="18" height="18" viewBox="0 0 18 18" fill="none" xmlns="http://www.w3.org/2000/svg">
<g clip-path="url(#clip0_388_50666)">
<path d="M16.8839 8.79406C16.8839 8.89006 16.8869 9.11806 16.8929 9.47806C16.8989 9.83806 16.9019 10.2551 16.9019 10.7291C16.9019 11.2031 16.9049 11.7041 16.9109 12.2321C16.9169 12.7601 16.9199 13.2401 16.9199 13.6721C16.9199 13.9001 16.8689 14.1281 16.7669 14.3561C16.6649 14.5841 16.5149 14.7911 16.3169 14.9771C16.1189 15.1631 15.8819 15.3131 15.6059 15.4271C15.3299 15.5411 15.0179 15.5981 14.6699 15.5981H3.45586C3.20386 15.5981 2.94286 15.5441 2.67286 15.4361C2.40286 15.3281 2.15386 15.1751 1.92586 14.9771C1.69786 14.7791 1.51186 14.5391 1.36786 14.2571C1.22386 13.9751 1.15186 13.6601 1.15186 13.3121V5.59006C1.15186 4.85806 1.35286 4.28506 1.75486 3.87106C2.15686 3.45706 2.71186 3.25006 3.41986 3.25006H4.33786H6.19186C6.91186 3.25006 7.67986 3.24706 8.49586 3.24106C9.31186 3.23506 10.0739 3.23206 10.7819 3.23206H12.5639H13.3919C13.6679 3.23206 13.9469 3.28606 14.2289 3.39406C14.5109 3.50206 14.7629 3.64606 14.9849 3.82606C15.2069 4.00606 15.3899 4.21606 15.5339 4.45606C15.6779 4.69606 15.7499 4.95406 15.7499 5.23006V5.42806C15.4139 5.42806 14.9729 5.43106 14.4269 5.43706C13.8809 5.44306 13.2779 5.44906 12.6179 5.45506C11.9579 5.46106 11.2589 5.46706 10.5209 5.47306C9.78286 5.47906 9.05386 5.48506 8.33386 5.49106C7.61386 5.49706 6.92386 5.50006 6.26386 5.50006H4.51786C4.21786 5.50006 3.95686 5.59306 3.73486 5.77906C3.51286 5.96506 3.40186 6.23206 3.40186 6.58006C3.40186 6.92806 3.39886 7.30306 3.39286 7.70506C3.38686 8.10706 3.38386 8.47606 3.38386 8.81206V9.98206H3.40186V10.5221C3.40186 10.6781 3.45586 10.8101 3.56386 10.9181C3.67186 11.0261 3.80386 11.0801 3.95986 11.0801C4.11586 11.0801 4.24786 11.0261 4.35586 10.9181C4.46386 10.8101 4.51786 10.6781 4.51786 10.5221V9.94606H4.55386L4.51786 6.58006L15.1199 6.59806C15.3479 6.62206 15.5669 6.68206 15.7769 6.77806C15.9869 6.87406 16.1729 7.00906 16.3349 7.18306C16.4969 7.35706 16.6289 7.57606 16.7309 7.84006C16.8329 8.10406 16.8839 8.42206 16.8839 8.79406Z" fill="#447DFB"/>
</g>
<defs>
<clipPath id="clip0_388_50666">
<rect width="18" height="18" fill="white"/>
</clipPath>
</defs>
</svg>
