<svg width="18" height="18" viewBox="0 0 18 18" fill="none" xmlns="http://www.w3.org/2000/svg">
<g clip-path="url(#clip0_415_25250)">
<path d="M15.03 6.76798C15.258 6.79198 15.486 6.85198 15.714 6.94798C15.942 7.04398 16.14 7.17898 16.308 7.35298C16.476 7.52698 16.602 7.74598 16.686 8.00998C16.77 8.27398 16.782 8.59198 16.722 8.96398C16.698 9.05998 16.65 9.29698 16.578 9.67498C16.506 10.053 16.422 10.488 16.326 10.98C16.23 11.472 16.122 11.979 16.002 12.501C15.882 13.023 15.768 13.47 15.66 13.842C15.6 14.058 15.513 14.28 15.399 14.508C15.285 14.736 15.138 14.943 14.958 15.129C14.778 15.315 14.562 15.468 14.31 15.588C14.058 15.708 13.758 15.768 13.41 15.768H3.438C3.186 15.768 2.925 15.714 2.655 15.606C2.385 15.498 2.136 15.345 1.908 15.147C1.68 14.949 1.494 14.709 1.35 14.427C1.206 14.145 1.134 13.83 1.134 13.482V5.75998C1.134 5.02798 1.332 4.45498 1.728 4.04098C2.124 3.62698 2.682 3.41998 3.402 3.41998H12.258C12.522 3.41998 12.795 3.47098 13.077 3.57298C13.359 3.67498 13.614 3.81598 13.842 3.99598C14.07 4.17598 14.256 4.38598 14.4 4.62598C14.544 4.86598 14.616 5.12398 14.616 5.39998V5.59798H13.68C13.2 5.59798 12.639 5.59498 11.997 5.58898C11.355 5.58298 10.671 5.57998 9.945 5.57998C9.219 5.57998 8.541 5.57698 7.911 5.57098C7.281 5.56498 6.738 5.56198 6.282 5.56198H5.454C5.142 5.56198 4.899 5.66098 4.725 5.85898C4.551 6.05698 4.416 6.31798 4.32 6.64198C4.224 6.98998 4.116 7.35898 3.996 7.74898C3.876 8.13898 3.768 8.50198 3.672 8.83798C3.552 9.23398 3.432 9.61798 3.312 9.98998C3.288 10.086 3.276 10.164 3.276 10.224C3.276 10.428 3.345 10.599 3.483 10.737C3.621 10.875 3.792 10.944 3.996 10.944C4.368 10.944 4.62 10.71 4.752 10.242L5.706 6.74998C7.266 6.76198 8.694 6.76798 9.99 6.76798H15.03Z" fill="#3DCD58"/>
</g>
<defs>
<clipPath id="clip0_415_25250">
<rect width="18" height="18" fill="white"/>
</clipPath>
</defs>
</svg>
