<svg width="32" height="32" viewBox="0 0 32 32" fill="none" xmlns="http://www.w3.org/2000/svg">
<g id="&#230;&#142;&#168;&#232;&#141;&#144; (1) 1" clip-path="url(#clip0_137_648)">
<path id="Vector" opacity="0.15" d="M0 16C0 20.2435 1.68571 24.3131 4.68629 27.3137C7.68687 30.3143 11.7565 32 16 32C20.2435 32 24.3131 30.3143 27.3137 27.3137C30.3143 24.3131 32 20.2435 32 16C32 11.7565 30.3143 7.68687 27.3137 4.68629C24.3131 1.68571 20.2435 0 16 0C11.7565 0 7.68687 1.68571 4.68629 4.68629C1.68571 7.68687 0 11.7565 0 16Z" fill="#5089FC"/>
<path id="Vector_2" d="M23.2789 16.0302C23.2757 16.0195 23.2754 16.0081 23.2782 15.9973C23.2809 15.9864 23.2866 15.9766 23.2946 15.9687C23.5919 15.6524 23.7903 15.256 23.8654 14.8284C23.9405 14.4008 23.889 13.9606 23.7172 13.5619C23.5453 13.1631 23.2607 12.8233 22.8984 12.5842C22.536 12.3451 22.1116 12.2171 21.6775 12.216L19.1837 12.1735C19.1726 12.1737 19.1617 12.1712 19.152 12.166C19.1423 12.1608 19.134 12.1533 19.128 12.144C19.1215 12.1353 19.1173 12.1251 19.1158 12.1144C19.1143 12.1036 19.1157 12.0926 19.1197 12.0825C19.3844 11.3448 19.4833 10.5577 19.4091 9.77737C19.3349 8.99705 19.0896 8.24268 18.6906 7.568C18.6323 7.47029 18.5615 7.38057 18.48 7.30109C18.065 6.89463 17.5071 6.66718 16.9262 6.66764C16.4462 6.66966 15.9796 6.82581 15.5951 7.11309C15.2106 7.40037 14.9286 7.80357 14.7906 8.26327C14.7553 8.38435 14.7378 8.5099 14.7386 8.636C14.7385 8.77108 14.7312 8.90606 14.7168 9.04036C14.633 9.81891 14.3073 10.5516 13.7854 11.1355C13.2636 11.7193 12.572 12.1249 11.8077 12.2953C11.6869 12.3215 11.5703 12.3642 11.4611 12.4222C11.0425 12.6471 10.6825 12.9672 10.4102 13.3567C10.0418 13.8818 9.85177 14.5112 9.86803 15.1524L9.99675 20.7869C10.0152 21.5748 10.341 22.3242 10.9047 22.875C11.4683 23.4258 12.225 23.7343 13.0131 23.7345H19.748H19.744C20.201 23.7349 20.6497 23.6119 21.0426 23.3785L21.0902 23.364C21.3689 23.2742 21.6271 23.1305 21.8502 22.9409C22.0733 22.7513 22.2568 22.5197 22.3904 22.2592C22.5239 21.9986 22.6049 21.7144 22.6285 21.4226C22.6522 21.1308 22.6182 20.8372 22.5284 20.5585C22.5268 20.548 22.5275 20.5372 22.5305 20.527C22.5335 20.5167 22.5388 20.5073 22.5458 20.4993C22.7624 20.2084 22.9047 19.869 22.9604 19.5107C23.0162 19.1524 22.9837 18.7859 22.8658 18.4429C22.8625 18.4292 22.8628 18.4149 22.8666 18.4013C22.8704 18.3877 22.8777 18.3754 22.8877 18.3655C23.1654 18.0526 23.3495 17.6678 23.4188 17.2552C23.4881 16.8426 23.4399 16.4188 23.2797 16.0324M19.7797 18.4156C19.5178 19.0347 19.0794 19.5629 18.5191 19.9342C17.9589 20.3056 17.3016 20.5036 16.6295 20.5036C15.9573 20.5036 15.3001 20.3056 14.7398 19.9342C14.1796 19.5629 13.7411 19.0347 13.4793 18.4156C13.4203 18.2637 13.4229 18.0947 13.4864 17.9446C13.5499 17.7945 13.6693 17.675 13.8195 17.6115C13.9696 17.548 14.1385 17.5454 14.2905 17.6044C14.4424 17.6633 14.5655 17.7791 14.6335 17.9273C14.7995 18.3194 15.0773 18.6539 15.4322 18.8891C15.7872 19.1243 16.2035 19.2497 16.6293 19.2497C17.0551 19.2497 17.4714 19.1243 17.8264 18.8891C18.1813 18.6539 18.4591 18.3194 18.6251 17.9273C18.692 17.7773 18.815 17.6596 18.9677 17.5994C19.1204 17.5392 19.2907 17.5413 19.4419 17.6052C19.5931 17.6692 19.7132 17.7899 19.7763 17.9414C19.8395 18.093 19.8407 18.2632 19.7797 18.4156Z" fill="#5089FC"/>
<path id="Vector_3" opacity="0.5" d="M8.50903 15.2004H8.14249C8.04053 15.1944 7.94032 15.2289 7.86365 15.2963C7.78698 15.3638 7.74004 15.4588 7.73303 15.5607V20.7804C7.74004 20.8823 7.78698 20.9773 7.86365 21.0447C7.94032 21.1122 8.04053 21.1467 8.14249 21.1407H8.50903C8.61099 21.1467 8.71119 21.1122 8.78787 21.0447C8.86454 20.9773 8.91148 20.8823 8.91849 20.7804V15.5607C8.91148 15.4588 8.86454 15.3638 8.78787 15.2963C8.71119 15.2289 8.61099 15.1944 8.50903 15.2004Z" fill="#5089FC"/>
</g>
<defs>
<clipPath id="clip0_137_648">
<rect width="32" height="32" fill="white"/>
</clipPath>
</defs>
</svg>
