<svg width="22" height="22" viewBox="0 0 22 22" fill="none" xmlns="http://www.w3.org/2000/svg">
<g id="&#231;&#129;&#171; (1) 1" clip-path="url(#clip0_155_9283)">
<path id="Vector" d="M13.2137 20.6217C13.1249 20.6245 13.037 20.6021 12.9604 20.557C12.8838 20.512 12.8214 20.4462 12.7806 20.3673C12.7435 20.2833 12.7407 20.1881 12.7728 20.102C12.8049 20.0159 12.8694 19.9458 12.9525 19.9067C13.7371 19.429 14.3881 18.7606 14.8449 17.9636C15.3017 17.1666 15.5494 16.267 15.565 15.3485C15.5787 13.836 14.9531 11.5467 12.0381 8.96166C12.0767 11.0834 11.5474 13.177 10.505 15.0254C10.4497 15.1059 10.372 15.1683 10.2816 15.205C10.1911 15.2417 10.0919 15.2509 9.99621 15.2317C9.90243 15.2225 9.81436 15.1824 9.74589 15.1177C9.67742 15.053 9.63246 14.9673 9.61809 14.8742C9.50112 13.9947 9.10606 13.1757 8.49059 12.5367C8.27422 13.119 8.01928 13.6863 7.72746 14.2348C7.19599 15.1077 6.90869 16.1073 6.89559 17.1292C6.89559 18.0848 7.80996 19.1985 8.69684 19.7898C8.76624 19.8192 8.82578 19.8678 8.86842 19.9299C8.91106 19.992 8.93502 20.0651 8.93746 20.1404C8.92496 20.2528 8.86913 20.3559 8.78184 20.4278C8.69455 20.4997 8.58266 20.5347 8.46996 20.5254H8.45621C8.4051 20.5253 8.35423 20.5184 8.30496 20.5048C4.72996 19.4735 2.75684 17.3698 2.75684 14.5854C2.75684 12.2204 4.04934 10.316 5.41059 8.30166C6.90126 6.31617 8.0215 4.07804 8.71746 1.69478C8.73908 1.62297 8.77894 1.55798 8.83316 1.50617C8.88738 1.45436 8.95411 1.41749 9.02684 1.39916C9.10539 1.37847 9.18761 1.37577 9.26735 1.39124C9.3471 1.40671 9.42234 1.43997 9.48746 1.48853C15.9637 6.50728 19.2431 9.91041 19.2431 14.5442C19.2431 17.5898 16.6787 20.2023 13.2825 20.6217H13.2137Z" fill="#FAEE69"/>
</g>
<defs>
<clipPath id="clip0_155_9283">
<rect width="22" height="22" fill="white"/>
</clipPath>
</defs>
</svg>
