<svg width="40" height="40" viewBox="0 0 40 40" fill="none" xmlns="http://www.w3.org/2000/svg">
<g id="student-check.svg" clip-path="url(#clip0_50_574)">
<path id="Vector" d="M20 22.5835C20.975 22.5835 21.905 22.7018 22.79 22.9385C23.15 23.0351 23.1983 23.6518 22.9 23.8718C22.0011 24.5267 21.2697 25.385 20.7657 26.3765C20.2617 27.3679 19.9994 28.4646 20 29.5768C20 30.3535 20.125 31.0985 20.355 31.7968C20.4484 32.0768 20.075 32.6135 19.7717 32.6151H10.8567C10.5722 32.6151 10.2924 32.5423 10.044 32.4035C9.79555 32.2648 9.58681 32.0647 9.4376 31.8224C9.2884 31.5802 9.2037 31.3037 9.19158 31.0195C9.17945 30.7352 9.24031 30.4526 9.36835 30.1985C11.935 25.1201 15.4783 22.5835 20 22.5835ZM20 11.0618C21.4057 11.0618 22.7537 11.6202 23.7477 12.6141C24.7416 13.6081 25.3 14.9561 25.3 16.3618C25.3 17.7674 24.7416 19.1155 23.7477 20.1095C22.7537 21.1034 21.4057 21.6618 20 21.6618C18.5944 21.6618 17.2463 21.1034 16.2524 20.1095C15.2584 19.1155 14.7 17.7674 14.7 16.3618C14.7 14.9561 15.2584 13.6081 16.2524 12.6141C17.2463 11.6202 18.5944 11.0618 20 11.0618ZM28.31 13.1168V18.8551C28.31 18.9594 28.2686 19.0595 28.1948 19.1333C28.121 19.207 28.021 19.2485 27.9167 19.2485C27.8124 19.2485 27.7123 19.207 27.6386 19.1333C27.5648 19.0595 27.5233 18.9594 27.5233 18.8551V13.6168L28.31 13.1168ZM20.8333 6.10513L28.96 10.7935C29.0871 10.8665 29.1926 10.9717 29.266 11.0986C29.3394 11.2254 29.3781 11.3694 29.3781 11.516C29.3781 11.6625 29.3394 11.8065 29.266 11.9333C29.1926 12.0602 29.0871 12.1654 28.96 12.2385L25.895 14.0051C25.4234 12.8273 24.6098 11.8178 23.5591 11.1067C22.5084 10.3956 21.2687 10.0155 20 10.0155C18.7313 10.0155 17.4917 10.3956 16.4409 11.1067C15.3902 11.8178 14.5766 12.8273 14.105 14.0051L11.04 12.2385C10.913 12.1654 10.8074 12.0602 10.734 11.9333C10.6606 11.8065 10.6219 11.6625 10.6219 11.516C10.6219 11.3694 10.6606 11.2254 10.734 11.0986C10.8074 10.9717 10.913 10.8665 11.04 10.7935L19.1667 6.10513C19.42 5.95885 19.7075 5.88184 20 5.88184C20.2926 5.88184 20.58 5.95885 20.8333 6.10513Z" fill="#FFA401"/>
<path id="Vector_2" d="M27.065 23.6934C28.6253 23.6934 30.1218 24.3132 31.2251 25.4165C32.3285 26.5199 32.9483 28.0163 32.9483 29.5767C32.9483 31.1371 32.3285 32.6335 31.2251 33.7368C30.1218 34.8402 28.6253 35.46 27.065 35.46C25.5046 35.46 24.0082 34.8402 22.9048 33.7368C21.8015 32.6335 21.1816 31.1371 21.1816 29.5767C21.1816 28.0163 21.8015 26.5199 22.9048 25.4165C24.0082 24.3132 25.5046 23.6934 27.065 23.6934ZM30.7266 27.2267C30.5606 27.0812 30.3436 27.0076 30.1233 27.022C29.903 27.0363 29.6974 27.1375 29.5516 27.3034L26.4183 30.875L24.52 29.1017L24.4033 29.0084C24.2284 28.8932 24.0165 28.8482 23.8098 28.8822C23.6031 28.9162 23.4169 29.0268 23.2881 29.192C23.1593 29.3571 23.0974 29.5647 23.1147 29.7735C23.1321 29.9822 23.2274 30.1767 23.3816 30.3184L25.91 32.6817L26.0316 32.775C26.1994 32.8817 26.3998 32.9249 26.5967 32.8968C26.7935 32.8687 26.9738 32.7711 27.105 32.6217L30.805 28.4017L30.8933 28.28C30.9935 28.1125 31.0317 27.9151 31.0012 27.7223C30.9708 27.5295 30.8736 27.3535 30.7266 27.225V27.2267Z" fill="#FFA401"/>
</g>
<defs>
<clipPath id="clip0_50_574">
<rect width="40" height="40" fill="white"/>
</clipPath>
</defs>
</svg>
