<svg width="27" height="27" viewBox="0 0 27 27" fill="none" xmlns="http://www.w3.org/2000/svg">
<g id="&#228;&#186;&#145;&#231;&#171;&#175;,&#228;&#186;&#145;&#230;&#156;&#141;&#229;&#138;&#161; 1" clip-path="url(#clip0_1_6817)">
<path id="Vector" d="M24.0645 16.4521C22.8174 16.4442 21.7496 17.2088 21.3093 18.2951C21.2434 18.4559 21.0905 18.5614 20.9164 18.5614H20.2494C19.3187 18.5614 18.562 17.8047 18.562 16.874V15.2129C21.5888 14.9625 23.9722 12.3681 23.9722 9.20422C23.9722 5.99553 21.3858 3.38006 18.127 3.19287C17.1646 1.30246 15.1661 0 12.846 0C9.73745 0 7.19845 2.33599 6.97698 5.29684C4.69108 5.92961 3.02742 7.86485 3.02742 10.156C3.02742 12.8585 5.34231 15.0785 8.26362 15.234H8.43763V16.874C8.43763 17.8047 7.68094 18.5614 6.75023 18.5614H6.08319C5.90917 18.5614 5.75625 18.4559 5.69034 18.2951C5.25003 17.2088 4.17959 16.4442 2.93514 16.4521C1.27938 16.4627 -0.054717 17.8521 0.00328727 19.5079C0.0560184 21.0898 1.35584 22.358 2.95359 22.358C4.19541 22.358 5.25531 21.5934 5.69298 20.5098C5.75625 20.3516 5.91181 20.2487 6.08319 20.2487H6.75023C8.61428 20.2487 10.125 18.738 10.125 16.874V15.4449C10.125 15.3289 10.2199 15.234 10.3359 15.234H12.4452C12.5612 15.234 12.6561 15.3289 12.6561 15.4449V20.9184C12.6561 21.0924 12.5507 21.2454 12.3898 21.3113C11.3036 21.7516 10.539 22.822 10.5469 24.0665C10.5574 25.7222 11.9495 27.0537 13.6026 26.9983C15.1872 26.9456 16.4528 25.6431 16.4528 24.048C16.4528 22.8062 15.6882 21.7463 14.6045 21.3086C14.4463 21.2454 14.3435 21.0898 14.3435 20.9184V15.4449C14.3435 15.3289 14.4384 15.234 14.5544 15.234H16.6637C16.7797 15.234 16.8746 15.3289 16.8746 15.4449V16.874C16.8746 18.738 18.3854 20.2487 20.2494 20.2487H20.9164C21.0878 20.2487 21.2434 20.3516 21.3067 20.5098C21.7443 21.5934 22.8042 22.358 24.046 22.358C25.6438 22.358 26.9436 21.0898 26.9963 19.5079C27.0544 17.8521 25.7203 16.4627 24.0645 16.4521ZM2.95359 20.6706C2.25491 20.6706 1.68805 20.1037 1.68805 19.4051C1.68805 18.7064 2.25491 18.1395 2.95359 18.1395C3.65228 18.1395 4.21914 18.7064 4.21914 19.4051C4.21914 20.1037 3.65228 20.6706 2.95359 20.6706ZM14.7654 24.0454C14.7654 24.7441 14.1985 25.3109 13.4998 25.3109C12.8011 25.3109 12.2343 24.7441 12.2343 24.0454C12.2343 23.3467 12.8011 22.7798 13.4998 22.7798C14.1985 22.7798 14.7654 23.3467 14.7654 24.0454ZM24.046 20.6706C23.3474 20.6706 22.7805 20.1037 22.7805 19.4051C22.7805 18.7064 23.3474 18.1395 24.046 18.1395C24.7447 18.1395 25.3116 18.7064 25.3116 19.4051C25.3116 20.1037 24.7447 20.6706 24.046 20.6706Z" fill="#6B05A8"/>
</g>
<defs>
<clipPath id="clip0_1_6817">
<rect width="27" height="27" fill="white"/>
</clipPath>
</defs>
</svg>
