<svg width="27" height="24" viewBox="0 0 27 24" fill="none" xmlns="http://www.w3.org/2000/svg">
<g id="&#228;&#186;&#139;&#228;&#187;&#182;&#231;&#174;&#161;&#231;&#144;&#134; 1" clip-path="url(#clip0_1_6819)">
<path id="Vector" d="M27.0083 5.59161C27.0083 5.00738 26.776 4.44708 26.3625 4.03396C25.9491 3.62085 25.3883 3.38876 24.8035 3.38876C21.1124 3.38876 14.1123 3.37041 14.5441 3.36123C14.3716 3.37016 14.199 3.34492 14.0363 3.28695C13.8736 3.22898 13.7239 3.13943 13.596 3.02346C13.596 3.02346 13.1459 2.25614 12.3411 1.06476C11.5162 -0.183516 10.5498 0.00923316 10.5351 0.0129046H2.20476C1.62002 0.0129046 1.05923 0.244989 0.645759 0.658103C0.232286 1.07122 0 1.63152 0 2.21575L0 21.7972C0 22.3814 0.232286 22.9417 0.645759 23.3549C1.05923 23.768 1.62002 24.0001 2.20476 24.0001H24.8035C25.0931 24.0001 25.3798 23.9431 25.6473 23.8324C25.9148 23.7217 26.1578 23.5594 26.3625 23.3549C26.5673 23.1503 26.7297 22.9075 26.8405 22.6402C26.9513 22.3729 27.0083 22.0865 27.0083 21.7972V5.59161ZM6.71165 18.6251H5.90875C5.67318 18.63 5.44419 18.5472 5.26628 18.3929C5.08836 18.2385 4.97422 18.0236 4.94601 17.7899C4.9345 17.6626 4.94972 17.5343 4.9907 17.4132C5.03168 17.2921 5.09752 17.1809 5.184 17.0868C5.27048 16.9926 5.3757 16.9175 5.49291 16.8663C5.61012 16.8151 5.73674 16.7889 5.86466 16.7894H6.66756C6.90212 16.7858 7.12975 16.8689 7.30675 17.0227C7.48376 17.1765 7.59767 17.3902 7.62663 17.6228C7.63839 17.7499 7.62347 17.8781 7.58283 17.9992C7.54219 18.1202 7.47672 18.2315 7.39061 18.3258C7.3045 18.4201 7.19964 18.4955 7.08273 18.547C6.96582 18.5985 6.83944 18.6251 6.71165 18.6251ZM6.71165 15.1483H5.90875C5.67402 15.1533 5.44574 15.0713 5.26795 14.9181C5.09016 14.7649 4.97547 14.5513 4.94601 14.3185C4.9345 14.1913 4.94972 14.063 4.9907 13.9419C5.03168 13.8208 5.09752 13.7096 5.184 13.6154C5.27048 13.5213 5.3757 13.4462 5.49291 13.395C5.61012 13.3438 5.73674 13.3176 5.86466 13.3181H6.66756C6.90331 13.3137 7.13231 13.3968 7.31018 13.5515C7.48805 13.7062 7.60212 13.9213 7.6303 14.1552C7.64074 14.2819 7.62471 14.4094 7.58324 14.5296C7.54177 14.6498 7.47576 14.76 7.38939 14.8534C7.30303 14.9468 7.19819 15.0212 7.08152 15.072C6.96485 15.1227 6.8389 15.1487 6.71165 15.1483ZM6.71165 11.6715H5.90875C5.67233 11.6762 5.44264 11.5927 5.26459 11.4372C5.08655 11.2817 4.97295 11.0654 4.94601 10.8307C4.9345 10.7034 4.94972 10.5751 4.9907 10.454C5.03168 10.333 5.09752 10.2218 5.184 10.1276C5.27048 10.0334 5.3757 9.95832 5.49291 9.90712C5.61012 9.85591 5.73674 9.82973 5.86466 9.83025H6.66756C6.90303 9.82578 7.13179 9.90871 7.30962 10.063C7.48744 10.2173 7.6017 10.4319 7.6303 10.6655C7.64263 10.7932 7.62802 10.9221 7.58741 11.0439C7.5468 11.1656 7.48109 11.2775 7.39452 11.3723C7.30796 11.4671 7.20246 11.5427 7.08484 11.5942C6.96722 11.6457 6.84009 11.6721 6.71165 11.6715ZM21.1602 18.6251H9.80383C9.56825 18.63 9.33927 18.5472 9.16135 18.3929C8.98344 18.2385 8.86929 18.0236 8.84108 17.7899C8.82957 17.6626 8.84479 17.5343 8.88577 17.4132C8.92676 17.2921 8.9926 17.1809 9.07908 17.0868C9.16556 16.9926 9.27077 16.9175 9.38798 16.8663C9.50519 16.8151 9.63181 16.7889 9.75973 16.7894H21.1161C21.3506 16.7858 21.5783 16.8689 21.7553 17.0227C21.9323 17.1765 22.0462 17.3902 22.0752 17.6228C22.0869 17.7499 22.072 17.8781 22.0313 17.9992C21.9907 18.1202 21.9252 18.2315 21.8391 18.3258C21.753 18.4201 21.6482 18.4955 21.5312 18.547C21.4143 18.5985 21.288 18.6251 21.1602 18.6251ZM21.1602 15.1483H9.80383C9.56909 15.1533 9.34081 15.0713 9.16302 14.9181C8.98524 14.7649 8.87055 14.5513 8.84108 14.3185C8.82957 14.1913 8.84479 14.063 8.88577 13.9419C8.92676 13.8208 8.9926 13.7096 9.07908 13.6154C9.16556 13.5213 9.27077 13.4462 9.38798 13.395C9.50519 13.3438 9.63181 13.3176 9.75973 13.3181H21.1161C21.3518 13.3137 21.5808 13.3968 21.7587 13.5515C21.9366 13.7062 22.0506 13.9213 22.0788 14.1552C22.0893 14.2819 22.0732 14.4094 22.0318 14.5296C21.9903 14.6498 21.9243 14.76 21.8379 14.8534C21.7515 14.9468 21.6467 15.0212 21.53 15.072C21.4134 15.1227 21.2874 15.1487 21.1602 15.1483ZM21.1602 11.6715H9.80383C9.56741 11.6762 9.33772 11.5927 9.15967 11.4372C8.98162 11.2817 8.86802 11.0654 8.84108 10.8307C8.82957 10.7034 8.84479 10.5751 8.88577 10.454C8.92676 10.333 8.9926 10.2218 9.07908 10.1276C9.16556 10.0334 9.27077 9.95832 9.38798 9.90712C9.50519 9.85591 9.63181 9.82973 9.75973 9.83025H21.1161C21.3515 9.82578 21.5803 9.90871 21.7581 10.063C21.936 10.2173 22.0502 10.4319 22.0788 10.6655C22.0912 10.7932 22.0765 10.9221 22.0359 11.0439C21.9953 11.1656 21.9296 11.2775 21.843 11.3723C21.7565 11.4671 21.651 11.5427 21.5334 11.5942C21.4157 11.6457 21.2886 11.6721 21.1602 11.6715Z" fill="#3DCD58"/>
</g>
<defs>
<clipPath id="clip0_1_6819">
<rect width="27" height="24" fill="white"/>
</clipPath>
</defs>
</svg>
