<svg width="32" height="32" viewBox="0 0 32 32" fill="none" xmlns="http://www.w3.org/2000/svg">
<g id="&#229;&#140;&#187;&#229;&#173;&#166;&#231;&#159;&#165;&#232;&#175;&#134;&#230;&#163;&#128;&#231;&#180;&#162;.svg" clip-path="url(#clip0_1_6654)">
<g id="Group 1321316337">
<path id="Vector" d="M23.9347 3.08557C24.489 3.08557 25.0205 3.30575 25.4124 3.69766C25.8043 4.08957 26.0245 4.62112 26.0245 5.17537V16.4937C25.04 15.6429 23.8317 15.0928 22.5435 14.9089C21.2554 14.725 19.9415 14.915 18.7582 15.4564C17.5749 15.9977 16.572 16.8676 15.8689 17.9625C15.1657 19.0574 14.7919 20.3313 14.7919 21.6325C14.7919 24.4913 16.4083 27.09 18.8377 28.1631H8.26127C7.98684 28.1631 7.71509 28.1091 7.46154 28.004C7.208 27.899 6.97762 27.7451 6.78356 27.551C6.58951 27.357 6.43558 27.1266 6.33055 26.873C6.22553 26.6195 6.17148 26.3477 6.17148 26.0733V5.17537C6.17148 4.62112 6.39165 4.08957 6.78356 3.69766C7.17548 3.30575 7.70702 3.08557 8.26127 3.08557H23.9347ZM19.2327 11.706H10.8735L10.7669 11.7133C10.5702 11.7404 10.3911 11.8411 10.2658 11.9951C10.1405 12.1491 10.0784 12.345 10.0919 12.5431C10.1054 12.7412 10.1937 12.9267 10.3387 13.0623C10.4838 13.1978 10.675 13.2733 10.8735 13.2733H19.2327L19.3393 13.266C19.536 13.2389 19.7151 13.1382 19.8404 12.9842C19.9657 12.8302 20.0278 12.6343 20.0143 12.4362C20.0008 12.2381 19.9125 12.0526 19.7675 11.917C19.6224 11.7815 19.4312 11.706 19.2327 11.706ZM17.1429 8.57128H10.8735L10.7669 8.5786C10.5702 8.60566 10.3911 8.70638 10.2658 8.86041C10.1405 9.01443 10.0784 9.21028 10.0919 9.40837C10.1054 9.60646 10.1937 9.79204 10.3387 9.92759C10.4838 10.0631 10.675 10.1386 10.8735 10.1386H17.1429L17.2495 10.1313C17.4462 10.1042 17.6253 10.0035 17.7506 9.8495C17.8759 9.69548 17.938 9.49963 17.9245 9.30154C17.911 9.10345 17.8227 8.91787 17.6777 8.78232C17.5326 8.64677 17.3414 8.57134 17.1429 8.57128Z" fill="#5089FC"/>
<path id="Vector_2" d="M28.4016 28.4505C28.0881 28.7639 27.5803 28.7639 27.2668 28.4505L25.106 26.2896C23.9658 27.1428 22.5447 27.5325 21.1289 27.3801C19.713 27.2277 18.4074 26.5446 17.4749 25.4683C16.5424 24.392 16.0523 23.0024 16.1031 21.5792C16.154 20.156 16.7422 18.805 17.7491 17.798C18.7561 16.791 20.1071 16.2029 21.5303 16.152C22.9535 16.1012 24.3431 16.5913 25.4194 17.5238C26.4957 18.4563 27.1788 19.7618 27.3312 21.1777C27.4836 22.5936 27.094 24.0147 26.2407 25.1549L28.4016 27.3157C28.715 27.6292 28.715 28.137 28.4016 28.4505ZM21.7404 17.7141C20.6596 17.7141 19.6231 18.1435 18.8588 18.9077C18.0946 19.6719 17.6653 20.7085 17.6653 21.7892C17.6653 22.87 18.0946 23.9065 18.8588 24.6708C19.6231 25.435 20.6596 25.8643 21.7404 25.8643C22.8211 25.8643 23.8576 25.435 24.6219 24.6708C25.3861 23.9065 25.8154 22.87 25.8154 21.7892C25.8154 20.7085 25.3861 19.6719 24.6219 18.9077C23.8576 18.1435 22.8211 17.7141 21.7404 17.7141Z" fill="#5089FC"/>
</g>
</g>
<defs>
<clipPath id="clip0_1_6654">
<rect width="32" height="32" fill="white"/>
</clipPath>
</defs>
</svg>
