<svg width="32" height="32" viewBox="0 0 32 32" fill="none" xmlns="http://www.w3.org/2000/svg">
<g id="&#231;&#159;&#165;&#232;&#175;&#134;&#228;&#184;&#147;&#229;&#174;&#182;1 1" clip-path="url(#clip0_345_164)">
<path id="Vector" d="M15.9971 10.8665C14.9934 10.866 13.9954 10.7132 13.0365 10.4132L1.18938 6.71581C0.961999 6.64416 0.76323 6.50093 0.622087 6.30701C0.480943 6.1131 0.404816 5.87867 0.404816 5.63794C0.404816 5.3972 0.480943 5.16277 0.622087 4.96886C0.76323 4.77495 0.961999 4.63172 1.18938 4.56006L13.0381 0.867505C14.9652 0.264787 17.0274 0.264787 18.9545 0.867505L30.837 4.56331C31.0644 4.63497 31.2631 4.7782 31.4043 4.97211C31.5454 5.16602 31.6215 5.40045 31.6215 5.64119C31.6215 5.88192 31.5454 6.11635 31.4043 6.31026C31.2631 6.50417 31.0644 6.64741 30.837 6.71906L18.9545 10.4149C17.9965 10.7139 16.9997 10.8661 15.9971 10.8665ZM5.30398 5.642L13.6939 8.25749C15.1927 8.72612 16.7967 8.72612 18.2955 8.25749L26.7111 5.642L18.2971 3.02488C16.7983 2.55626 15.1943 2.55626 13.6955 3.02488L5.30398 5.642Z" fill="#196898"/>
<path id="Vector_2" d="M15.9955 20.3099C13.627 20.3099 11.3554 19.359 9.6805 17.6664C8.00555 15.9737 7.06436 13.678 7.06393 11.284V8.46381H9.29642V11.284C9.32366 13.0614 10.0414 14.7567 11.2946 16.0039C12.5478 17.2511 14.236 17.9502 15.9947 17.9502C17.7534 17.9502 19.4416 17.2511 20.6948 16.0039C21.948 14.7567 22.6657 13.0614 22.693 11.284V8.46381H24.9255V11.284C24.925 13.6777 23.9841 15.9732 22.3095 17.6658C20.6349 19.3584 18.3637 20.3095 15.9955 20.3099ZM2.59895 6.76942H4.83144V12.4114C4.83714 12.5632 4.81248 12.7145 4.75896 12.8565C4.70543 12.9984 4.62412 13.1279 4.51991 13.2373C4.41569 13.3467 4.29071 13.4338 4.15244 13.4932C4.01417 13.5526 3.86545 13.5833 3.71519 13.5833C3.56493 13.5833 3.41622 13.5526 3.27795 13.4932C3.13968 13.4338 3.0147 13.3467 2.91048 13.2373C2.80627 13.1279 2.72496 12.9984 2.67143 12.8565C2.6179 12.7145 2.59325 12.5632 2.59895 12.4114V6.76942Z" fill="#196898"/>
<path id="Vector_3" d="M2.04123 16.3606C2.04123 16.6954 2.13945 17.0227 2.32348 17.3011C2.5075 17.5795 2.76907 17.7964 3.07509 17.9245C3.38112 18.0527 3.71786 18.0862 4.04273 18.0209C4.3676 17.9556 4.66602 17.7943 4.90024 17.5576C5.13446 17.3209 5.29397 17.0192 5.35859 16.6909C5.42321 16.3625 5.39004 16.0222 5.26328 15.7128C5.13653 15.4035 4.92187 15.1392 4.64645 14.9532C4.37104 14.7672 4.04724 14.6679 3.716 14.6679C3.27182 14.6679 2.84584 14.8462 2.53176 15.1637C2.21768 15.4811 2.04123 15.9117 2.04123 16.3606Z" fill="#196898"/>
<path id="Vector_4" d="M28.275 31.5939H3.71599C3.42038 31.5917 3.13747 31.4721 2.92844 31.2608C2.71941 31.0495 2.60104 30.7636 2.59894 30.4648C2.59827 28.513 3.01535 26.5841 3.82156 24.8105C4.62777 23.0369 5.80404 21.4606 7.26965 20.1897C7.46128 20.0231 7.7032 19.9272 7.95579 19.9177C8.20838 19.9083 8.45665 19.9858 8.65993 20.1377C10.7869 21.7154 13.3564 22.5662 15.9947 22.5662C18.633 22.5662 21.2025 21.7154 23.3294 20.1377C23.5327 19.9858 23.781 19.9083 24.0336 19.9177C24.2862 19.9272 24.5281 20.0231 24.7197 20.1897C26.1853 21.4606 27.3616 23.0369 28.1678 24.8105C28.974 26.5841 29.3911 28.513 29.3904 30.4648C29.3883 30.7633 29.2702 31.049 29.0615 31.2603C28.8528 31.4715 28.5703 31.5913 28.275 31.5939ZM4.88768 29.3374H27.1033C26.846 26.7478 25.7103 24.3279 23.8888 22.4884C21.532 24.0132 18.7922 24.8236 15.9939 24.8236C13.1956 24.8236 10.4558 24.0132 8.099 22.4884C6.27899 24.328 5.14443 26.7472 4.88768 29.3358V29.3374Z" fill="#196898"/>
</g>
<defs>
<clipPath id="clip0_345_164">
<rect width="32" height="32" fill="white"/>
</clipPath>
</defs>
</svg>
