<svg width="128" height="128" viewBox="0 0 128 128" fill="none" xmlns="http://www.w3.org/2000/svg">
<rect opacity="0.01" width="128" height="128" fill="white"/>
<path opacity="0.65855" d="M75.818 42.5222C70.5851 42.4391 66.3865 38.1703 66.3865 32.9328C66.3865 27.6953 70.5851 23.4265 75.818 23.3436C77.0225 23.3425 78.2159 23.5743 79.3325 24.0262C79.3151 23.8012 79.3063 23.5737 79.3062 23.3439C79.2664 20.2879 80.8727 17.4469 83.5108 15.9074C86.1488 14.3678 89.4106 14.3678 92.0487 15.9074C94.6867 17.4469 96.293 20.2879 96.2532 23.3439C96.2548 24.4551 96.0421 25.5562 95.627 26.5869C96.9415 25.7844 98.4518 25.3607 99.9916 25.3626C104.691 25.4124 108.475 29.2391 108.475 33.9424C108.475 38.6458 104.691 42.4725 99.9916 42.5222H75.818Z" fill="url(#paint0_linear_417_33583)" fill-opacity="0.2"/>
<path d="M8.30302 97.1684C8.30302 97.1684 3.65275 77.1061 7.86941 73.673C12.0861 70.2399 16.3276 77.7215 16.3276 77.7215C16.3276 77.7215 10.9908 59.5329 17.2675 57.7682C23.5443 56.0035 27.8224 74.3234 27.8224 74.3234C27.8224 74.3234 26.2045 62.4937 32.1773 61.3586C38.1502 60.2234 44.7433 83.0418 44.7433 83.0418L8.30302 97.1684Z" fill="url(#paint1_linear_417_33583)"/>
<ellipse opacity="0.308892" cx="64.217" cy="100.664" rx="61.1797" ry="16.922" fill="url(#paint2_linear_417_33583)" fill-opacity="0.2"/>
<path d="M25.002 80.8646C25.002 80.8646 28.3448 89.5415 34.5745 85.1045C39.2179 82.7354 40.5689 85.1798 40.5689 85.1798C40.5689 85.1798 39.0476 82.4705 34.8962 84.2246C31.1742 77.3914 25.002 80.8646 25.002 80.8646Z" fill="url(#paint3_linear_417_33583)" fill-opacity="0.2"/>
<path d="M11.0588 57.7375C11.0588 57.7375 12.49 62.7079 16.1579 60.552C18.8457 59.4646 19.4757 60.8846 19.4757 60.8846C19.4757 60.8846 18.7642 59.3093 16.3785 60.08C14.648 56.1121 11.0588 57.7375 11.0588 57.7375Z" fill="url(#paint4_linear_417_33583)" fill-opacity="0.2"/>
<path d="M37.5323 39.4846V39.4846C40.0485 39.4846 42.0882 41.5199 42.0882 44.0305V54.2372H32.9763V44.0305C32.9763 41.5199 35.0161 39.4846 37.5323 39.4846Z" fill="#D7DBE1"/>
<path d="M37.3152 39.4923C37.3152 39.4923 40.2165 39.7609 40.2996 45.5166C40.3828 51.2723 40.8807 81.7105 40.8807 81.7105C40.8807 81.7105 40.7619 88.4662 46.0565 88.064C51.3511 87.6618 78.9694 86.2848 78.9694 86.2848L77.6139 50.917C77.6139 50.917 78.0789 39.9286 69.7401 39.5334C66.1872 39.4583 37.3152 39.4923 37.3152 39.4923Z" fill="url(#paint5_linear_417_33583)"/>
<path d="M48.5967 87.6474C48.5967 87.6474 51.2113 87.6864 54.7699 82.1768C58.3285 76.6673 62.8315 81.0675 62.8315 81.0675L65.5187 86.8064L48.5967 87.6474Z" fill="#D7DBE1"/>
<path d="M59.8779 79.5347C59.8779 79.5347 64.8581 80.2334 64.4781 89.8169C74.6992 89.6676 100.664 89.8169 100.664 89.8169C100.664 89.8169 100.358 79.8303 93.9991 79.5347C87.64 79.2391 59.8779 79.5347 59.8779 79.5347Z" fill="url(#paint6_linear_417_33583)"/>
<path fill-rule="evenodd" clip-rule="evenodd" d="M97.7252 76.0083L99.1369 74.9827C99.656 74.6045 99.7711 73.8775 99.394 73.3576L97.2572 70.4166C96.9456 69.9873 96.3829 69.8233 95.8895 70.0182L93.7634 67.0919C96.8942 64.0155 97.1117 59.0414 94.2613 55.7036C91.4109 52.3657 86.464 51.8017 82.9355 54.4123C79.4069 57.0229 78.4992 61.9184 80.8572 65.6205C83.2153 69.3226 88.0354 70.5696 91.893 68.4756L94.0071 71.3854C93.6692 71.7945 93.6512 72.3806 93.9634 72.8097L96.1004 75.7509C96.4784 76.27 97.2053 76.3851 97.7252 76.0083ZM85.2553 63.0506C84.1932 61.5887 84.5172 59.5427 85.9791 58.4806C87.4414 57.4204 89.486 57.7442 90.5491 59.2044C91.6112 60.6663 91.2871 62.7123 89.8253 63.7744C88.3634 64.8365 86.3174 64.5124 85.2553 63.0506Z" fill="url(#paint7_linear_417_33583)"/>
<path d="M22.8968 35.5797C20.7953 35.5797 19.0916 33.8347 19.0916 31.6821C19.0916 29.5294 20.7953 27.7844 22.8968 27.7844C23.3812 27.7839 23.861 27.8781 24.3095 28.0618C24.3025 27.9703 24.2989 27.8778 24.2988 27.7844C24.2749 26.5471 24.9186 25.3933 25.9818 24.7676C27.0451 24.1419 28.362 24.1419 29.4253 24.7676C30.4885 25.3933 31.1322 26.5471 31.1083 27.7844C31.109 28.2359 31.0236 28.6834 30.8567 29.1026C31.3841 28.7767 31.9913 28.6044 32.6105 28.605C34.501 28.6435 36.0136 30.1935 36.0136 32.0924C36.0136 33.9913 34.501 35.5413 32.6105 35.5797H22.8968Z" fill="url(#paint8_linear_417_33583)" fill-opacity="0.2"/>
<rect x="45.5593" y="53.8035" width="27.3356" height="5.20678" rx="2.60339" fill="white"/>
<rect x="45.5593" y="63.783" width="16.0542" height="5.20678" rx="2.60339" fill="white"/>
<defs>
<linearGradient id="paint0_linear_417_33583" x1="66.3865" y1="14.7527" x2="66.3865" y2="42.5222" gradientUnits="userSpaceOnUse">
<stop stop-color="#2DADAD" stop-opacity="0.620342"/>
<stop offset="1" stop-color="white"/>
</linearGradient>
<linearGradient id="paint1_linear_417_33583" x1="7.31912" y1="58.7127" x2="11.1615" y2="88.1499" gradientUnits="userSpaceOnUse">
<stop stop-color="#F8F8F8" stop-opacity="0.71"/>
<stop offset="1" stop-color="#E2E7F2" stop-opacity="0.01"/>
</linearGradient>
<linearGradient id="paint2_linear_417_33583" x1="25.1449" y1="83.7424" x2="25.1449" y2="105.357" gradientUnits="userSpaceOnUse">
<stop stop-color="#2DADAD" stop-opacity="0.620342"/>
<stop offset="1" stop-color="white"/>
</linearGradient>
<linearGradient id="paint3_linear_417_33583" x1="23.8213" y1="83.1826" x2="37.9265" y2="90.3674" gradientUnits="userSpaceOnUse">
<stop stop-color="#2DADAD" stop-opacity="0.620342"/>
<stop offset="1" stop-color="white"/>
</linearGradient>
<linearGradient id="paint4_linear_417_33583" x1="10.292" y1="58.9646" x2="17.7596" y2="63.6309" gradientUnits="userSpaceOnUse">
<stop stop-color="#2DADAD" stop-opacity="0.620342"/>
<stop offset="1" stop-color="white"/>
</linearGradient>
<linearGradient id="paint5_linear_417_33583" x1="37.3152" y1="39.4846" x2="37.3152" y2="88.0812" gradientUnits="userSpaceOnUse">
<stop stop-color="#EAEEF2"/>
<stop offset="1" stop-color="#E1E6ED"/>
</linearGradient>
<linearGradient id="paint6_linear_417_33583" x1="59.8779" y1="79.4033" x2="59.8779" y2="89.8169" gradientUnits="userSpaceOnUse">
<stop stop-color="#EAEEF2"/>
<stop offset="1" stop-color="#E1E6ED"/>
</linearGradient>
<linearGradient id="paint7_linear_417_33583" x1="76.2324" y1="59.282" x2="91.6118" y2="80.4499" gradientUnits="userSpaceOnUse">
<stop stop-color="#59DDAF"/>
<stop offset="1" stop-color="#26BA84"/>
</linearGradient>
<linearGradient id="paint8_linear_417_33583" x1="19.0916" y1="24.2983" x2="19.0916" y2="35.5797" gradientUnits="userSpaceOnUse">
<stop stop-color="#2DADAD" stop-opacity="0.620342"/>
<stop offset="1" stop-color="white"/>
</linearGradient>
</defs>
</svg>
