<svg width="36" height="36" viewBox="0 0 36 36" fill="none" xmlns="http://www.w3.org/2000/svg">
<g clip-path="url(#clip0_1222_10261)">
<path d="M1.88086 18.2754C1.88086 20.3567 2.29081 22.4177 3.08729 24.3405C3.88378 26.2634 5.05121 28.0106 6.52292 29.4823C7.99464 30.954 9.74182 32.1215 11.6647 32.918C13.5876 33.7144 15.6485 34.1244 17.7299 34.1244C19.8112 34.1244 21.8721 33.7144 23.795 32.918C25.7179 32.1215 27.4651 30.954 28.9368 29.4823C30.4085 28.0106 31.5759 26.2634 32.3724 24.3405C33.1689 22.4177 33.5789 20.3567 33.5789 18.2754C33.5789 16.1941 33.1689 14.1331 32.3724 12.2102C31.5759 10.2874 30.4085 8.54017 28.9368 7.06846C27.4651 5.59674 25.7179 4.42931 23.795 3.63282C21.8721 2.83634 19.8112 2.42639 17.7299 2.42639C15.6485 2.42639 13.5876 2.83634 11.6647 3.63282C9.74182 4.42931 7.99464 5.59674 6.52292 7.06846C5.05121 8.54017 3.88378 10.2874 3.08729 12.2102C2.29081 14.1331 1.88086 16.1941 1.88086 18.2754Z" fill="#FFE3DB"/>
<path d="M28.0766 15.0606C27.893 14.3028 27.1982 13.0428 26.4782 12.006C26.1614 11.5506 25.4594 11.6622 25.2938 12.1932C25.0346 13.014 24.6224 13.9572 23.906 14.805C23.7746 14.9598 23.519 14.8806 23.5064 14.6772C23.3696 12.5766 22.3742 7.14597 15.3542 6.38277C14.87 6.33057 14.492 6.80037 14.6504 7.26117C15.1796 8.80917 15.6044 11.7846 13.1798 13.608C13.0808 13.6818 12.944 13.6566 12.8666 13.5612C12.0584 12.5316 11.0504 11.8998 9.68416 11.6442C9.20716 11.556 8.80576 11.9898 8.91556 12.4632C9.12796 13.3758 9.21616 14.9328 8.34676 17.0532C6.88696 20.6082 5.20396 29.1942 18.5978 29.1942C31.9916 29.1942 28.334 16.1244 28.0766 15.0606ZM12.44 24.6546C12.3378 24.7504 12.2178 24.825 12.0867 24.8744C11.9557 24.9237 11.8162 24.9467 11.6762 24.942C11.5362 24.9373 11.3986 24.905 11.2711 24.8471C11.1437 24.7891 11.0289 24.7066 10.9334 24.6042C9.14956 22.6962 9.92536 19.1376 10.019 18.738C10.154 18.1656 10.7282 17.8092 11.3006 17.946C11.4366 17.9779 11.5651 18.0364 11.6785 18.1181C11.792 18.1997 11.8882 18.3029 11.9618 18.4217C12.0353 18.5406 12.0847 18.6728 12.1072 18.8107C12.1296 18.9487 12.1246 19.0897 12.0926 19.2258C11.9234 19.953 11.6336 22.2318 12.4886 23.148C12.8918 23.5782 12.8702 24.2532 12.44 24.6546Z" fill="#F23D4F"/>
<path d="M27.8498 14.4054C27.542 13.6836 27.0164 12.7818 26.4782 12.006C26.1614 11.5506 25.4594 11.6622 25.2938 12.1932C25.0346 13.014 24.6224 13.9572 23.906 14.805C23.7746 14.9598 23.519 14.8806 23.5064 14.6772C23.3696 12.5766 22.3742 7.14597 15.3542 6.38277C14.87 6.33057 14.492 6.80037 14.6504 7.26117C15.1796 8.80917 15.6044 11.7846 13.1798 13.608C13.0808 13.6818 12.944 13.6566 12.8666 13.5612C12.0584 12.5316 11.0504 11.8998 9.6842 11.6442C9.2072 11.556 8.8058 11.9898 8.9156 12.4632C9.128 13.3758 9.2162 14.9328 8.3468 17.0532C7.0724 20.1564 5.6306 27.09 14.1878 28.8054C21.6344 28.0692 27.4988 21.9582 27.8498 14.4054ZM12.44 24.6546C12.3379 24.7504 12.2178 24.825 12.0868 24.8744C11.9557 24.9237 11.8162 24.9467 11.6762 24.942C11.5363 24.9373 11.3986 24.905 11.2712 24.8471C11.1437 24.7891 11.0289 24.7066 10.9334 24.6042C9.1496 22.6962 9.9254 19.1376 10.019 18.738C10.154 18.1656 10.7282 17.8092 11.3006 17.946C11.4367 17.9779 11.5651 18.0364 11.6785 18.1181C11.792 18.1997 11.8883 18.3029 11.9618 18.4217C12.0354 18.5406 12.0848 18.6728 12.1072 18.8107C12.1297 18.9487 12.1247 19.0897 12.0926 19.2258C11.9234 19.953 11.6336 22.2318 12.4886 23.148C12.8918 23.5782 12.8702 24.2532 12.44 24.6546Z" fill="#FC4956"/>
<path d="M23.1247 12.4794C22.4281 10.0476 20.5309 6.94617 15.3523 6.38277C14.8681 6.33057 14.4901 6.80037 14.6485 7.26117C15.1777 8.80917 15.6025 11.7846 13.1779 13.608C13.0789 13.6818 12.9421 13.6566 12.8647 13.5612C12.0565 12.5316 11.0485 11.8998 9.68227 11.6442C9.20527 11.556 8.80388 11.9898 8.91368 12.4632C9.12608 13.3758 9.21428 14.9328 8.34488 17.0532C7.70768 18.6048 7.02728 21.1158 7.57988 23.454C7.89308 23.4738 8.20628 23.4864 8.52488 23.4864C9.08468 23.4864 9.63548 23.454 10.1791 23.3946C9.41408 21.4776 9.94148 19.0656 10.0171 18.7398C10.1521 18.1674 10.7263 17.811 11.2987 17.9478C11.4347 17.9797 11.5632 18.0382 11.6766 18.1199C11.7901 18.2015 11.8863 18.3047 11.9599 18.4235C12.0334 18.5424 12.0828 18.6746 12.1053 18.8125C12.1277 18.9505 12.1228 19.0915 12.0907 19.2276C11.9305 19.917 11.6641 21.9996 12.3643 22.9932C17.5537 21.6414 21.6559 17.6166 23.1247 12.4794Z" fill="#FF5C64"/>
<path d="M15.3524 6.38277C14.8682 6.33057 14.4902 6.80037 14.6486 7.26117C15.1778 8.80917 15.6026 11.7846 13.178 13.608C13.079 13.6818 12.9422 13.6566 12.8648 13.5612C12.0566 12.5316 11.0486 11.8998 9.68235 11.6442C9.20535 11.556 8.80396 11.9898 8.91376 12.4632C9.12616 13.3758 9.21436 14.9328 8.34496 17.0532C8.25468 17.2756 8.16946 17.5001 8.08936 17.7264C13.3562 16.5258 17.5826 12.5928 19.19 7.49337C18.1712 6.95157 16.9112 6.55197 15.3524 6.38277Z" fill="#FF716E"/>
</g>
<defs>
<clipPath id="clip0_1222_10261">
<rect width="36" height="36" fill="white"/>
</clipPath>
</defs>
</svg>
