<svg width="36" height="36" viewBox="0 0 36 36" fill="none" xmlns="http://www.w3.org/2000/svg">
<g clip-path="url(#clip0_1222_10286)">
<path d="M2.27002 17.8254C2.27002 19.9068 2.67997 21.9677 3.47645 23.8906C4.27294 25.8135 5.44037 27.5607 6.91208 29.0324C8.3838 30.5041 10.131 31.6715 12.0539 32.468C13.9768 33.2645 16.0377 33.6744 18.119 33.6744C20.2003 33.6744 22.2613 33.2645 24.1842 32.468C26.1071 31.6715 27.8542 30.5041 29.326 29.0324C30.7977 27.5607 31.9651 25.8135 32.7616 23.8906C33.5581 21.9677 33.968 19.9068 33.968 17.8254C33.968 15.7441 33.5581 13.6832 32.7616 11.7603C31.9651 9.8374 30.7977 8.09022 29.326 6.61851C27.8542 5.14679 26.1071 3.97936 24.1842 3.18287C22.2613 2.38639 20.2003 1.97644 18.119 1.97644C16.0377 1.97644 13.9768 2.38639 12.0539 3.18287C10.131 3.97936 8.3838 5.14679 6.91208 6.61851C5.44037 8.09022 4.27294 9.8374 3.47645 11.7603C2.67997 13.6832 2.27002 15.7441 2.27002 17.8254Z" fill="#FFF1DC"/>
<path d="M18.119 6.36121C11.7884 6.36121 6.65479 11.493 6.65479 17.8254C6.65479 24.1578 11.7866 29.2896 18.119 29.2896C24.4514 29.2896 29.5832 24.1578 29.5832 17.8254C29.5832 11.493 24.4496 6.36121 18.119 6.36121ZM21.5822 23.1552L18.119 21.3336L14.6558 23.1552L15.3182 19.2978L12.5138 16.5672L16.3856 16.0038L18.1172 12.4956L19.8488 16.0038L23.7206 16.5672L20.918 19.2978L21.5822 23.1552Z" fill="#FC7032"/>
<path d="M28.046 12.096C26.0642 8.66881 22.3616 6.36121 18.119 6.36121C11.7884 6.36121 6.65479 11.493 6.65479 17.8254C6.65479 21.8304 8.71038 25.353 11.8226 27.4032C12.1088 27.4194 12.3986 27.4284 12.6884 27.4284C21.161 27.4284 28.0316 20.5668 28.046 12.096ZM18.119 21.3336L14.6558 23.1552L15.3182 19.2978L12.5138 16.5672L16.3856 16.0038L18.1172 12.4956L19.8488 16.0038L23.7206 16.5672L20.918 19.2978L21.5804 23.1552L18.119 21.3336Z" fill="#FF7E3E"/>
<path d="M18.119 6.36121C11.7884 6.36121 6.65479 11.493 6.65479 17.8254C6.65479 19.2744 6.92658 20.6604 7.41798 21.9366C7.77078 21.9618 8.12719 21.9744 8.48719 21.9744C10.8614 21.9744 13.1096 21.4362 15.1166 20.4732L15.3182 19.2978L12.5138 16.5672L16.3856 16.0038L18.1172 12.4956L19.8488 16.0038L20.5598 16.1064C22.3742 13.8006 23.5424 10.9638 23.7926 7.86601C22.0652 6.87776 20.1091 6.35896 18.119 6.36121Z" fill="#FF9552"/>
<path d="M6.74658 16.3908C12.4562 15.6006 17.1632 11.673 19.0694 6.40257C18.7562 6.37737 18.4394 6.35938 18.1172 6.35938C12.2726 6.36117 7.45218 10.737 6.74658 16.3908Z" fill="#FFA56A"/>
</g>
<defs>
<clipPath id="clip0_1222_10286">
<rect width="36" height="36" fill="white"/>
</clipPath>
</defs>
</svg>
