<svg width="36" height="36" viewBox="0 0 36 36" fill="none" xmlns="http://www.w3.org/2000/svg">
<g clip-path="url(#clip0_1222_10267)">
<path d="M2.14551 17.955C2.14551 20.0363 2.55545 22.0972 3.35194 24.0201C4.14843 25.943 5.31586 27.6902 6.78757 29.1619C8.25929 30.6336 10.0065 31.801 11.9294 32.5975C13.8522 33.394 15.9132 33.804 17.9945 33.804C20.0758 33.804 22.1368 33.394 24.0597 32.5975C25.9825 31.801 27.7297 30.6336 29.2014 29.1619C30.6732 27.6902 31.8406 25.943 32.6371 24.0201C33.4336 22.0972 33.8435 20.0363 33.8435 17.955C33.8435 13.7515 32.1737 9.72029 29.2014 6.74802C26.2292 3.77576 22.1979 2.10596 17.9945 2.10596C13.7911 2.10596 9.75984 3.77576 6.78757 6.74802C3.81531 9.72029 2.14551 13.7515 2.14551 17.955Z" fill="#FBE1FF"/>
<path d="M24.838 8.34839H11.1508C9.20684 8.34839 7.63184 9.92339 7.63184 11.8674V24.0444C7.63184 25.9884 9.20684 27.5634 11.1508 27.5634H24.8362C26.7802 27.5634 28.3552 25.9884 28.3552 24.0444V11.8674C28.3552 9.92339 26.7802 8.34839 24.838 8.34839ZM20.6854 14.3586C20.6854 14.1966 20.8168 14.067 20.977 14.067H23.0956C23.2576 14.067 23.3872 14.1984 23.3872 14.3586V20.7702C23.3872 20.9322 23.2558 21.0618 23.0956 21.0618H20.977C20.815 21.0618 20.6854 20.9304 20.6854 20.7702V14.3586ZM16.6426 12.249C16.6426 12.087 16.774 11.9574 16.9342 11.9574H19.0528C19.2148 11.9574 19.3444 12.0888 19.3444 12.249V20.7702C19.3444 20.9322 19.213 21.0618 19.0528 21.0618H16.9342C16.7722 21.0618 16.6426 20.9304 16.6426 20.7702V12.249ZM12.6016 16.497C12.6016 16.335 12.733 16.2054 12.8932 16.2054H15.0118C15.1738 16.2054 15.3034 16.3368 15.3034 16.497V20.7702C15.3034 20.9322 15.172 21.0618 15.0118 21.0618H12.8932C12.7312 21.0618 12.6016 20.9304 12.6016 20.7702V16.497ZM23.9416 24.4242H12.0688C11.473 24.4242 10.9888 23.94 10.9888 23.3442C10.9888 22.7484 11.473 22.2642 12.0688 22.2642H23.9416C24.5374 22.2642 25.0216 22.7484 25.0216 23.3442C25.0216 23.94 24.5392 24.4242 23.9416 24.4242Z" fill="#BD50D3"/>
<path d="M24.838 8.34839H11.1508C9.20684 8.34839 7.63184 9.92339 7.63184 11.8674V24.0444C7.63184 25.5492 8.57864 26.8308 9.90704 27.333C10.735 27.4662 11.5828 27.5364 12.4468 27.5364C15.9802 27.5364 19.2436 26.379 21.8788 24.426H12.0688C11.473 24.426 10.9888 23.9418 10.9888 23.346C10.9888 22.7502 11.473 22.266 12.0688 22.266H23.9416C24.037 22.266 24.1288 22.2804 24.217 22.302C26.7532 19.4922 28.2976 15.7698 28.2976 11.6874C28.2976 11.52 28.294 11.3526 28.2886 11.1852C27.97 9.56879 26.548 8.34839 24.838 8.34839ZM15.3034 20.7702C15.3034 20.9322 15.172 21.0618 15.0118 21.0618H12.8932C12.7312 21.0618 12.6016 20.9304 12.6016 20.7702V16.497C12.6016 16.335 12.733 16.2054 12.8932 16.2054H15.0118C15.1738 16.2054 15.3034 16.3368 15.3034 16.497V20.7702ZM19.3462 20.7702C19.3462 20.9322 19.2148 21.0618 19.0546 21.0618H16.9342C16.7722 21.0618 16.6426 20.9304 16.6426 20.7702V12.249C16.6426 12.087 16.774 11.9574 16.9342 11.9574H19.0528C19.2148 11.9574 19.3444 12.0888 19.3444 12.249V20.7702H19.3462ZM23.3872 20.7702C23.3872 20.9322 23.2558 21.0618 23.0956 21.0618H20.977C20.815 21.0618 20.6854 20.9304 20.6854 20.7702V14.3586C20.6854 14.1966 20.8168 14.067 20.977 14.067H23.0956C23.2576 14.067 23.3872 14.1984 23.3872 14.3586V20.7702Z" fill="#BF5CD6"/>
<path d="M7.63364 21.9006C7.79384 21.906 7.95404 21.9078 8.11424 21.9078C9.90524 21.9078 11.6278 21.6108 13.2334 21.0618H12.8932C12.7312 21.0618 12.6016 20.9304 12.6016 20.7702V16.497C12.6016 16.335 12.733 16.2054 12.8932 16.2054H15.0118C15.1738 16.2054 15.3034 16.3368 15.3034 16.497V20.187C15.7624 19.953 16.2106 19.6956 16.6426 19.4202V12.249C16.6426 12.087 16.774 11.9574 16.9342 11.9574H19.0528C19.2148 11.9574 19.3444 12.0888 19.3444 12.249V17.2386C19.823 16.7577 20.2703 16.2466 20.6836 15.7086V14.3586C20.6836 14.1966 20.815 14.067 20.9752 14.067H21.7888C22.8209 12.3085 23.5019 10.3664 23.794 8.34839H11.1508C9.20684 8.34839 7.63184 9.92339 7.63184 11.8674V21.9006H7.63364Z" fill="#CA6EE0"/>
<path d="M17.8702 8.34839H11.1508C9.20684 8.34839 7.63184 9.92339 7.63184 11.8674V15.9102C12.0058 14.922 15.694 12.1248 17.8702 8.34839Z" fill="#D786EA"/>
</g>
<defs>
<clipPath id="clip0_1222_10267">
<rect width="36" height="36" fill="white"/>
</clipPath>
</defs>
</svg>
